<svg xmlns="http://www.w3.org/2000/svg" xmlns:xlink="http://www.w3.org/1999/xlink" fill="none" version="1.1" width="32" height="32" viewBox="0 0 32 32"><defs><clipPath id="master_svg0_17_36"><rect x="0" y="0" width="32" height="32" rx="0"/></clipPath></defs><g clip-path="url(#master_svg0_17_36)"><g><path d="M0,12L0,24Q0,24.1473,0.00722726,24.2944Q0.0144545,24.4415,0.0288916,24.5881Q0.0433288,24.7347,0.0649409,24.8804Q0.0865531,25.0261,0.115288,25.1705Q0.144023,25.315,0.179812,25.4579Q0.215601,25.6008,0.258358,25.7417Q0.301114,25.8827,0.350736,26.0213Q0.400357,26.16,0.456723,26.2961Q0.513089,26.4322,0.576064,26.5653Q0.63904,26.6985,0.708472,26.8284Q0.777905,26.9583,0.853628,27.0846Q0.929351,27.211,1.01118,27.3334Q1.09301,27.4559,1.18075,27.5742Q1.2685,27.6925,1.36194,27.8064Q1.45538,27.9202,1.55429,28.0294Q1.65321,28.1385,1.75736,28.2426Q1.86151,28.3468,1.97065,28.4457Q2.07978,28.5446,2.19364,28.6381Q2.3075,28.7315,2.4258,28.8192Q2.54411,28.907,2.66658,28.9888Q2.78905,29.0706,2.91538,29.1464Q3.04172,29.2221,3.17162,29.2915Q3.30152,29.361,3.43467,29.4239Q3.56782,29.4869,3.7039,29.5433Q3.83998,29.5996,3.97866,29.6493Q4.11734,29.6989,4.25829,29.7416Q4.39924,29.7844,4.54212,29.8202Q4.685,29.856,4.82946,29.8847Q4.97392,29.9134,5.11962,29.9351Q5.26532,29.9567,5.4119,29.9711Q5.55848,29.9855,5.70559,29.9928Q5.85271,30,6,30L26,30Q26.1473,30,26.2944,29.9928Q26.4415,29.9855,26.5881,29.9711Q26.7347,29.9567,26.8804,29.9351Q27.0261,29.9134,27.1705,29.8847Q27.315,29.856,27.4579,29.8202Q27.6008,29.7844,27.7417,29.7416Q27.8827,29.6989,28.0213,29.6493Q28.16,29.5996,28.2961,29.5433Q28.4322,29.4869,28.5653,29.4239Q28.6985,29.361,28.8284,29.2915Q28.9583,29.2221,29.0846,29.1464Q29.2109,29.0706,29.3334,28.9888Q29.4559,28.907,29.5742,28.8192Q29.6925,28.7315,29.8064,28.6381Q29.9202,28.5446,30.0294,28.4457Q30.1385,28.3468,30.2426,28.2426Q30.3468,28.1385,30.4457,28.0294Q30.5446,27.9202,30.6381,27.8064Q30.7315,27.6925,30.8192,27.5742Q30.907,27.4559,30.9888,27.3334Q31.0706,27.211,31.1464,27.0846Q31.2221,26.9583,31.2915,26.8284Q31.361,26.6985,31.4239,26.5653Q31.4869,26.4322,31.5433,26.2961Q31.5996,26.16,31.6493,26.0213Q31.6989,25.8827,31.7416,25.7417Q31.7844,25.6008,31.8202,25.4579Q31.856,25.315,31.8847,25.1705Q31.9134,25.0261,31.9351,24.8804Q31.9567,24.7347,31.9711,24.5881Q31.9855,24.4415,31.9928,24.2944Q32,24.1473,32,24L32,12Q32,11.85271,31.9928,11.70559Q31.9855,11.55848,31.9711,11.4119Q31.9567,11.26531,31.9351,11.119620000000001Q31.9134,10.97392,31.8847,10.829460000000001Q31.856,10.684999999999999,31.8202,10.54212Q31.7844,10.399239999999999,31.7416,10.258289999999999Q31.6989,10.11734,31.6493,9.97866Q31.5996,9.83998,31.5433,9.7039Q31.4869,9.567820000000001,31.4239,9.43467Q31.361,9.30152,31.2915,9.17162Q31.2221,9.04172,31.1464,8.915379999999999Q31.0706,8.78905,30.9888,8.66658Q30.907,8.54411,30.8192,8.4258Q30.7315,8.307500000000001,30.6381,8.19364Q30.5446,8.07978,30.4457,7.97065Q30.3468,7.86151,30.2426,7.75736Q30.1385,7.65321,30.0294,7.55429Q29.9202,7.45538,29.8064,7.36194Q29.6925,7.2684999999999995,29.5742,7.18075Q29.4559,7.09301,29.3334,7.0111799999999995Q29.2109,6.9293510000000005,29.0846,6.8536280000000005Q28.9583,6.777905,28.8284,6.708472Q28.6985,6.63904,28.5653,6.576064Q28.4322,6.513089,28.2961,6.456723Q28.16,6.400357,28.0213,6.350736Q27.8827,6.301114,27.7417,6.258358Q27.6008,6.215601,27.4579,6.179812Q27.315,6.144023,27.1705,6.115288Q27.0261,6.0865531,26.8804,6.0649409Q26.7347,6.0433288,26.5881,6.0288916Q26.4415,6.0144545,26.2944,6.00722726Q26.1473,6,26,6L6,6Q5.85271,6,5.70559,6.00722726Q5.55848,6.0144545,5.4119,6.0288916Q5.26531,6.0433288,5.11962,6.0649409Q4.97392,6.0865531,4.82946,6.115288Q4.685,6.144023,4.54212,6.179812Q4.39924,6.215601,4.25829,6.258358Q4.11734,6.301114,3.97866,6.350736Q3.83998,6.400357,3.7039,6.456723Q3.56782,6.513089,3.43467,6.576064Q3.30152,6.63904,3.17162,6.708472Q3.04172,6.777905,2.91538,6.8536280000000005Q2.78905,6.9293510000000005,2.66658,7.0111799999999995Q2.54411,7.09301,2.4258,7.18075Q2.3075,7.2684999999999995,2.19364,7.36194Q2.07978,7.45538,1.97065,7.55429Q1.86151,7.65321,1.75736,7.75736Q1.65321,7.86151,1.55429,7.97065Q1.45538,8.07978,1.36194,8.19364Q1.2685,8.307500000000001,1.18075,8.4258Q1.09301,8.54411,1.01118,8.66658Q0.929351,8.78905,0.853628,8.915379999999999Q0.777905,9.04172,0.708472,9.17162Q0.63904,9.30152,0.576064,9.43467Q0.513089,9.567820000000001,0.456723,9.7039Q0.400357,9.83998,0.350736,9.97866Q0.301114,10.11734,0.258358,10.258289999999999Q0.215601,10.399239999999999,0.179812,10.54212Q0.144023,10.684999999999999,0.115288,10.829460000000001Q0.0865531,10.97392,0.0649409,11.119620000000001Q0.0433288,11.26532,0.0288916,11.4119Q0.0144545,11.55848,0.00722726,11.70559Q0,11.85271,0,12ZM4,12L4,24Q4,24.0983,4.00963,24.196Q4.01926,24.2938,4.03843,24.3902Q4.0576,24.4865,4.08612,24.5806Q4.11464,24.6746,4.15224,24.7654Q4.18984,24.8561,4.23616,24.9428Q4.28247,25.0294,4.33706,25.1111Q4.39165,25.1928,4.45398,25.2688Q4.51631,25.3447,4.58579,25.4142Q4.65526,25.4837,4.73121,25.546Q4.80716,25.6083,4.88886,25.6629Q4.97055,25.7175,5.05721,25.7638Q5.14386,25.8102,5.23463,25.8478Q5.32541,25.8854,5.41943,25.9139Q5.51345,25.9424,5.60982,25.9616Q5.70618,25.9807,5.80397,25.9904Q5.90175,26,6,26L26,26Q26.0983,26,26.196,25.9904Q26.2938,25.9807,26.3902,25.9616Q26.4865,25.9424,26.5806,25.9139Q26.6746,25.8854,26.7654,25.8478Q26.8561,25.8102,26.9428,25.7638Q27.0294,25.7175,27.1111,25.6629Q27.1928,25.6084,27.2688,25.546Q27.3447,25.4837,27.4142,25.4142Q27.4837,25.3447,27.546,25.2688Q27.6084,25.1928,27.6629,25.1111Q27.7175,25.0294,27.7638,24.9428Q27.8102,24.8561,27.8478,24.7654Q27.8854,24.6746,27.9139,24.5806Q27.9424,24.4865,27.9616,24.3902Q27.9807,24.2938,27.9904,24.196Q28,24.0983,28,24L28,12Q28,11.90175,27.9904,11.80397Q27.9807,11.70618,27.9616,11.60982Q27.9424,11.513449999999999,27.9139,11.41943Q27.8854,11.32541,27.8478,11.23463Q27.8102,11.14386,27.7638,11.057210000000001Q27.7175,10.97055,27.6629,10.888860000000001Q27.6084,10.80716,27.546,10.73121Q27.4837,10.65526,27.4142,10.58579Q27.3447,10.51631,27.2688,10.45398Q27.1928,10.39165,27.1111,10.337060000000001Q27.0294,10.28247,26.9428,10.23616Q26.8561,10.18984,26.7654,10.152239999999999Q26.6746,10.11464,26.5806,10.086120000000001Q26.4865,10.0576,26.3902,10.03843Q26.2938,10.01926,26.196,10.00963Q26.0983,10,26,10L6,10Q5.90175,10,5.80397,10.00963Q5.70618,10.01926,5.60982,10.03843Q5.51345,10.0576,5.41943,10.086120000000001Q5.32541,10.11464,5.23463,10.152239999999999Q5.14386,10.18984,5.05721,10.23616Q4.97055,10.28247,4.88886,10.337060000000001Q4.80716,10.39165,4.73121,10.45398Q4.65526,10.51631,4.58579,10.58579Q4.51631,10.65526,4.45398,10.73121Q4.39165,10.80716,4.33706,10.888860000000001Q4.28247,10.97055,4.23616,11.057210000000001Q4.18984,11.14386,4.15224,11.23463Q4.11464,11.32541,4.08612,11.41943Q4.0576,11.513449999999999,4.03843,11.60982Q4.01926,11.70618,4.00963,11.80397Q4,11.90175,4,12Z" fill-rule="evenodd" fill="#FC8BAB" fill-opacity="1"/></g><g><rect x="8" y="14" width="4" height="6" rx="2" fill="#FC8BAB" fill-opacity="1"/></g><g><rect x="20" y="14" width="4" height="6" rx="2" fill="#FC8BAB" fill-opacity="1"/></g><g transform="matrix(0.7071067690849304,-0.7071068286895752,0.7071068286895752,0.7071067690849304,-0.6817669607698917,4.0103193977847695)"><rect x="4.5" y="2.828125" width="4" height="10" rx="2" fill="#FC8BAB" fill-opacity="1"/></g><g transform="matrix(0.7071067690849304,0.7071068286895752,0.7071068286895752,-0.7071067690849304,0.12616529129445553,-0.3045911737717688)"><rect x="17.5" y="7.0703125" width="4" height="10" rx="2" fill="#FC8BAB" fill-opacity="1"/></g></g></svg>