<svg xmlns="http://www.w3.org/2000/svg" xmlns:xlink="http://www.w3.org/1999/xlink" fill="none" version="1.1" width="32" height="32" viewBox="0 0 32 32"><defs><clipPath id="master_svg0_19_021"><rect x="0" y="0" width="32" height="32" rx="4"/></clipPath></defs><g clip-path="url(#master_svg0_19_021)"><g><path d="M0,8L0,24Q0,24.1964,0.00963635,24.3925Q0.0192727,24.5887,0.0385222,24.7841Q0.0577717,24.9796,0.0865879,25.1738Q0.115404,25.3681,0.153718,25.5607Q0.192031,25.7533,0.23975,25.9438Q0.287469,26.1343,0.344477,26.3223Q0.401486,26.5102,0.467647,26.6951Q0.533809,26.88,0.608964,27.0615Q0.684118,27.2429,0.768086,27.4204Q0.852053,27.598,0.94463,27.7712Q1.03721,27.9444,1.13817,28.1128Q1.23914,28.2813,1.34824,28.4446Q1.45735,28.6079,1.57434,28.7656Q1.69133,28.9233,1.81592,29.0751Q1.9405,29.227,2.07239,29.3725Q2.20428,29.518,2.34315,29.6569Q2.48201,29.7957,2.62753,29.9276Q2.77304,30.0595,2.92485,30.1841Q3.07666,30.3087,3.23441,30.4257Q3.39215,30.5426,3.55544,30.6518Q3.71873,30.7609,3.88718,30.8618Q4.05563,30.9628,4.22883,31.0554Q4.40203,31.1479,4.57956,31.2319Q4.75709,31.3159,4.93853,31.391Q5.11997,31.4662,5.30488,31.5323Q5.48979,31.5985,5.67772,31.6555Q5.86565,31.7125,6.05616,31.7602Q6.24666,31.808,6.43928,31.8463Q6.63189,31.8846,6.82616,31.9134Q7.02042,31.9422,7.21586,31.9615Q7.41131,31.9807,7.60746,31.9904Q7.80361,32,8,32L24,32Q24.1964,32,24.3925,31.9904Q24.5887,31.9807,24.7841,31.9615Q24.9796,31.9422,25.1738,31.9134Q25.3681,31.8846,25.5607,31.8463Q25.7533,31.808,25.9438,31.7602Q26.1343,31.7125,26.3223,31.6555Q26.5102,31.5985,26.6951,31.5323Q26.88,31.4662,27.0615,31.391Q27.2429,31.3159,27.4204,31.2319Q27.598,31.1479,27.7712,31.0554Q27.9444,30.9628,28.1128,30.8618Q28.2813,30.7609,28.4446,30.6518Q28.6079,30.5426,28.7656,30.4257Q28.9233,30.3087,29.0751,30.1841Q29.227,30.0595,29.3725,29.9276Q29.518,29.7957,29.6569,29.6569Q29.7957,29.518,29.9276,29.3725Q30.0595,29.227,30.1841,29.0751Q30.3087,28.9233,30.4257,28.7656Q30.5426,28.6079,30.6518,28.4446Q30.7609,28.2813,30.8618,28.1128Q30.9628,27.9444,31.0554,27.7712Q31.1479,27.598,31.2319,27.4204Q31.3159,27.2429,31.391,27.0615Q31.4662,26.88,31.5323,26.6951Q31.5985,26.5102,31.6555,26.3223Q31.7125,26.1343,31.7602,25.9438Q31.808,25.7533,31.8463,25.5607Q31.8846,25.3681,31.9134,25.1738Q31.9422,24.9796,31.9615,24.7841Q31.9807,24.5887,31.9904,24.3925Q32,24.1964,32,24L32,8Q32,7.80361,31.9904,7.60746Q31.9807,7.41131,31.9615,7.21586Q31.9422,7.02042,31.9134,6.82616Q31.8846,6.63189,31.8463,6.43928Q31.808,6.24666,31.7602,6.05616Q31.7125,5.86565,31.6555,5.67772Q31.5985,5.48979,31.5323,5.30488Q31.4662,5.11997,31.391,4.93853Q31.3159,4.75709,31.2319,4.57956Q31.1479,4.40203,31.0554,4.22883Q30.9628,4.05563,30.8618,3.88718Q30.7609,3.71873,30.6518,3.55544Q30.5426,3.39215,30.4257,3.23441Q30.3087,3.07666,30.1841,2.92485Q30.0595,2.77304,29.9276,2.62753Q29.7957,2.48201,29.6569,2.34315Q29.518,2.20428,29.3725,2.07239Q29.227,1.9405,29.0751,1.81592Q28.9233,1.69133,28.7656,1.57434Q28.6079,1.45735,28.4446,1.34824Q28.2813,1.23914,28.1128,1.13817Q27.9444,1.03721,27.7712,0.94463Q27.598,0.852053,27.4204,0.768086Q27.2429,0.684118,27.0615,0.608964Q26.88,0.533809,26.6951,0.467647Q26.5102,0.401486,26.3223,0.344477Q26.1343,0.287469,25.9438,0.23975Q25.7533,0.192031,25.5607,0.153718Q25.3681,0.115404,25.1738,0.0865879Q24.9796,0.0577717,24.7841,0.0385222Q24.5887,0.0192727,24.3925,0.00963635Q24.1964,0,24,0L8,0Q7.80361,0,7.60746,0.00963635Q7.41131,0.0192727,7.21586,0.0385222Q7.02042,0.0577717,6.82616,0.0865879Q6.63189,0.115404,6.43928,0.153718Q6.24666,0.192031,6.05616,0.23975Q5.86565,0.287469,5.67772,0.344477Q5.48979,0.401486,5.30488,0.467647Q5.11997,0.533809,4.93853,0.608964Q4.75709,0.684118,4.57956,0.768086Q4.40203,0.852053,4.22883,0.94463Q4.05563,1.03721,3.88718,1.13817Q3.71873,1.23914,3.55544,1.34824Q3.39215,1.45735,3.23441,1.57434Q3.07666,1.69133,2.92485,1.81592Q2.77304,1.9405,2.62753,2.07239Q2.48201,2.20428,2.34315,2.34315Q2.20428,2.48201,2.07239,2.62753Q1.9405,2.77304,1.81592,2.92485Q1.69133,3.07666,1.57434,3.23441Q1.45735,3.39215,1.34824,3.55544Q1.23914,3.71873,1.13817,3.88718Q1.03721,4.05563,0.94463,4.22883Q0.852053,4.40203,0.768086,4.57956Q0.684118,4.75709,0.608964,4.93853Q0.533809,5.11997,0.467647,5.30488Q0.401486,5.48979,0.344477,5.67772Q0.287469,5.86565,0.23975,6.05616Q0.192031,6.24666,0.153718,6.43928Q0.115404,6.63189,0.0865879,6.82616Q0.0577717,7.02042,0.0385222,7.21586Q0.0192727,7.41131,0.00963635,7.60746Q0,7.80361,0,8ZM4,8L4,24Q4,24.1965,4.01926,24.3921Q4.03852,24.5876,4.07686,24.7804Q4.1152,24.9731,4.17224,25.1611Q4.22928,25.3492,4.30448,25.5307Q4.37968,25.7123,4.47231,25.8856Q4.56495,26.0589,4.67412,26.2223Q4.78329,26.3857,4.90796,26.5376Q5.03262,26.6895,5.17157,26.8284Q5.31052,26.9674,5.46243,27.092Q5.61433,27.2167,5.77772,27.3259Q5.94111,27.4351,6.11441,27.5277Q6.28772,27.6203,6.46927,27.6955Q6.65082,27.7707,6.83886,27.8278Q7.02691,27.8848,7.21964,27.9231Q7.41237,27.9615,7.60793,27.9807Q7.80349,28,8,28L24,28Q24.1965,28,24.3921,27.9807Q24.5876,27.9615,24.7804,27.9231Q24.9731,27.8848,25.1611,27.8278Q25.3492,27.7707,25.5307,27.6955Q25.7123,27.6203,25.8856,27.5277Q26.0589,27.4351,26.2223,27.3259Q26.3857,27.2167,26.5376,27.092Q26.6895,26.9674,26.8284,26.8284Q26.9674,26.6895,27.092,26.5376Q27.2167,26.3857,27.3259,26.2223Q27.4351,26.0589,27.5277,25.8856Q27.6203,25.7123,27.6955,25.5307Q27.7707,25.3492,27.8278,25.1611Q27.8848,24.9731,27.9231,24.7804Q27.9615,24.5876,27.9807,24.3921Q28,24.1965,28,24L28,8Q28,7.80349,27.9807,7.60793Q27.9615,7.41237,27.9231,7.21964Q27.8848,7.02691,27.8278,6.83886Q27.7707,6.65082,27.6955,6.46927Q27.6203,6.28772,27.5277,6.11441Q27.4351,5.94111,27.3259,5.77772Q27.2167,5.61433,27.092,5.46243Q26.9674,5.31052,26.8284,5.17157Q26.6895,5.03262,26.5376,4.90796Q26.3857,4.78329,26.2223,4.67412Q26.0589,4.56495,25.8856,4.47231Q25.7123,4.37968,25.5307,4.30448Q25.3492,4.22928,25.1611,4.17224Q24.9731,4.1152,24.7804,4.07686Q24.5876,4.03852,24.3921,4.01926Q24.1965,4,24,4L8,4Q7.80349,4,7.60793,4.01926Q7.41237,4.03852,7.21964,4.07686Q7.02691,4.1152,6.83886,4.17224Q6.65082,4.22928,6.46927,4.30448Q6.28772,4.37968,6.11441,4.47231Q5.94111,4.56495,5.77772,4.67412Q5.61433,4.78329,5.46243,4.90796Q5.31052,5.03262,5.17157,5.17157Q5.03262,5.31052,4.90796,5.46243Q4.78329,5.61433,4.67412,5.77772Q4.56495,5.94111,4.47231,6.11441Q4.37968,6.28772,4.30448,6.46927Q4.22928,6.65082,4.17224,6.83886Q4.1152,7.02691,4.07686,7.21964Q4.03852,7.41237,4.01926,7.60793Q4,7.80349,4,8Z" fill-rule="evenodd" fill="#00B21D" fill-opacity="1"/></g><g><path d="M16,25Q24.3162,25,28.9797,2.200396L27.0203,1.799604Q22.6838,23,16,23Q9.31616,23,4.979715,1.799604L3.020285,2.200396Q7.68384,25,16,25Z" fill-rule="evenodd" fill="#00B21D" fill-opacity="1"/></g><g><path d="M28.2259,18.62523Q29.0293,18,30,18L30,16Q28.3428,16,26.9976,17.0468768Q26.2575,17.622868,25.1107,19.06513Q24.0736,20.36954,23.4814,20.82328Q22.5982,21.5,21.5,21.5Q20.414,21.5,19.5546,20.8372Q18.9768,20.39156,17.966,19.10223Q16.822,17.643143,16.0696,17.0583216Q14.7081,16,13,16Q11.1753,16,9.64759,17.198701Q8.81064,17.855388,7.53468,19.45295Q6.60972,20.61104,6.15372,20.99633Q5.55762,21.5,5,21.5Q2.6770300000000002,21.5,1.928477,19.628610000000002L0.071523,20.371389999999998Q1.322967,23.5,5,23.5Q6.28943,23.5,7.44452,22.52402Q8.050180000000001,22.01227,9.09741,20.7011Q10.22822,19.28528,10.88217,18.77217Q11.8663,18,13,18Q14.0222,18,14.8422,18.6374Q15.4001,19.07101,16.392,20.33621Q17.5572,21.82245,18.3332,22.42091Q19.7324,23.5,21.5,23.5Q23.2763,23.5,24.6978,22.41085Q25.4856,21.8072,26.6762,20.30985Q27.6743,19.05453,28.2259,18.62523Z" fill-rule="evenodd" fill="#00B21D" fill-opacity="1"/></g></g></svg>