<svg xmlns="http://www.w3.org/2000/svg" xmlns:xlink="http://www.w3.org/1999/xlink" fill="none" version="1.1" width="600.0" height="200" viewBox="0 0 600.0 200"><defs><linearGradient x1="0" y1="0.5" x2="1" y2="0.5" id="master_svg0_103_467"><stop offset="0%" stop-color="#000000" stop-opacity="0"/><stop offset="50%" stop-color="#000000" stop-opacity="0.3"/><stop offset="100%" stop-color="#000000" stop-opacity="0"/></linearGradient><linearGradient x1="0" y1="0.5" x2="1" y2="0.5" id="master_svg1_98_1288"><stop offset="0%" stop-color="#000000" stop-opacity="0.4"/><stop offset="50.7%" stop-color="#000000" stop-opacity="0.6"/><stop offset="100%" stop-color="#000000" stop-opacity="0.5"/></linearGradient><linearGradient x1="0" y1="0.5" x2="1" y2="0.5" id="master_svg2_98_1288"><stop offset="0%" stop-color="#000000" stop-opacity="0.4"/><stop offset="50.7%" stop-color="#000000" stop-opacity="0.6"/><stop offset="100%" stop-color="#000000" stop-opacity="0.5"/></linearGradient><filter id="master_svg3_122_356" filterUnits="objectBoundingBox" color-interpolation-filters="sRGB" x="0" y="0" width="160" height="80"><feFlood flood-opacity="0" result="BackgroundImageFix"/><feBlend mode="normal" in="SourceGraphic" in2="BackgroundImageFix" result="shape"/><feColorMatrix in="SourceAlpha" type="matrix" result="hardAlpha" values="0 0 0 0 0 0 0 0 0 0 0 0 0 0 0 0 0 0 127 0"/><feOffset dy="4" dx="0"/><feGaussianBlur stdDeviation="5"/><feComposite in2="hardAlpha" operator="arithmetic" k2="-1" k3="1"/><feColorMatrix type="matrix" values="0 0 0 0 0 0 0 0 0 0 0 0 0 0 0 0 0 0 0.3 0"/><feBlend mode="normal" in2="shape" result="effect1_innerShadow"/></filter><linearGradient x1="0" y1="0.5" x2="1" y2="0.5" id="master_svg4_98_1575"><stop offset="0%" stop-color="#D8D8D8" stop-opacity="0"/><stop offset="100%" stop-color="#D8D8D8" stop-opacity="0.2"/></linearGradient><linearGradient x1="0" y1="0.5" x2="1" y2="0.5" id="master_svg5_98_1575"><stop offset="0%" stop-color="#D8D8D8" stop-opacity="0"/><stop offset="100%" stop-color="#D8D8D8" stop-opacity="0.2"/></linearGradient><filter id="master_svg6_122_362" filterUnits="objectBoundingBox" color-interpolation-filters="sRGB" x="-20" y="-16" width="155" height="75"><feFlood flood-opacity="0" result="BackgroundImageFix"/><feColorMatrix in="SourceAlpha" type="matrix" values="0 0 0 0 0 0 0 0 0 0 0 0 0 0 0 0 0 0 127 0"/><feOffset dy="4" dx="0"/><feGaussianBlur stdDeviation="5"/><feColorMatrix type="matrix" values="0 0 0 0 0.9 0 0 0 0 1.0 0 0 0 0 1 0 0 0 0.3 0"/><feBlend mode="normal" in2="BackgroundImageFix" result="effect1_dropShadow"/><feBlend mode="normal" in="SourceGraphic" in2="effect1_dropShadow" result="shape"/></filter><filter id="master_svg7_122_366" filterUnits="objectBoundingBox" color-interpolation-filters="sRGB" x="-20" y="-16" width="100" height="54"><feFlood flood-opacity="0" result="BackgroundImageFix"/><feColorMatrix in="SourceAlpha" type="matrix" values="0 0 0 0 0 0 0 0 0 0 0 0 0 0 0 0 0 0 127 0"/><feOffset dy="4" dx="0"/><feGaussianBlur stdDeviation="5"/><feColorMatrix type="matrix" values="0 0 0 0 0.9 0 0 0 0 1.0 0 0 0 0 1 0 0 0 0.3 0"/><feBlend mode="normal" in2="BackgroundImageFix" result="effect1_dropShadow"/><feBlend mode="normal" in="SourceGraphic" in2="effect1_dropShadow" result="shape"/></filter><filter id="master_svg8_122_370" filterUnits="objectBoundingBox" color-interpolation-filters="sRGB" x="-20" y="-16" width="112" height="54"><feFlood flood-opacity="0" result="BackgroundImageFix"/><feColorMatrix in="SourceAlpha" type="matrix" values="0 0 0 0 0 0 0 0 0 0 0 0 0 0 0 0 0 0 127 0"/><feOffset dy="4" dx="0"/><feGaussianBlur stdDeviation="5"/><feColorMatrix type="matrix" values="0 0 0 0 0.9 0 0 0 0 1.0 0 0 0 0 1 0 0 0 0.3 0"/><feBlend mode="normal" in2="BackgroundImageFix" result="effect1_dropShadow"/><feBlend mode="normal" in="SourceGraphic" in2="effect1_dropShadow" result="shape"/></filter><filter id="master_svg9_122_374" filterUnits="objectBoundingBox" color-interpolation-filters="sRGB" x="-20" y="-16" width="90" height="54"><feFlood flood-opacity="0" result="BackgroundImageFix"/><feColorMatrix in="SourceAlpha" type="matrix" values="0 0 0 0 0 0 0 0 0 0 0 0 0 0 0 0 0 0 127 0"/><feOffset dy="4" dx="0"/><feGaussianBlur stdDeviation="5"/><feColorMatrix type="matrix" values="0 0 0 0 0.9 0 0 0 0 1.0 0 0 0 0 1 0 0 0 0.3 0"/><feBlend mode="normal" in2="BackgroundImageFix" result="effect1_dropShadow"/><feBlend mode="normal" in="SourceGraphic" in2="effect1_dropShadow" result="shape"/></filter></defs><g><g><rect x="0" y="0" width="600" height="200" rx="0" fill="#00B578" fill-opacity="1"/></g><g><rect x="0" y="0" width="600" height="200" rx="0" fill="url(#master_svg0_103_467)" fill-opacity="1"/></g><g><rect x="0" y="0" width="600" height="20" rx="0" fill="url(#master_svg1_98_1288)" fill-opacity="1"/></g><g><rect x="0" y="180" width="600" height="20" rx="0" fill="url(#master_svg2_98_1288)" fill-opacity="1"/></g><g filter="url(#master_svg3_122_356)"><path d="M220,100L240,140L360,140L380,100L360,60L240,60L220,100Z" fill-rule="evenodd" fill="#000000" fill-opacity="0.2"/></g><g><path d="M0,120L170,120L180,100L170,80L0,80L0,120Z" fill="url(#master_svg4_98_1575)" fill-opacity="1"/></g><g transform="matrix(-1,0,0,1,1200,0)"><path d="M600,120L770,120L780,100L770,80L600,80L600,120Z" fill="url(#master_svg5_98_1575)" fill-opacity="1"/></g><g filter="url(#master_svg6_122_362)"><path d="M259.7,89.0L262.9,89.0L262.9,102.1Q262.9,104.9,261.9,107.0Q260.8,109.1,258.8,110.2Q256.9,111.3,254.1,111.3Q251.3,111.3,249.4,110.2Q247.4,109.1,246.3,107.0Q245.3,104.9,245.3,102.1L245.3,89.0L248.5,89.0L248.5,101.5Q248.5,104.9,250.0,106.6Q251.4,108.4,254.1,108.4Q256.8,108.4,258.2,106.6Q259.7,104.9,259.7,101.5L259.7,89.0ZM274.7,89.0Q277.1,89.0,278.9,89.9Q280.7,90.8,281.7,92.4Q282.8,94.0,282.8,96Q282.8,98.0,281.7,99.6Q280.7,101.2,278.9,102.1Q277.1,102.9,274.7,102.9L270.9,102.9L270.9,111L267.7,111L267.7,89.0L274.7,89.0ZM274.4,100.1Q276.7,100.1,278.0,99.0Q279.3,97.9,279.3,96Q279.3,94.1,278.0,93.0Q276.7,91.8,274.4,91.8L270.9,91.8L270.9,100.1L274.4,100.1ZM292.4,89.0Q295.6,89.0,298.2,90.3Q300.8,91.6,302.2,94.1Q303.7,96.6,303.7,100.0Q303.7,103.4,302.2,105.9Q300.8,108.4,298.2,109.7Q295.6,111,292.4,111L286.0,111L286.0,89.0L292.4,89.0ZM292.0,108.2Q295.9,108.2,298.1,106.0Q300.3,103.9,300.3,100.0Q300.3,96.1,298.1,94.0Q295.9,91.8,292.0,91.8L289.2,91.8L289.2,108.2L292.0,108.2ZM315.5,89.0L324.4,111L320.9,111L318.6,105.1L309.7,105.1L307.5,111L304.3,111L312.8,89.0L315.5,89.0ZM317.5,102.3L314.0,93.2L310.7,102.3L317.5,102.3ZM322.4,89.0L339.1,89.0L339.1,91.9L332.4,91.9L332.4,111L329.1,111L329.1,91.9L322.4,91.9L322.4,89.0ZM354.6,101.1L345.2,101.1L345.2,108.2L356.1,108.2L356.1,111L342,111L342,89.0L355.7,89.0L355.7,91.9L345.2,91.9L345.2,98.3L354.6,98.3L354.6,101.1Z" fill="#F0F8FF" fill-opacity="1"/></g><g filter="url(#master_svg7_122_366)"><path d="M106.0,87.7L116.1,87.7L116.1,88.8L106.0,88.8L106.0,87.7ZM111.3,91.8L115.5,91.8L115.5,92.9L111.3,92.9L111.3,91.8ZM105.6,96.4L116.4,96.4L116.4,97.5L105.6,97.5L105.6,96.4ZM110.7,88.1L111.9,88.1L111.9,96.9L110.7,96.9L110.7,88.1ZM107.2,90.9L108.3,90.9L108.3,97.0L107.2,97.0L107.2,90.9ZM125.5,87.5L126.3,86.9Q126.6,87.1,126.9,87.4Q127.2,87.6,127.5,87.9Q127.8,88.1,128.0,88.3L127.2,89.0Q127.0,88.8,126.7,88.5Q126.5,88.3,126.2,88.0Q125.8,87.8,125.5,87.5ZM117.6,89.0L128.4,89.0L128.4,90.1L117.6,90.1L117.6,89.0ZM118.1,91.7L123.3,91.7L123.3,92.8L118.1,92.8L118.1,91.7ZM120.1,92.4L121.2,92.4L121.2,96.5L120.1,96.5L120.1,92.4ZM117.7,96.5Q118.4,96.4,119.4,96.2Q120.3,96.0,121.5,95.8Q122.6,95.6,123.7,95.4L123.7,96.4Q122.7,96.6,121.7,96.8Q120.7,97.1,119.7,97.3Q118.8,97.5,118.0,97.7L117.7,96.5ZM123.7,86.9L124.9,86.9Q124.9,88.5,125.0,90.0Q125.1,91.4,125.3,92.7Q125.5,93.9,125.8,94.9Q126.0,95.8,126.4,96.3Q126.8,96.8,127.1,96.8Q127.4,96.8,127.5,96.3Q127.6,95.8,127.7,94.6Q127.9,94.8,128.1,95.0Q128.4,95.2,128.7,95.3Q128.6,96.3,128.4,96.9Q128.2,97.5,127.9,97.8Q127.6,98.0,127.1,98.0Q126.4,98.0,125.9,97.6Q125.4,97.2,125.1,96.4Q124.7,95.6,124.4,94.6Q124.2,93.6,124.0,92.3Q123.8,91.1,123.8,89.7Q123.7,88.3,123.7,86.9ZM130.6,90.1L134.3,90.1L134.3,91.1L130.6,91.1L130.6,90.1ZM135.4,90.3L139.5,90.3L139.5,91.3L135.4,91.3L135.4,90.3ZM132.3,86.9L133.3,86.9L133.3,90.7L132.3,90.7L132.3,86.9ZM130.7,92.7L133.6,92.7L133.6,98.0L132.6,98.0L132.6,93.7L130.7,93.7L130.7,92.7ZM130.2,87.1L131.2,87.1L131.2,91.9Q131.2,92.6,131.2,93.5Q131.2,94.3,131.0,95.1Q130.9,95.9,130.7,96.7Q130.5,97.4,130.1,98.1Q130.0,97.9,129.9,97.8Q129.8,97.7,129.6,97.6Q129.5,97.4,129.3,97.4Q129.6,96.8,129.8,96.1Q129.9,95.4,130.0,94.7Q130.1,94.0,130.1,93.3Q130.2,92.5,130.2,91.9L130.2,87.1ZM139.2,90.3L139.4,90.3L139.6,90.3L140.3,90.4Q140.0,92.4,139.4,93.9Q138.8,95.4,138.0,96.4Q137.1,97.4,135.9,98.0Q135.8,97.9,135.7,97.7Q135.6,97.6,135.5,97.4Q135.3,97.2,135.2,97.1Q136.3,96.6,137.1,95.7Q137.9,94.8,138.4,93.5Q139.0,92.2,139.2,90.5L139.2,90.3ZM136.7,91.0Q137.0,92.3,137.5,93.6Q138.0,94.8,138.8,95.7Q139.6,96.6,140.6,97.1Q140.5,97.2,140.3,97.4Q140.2,97.6,140.1,97.7Q139.9,97.9,139.8,98.0Q138.8,97.4,138.0,96.4Q137.2,95.4,136.7,94.0Q136.2,92.7,135.9,91.1L136.7,91.0ZM139.8,87.0L140.5,87.9Q139.7,88.1,138.8,88.2Q137.9,88.4,136.9,88.5Q136.0,88.6,135.1,88.6Q135.0,88.4,134.9,88.1Q134.9,87.8,134.8,87.6Q135.6,87.6,136.6,87.5Q137.5,87.4,138.3,87.2Q139.2,87.1,139.8,87.0ZM134.8,87.6L135.9,87.6L135.9,91.7Q135.9,92.5,135.8,93.3Q135.8,94.2,135.6,95.0Q135.5,95.9,135.3,96.7Q135.0,97.4,134.7,98.1Q134.6,98.0,134.4,97.9Q134.2,97.8,134.1,97.6Q133.9,97.5,133.8,97.5Q134.1,96.9,134.3,96.1Q134.5,95.4,134.6,94.7Q134.7,93.9,134.7,93.1Q134.8,92.4,134.8,91.7L134.8,87.6ZM141.8,87.5L152.3,87.5L152.3,88.5L141.8,88.5L141.8,87.5ZM146.5,87.9L147.7,87.9L147.7,92.6Q147.7,93.3,147.6,94.0Q147.4,94.7,147.1,95.3Q146.8,95.9,146.2,96.4Q145.5,96.9,144.6,97.3Q143.6,97.7,142.2,98.0Q142.1,97.9,142.0,97.7Q141.9,97.5,141.8,97.3Q141.6,97.1,141.5,97.0Q142.9,96.8,143.8,96.5Q144.7,96.1,145.2,95.7Q145.8,95.3,146.0,94.8Q146.3,94.3,146.4,93.8Q146.5,93.2,146.5,92.6L146.5,87.9ZM143.9,92.2L143.9,93.2L150.4,93.2L150.4,92.2L143.9,92.2ZM143.9,90.3L143.9,91.3L150.4,91.3L150.4,90.3L143.9,90.3ZM142.8,89.4L151.5,89.4L151.5,94.2L142.8,94.2L142.8,89.4ZM144.1,94.2Q144.7,95.0,145.5,95.5Q146.3,96.1,147.4,96.3Q148.5,96.6,149.8,96.7Q151.1,96.8,152.7,96.8Q152.5,97.0,152.4,97.3Q152.3,97.6,152.2,97.9Q150.6,97.9,149.2,97.7Q147.8,97.6,146.7,97.2Q145.5,96.9,144.7,96.2Q143.8,95.6,143.1,94.6L144.1,94.2ZM160.1,90.9L164.5,90.9L164.5,91.9L160.1,91.9L160.1,90.9ZM153.7,88.1L159.0,88.1L159.0,89.0L153.7,89.0L153.7,88.1ZM153.6,92.9L159.1,92.9L159.1,93.8L153.6,93.8L153.6,92.9ZM153.5,90.8L159.2,90.8L159.2,91.8L153.5,91.8L153.5,90.8ZM162.2,91.3L163.3,91.3L163.3,98.0L162.2,98.0L162.2,91.3ZM154.4,89.3L155.3,89.1Q155.5,89.4,155.6,89.9Q155.8,90.3,155.8,90.6L154.8,90.9Q154.8,90.6,154.7,90.1Q154.6,89.7,154.4,89.3ZM157.4,89.0L158.4,89.3Q158.2,89.8,158.0,90.3Q157.8,90.8,157.7,91.2L156.7,90.9Q156.9,90.7,157.0,90.4Q157.1,90.0,157.2,89.7Q157.3,89.3,157.4,89.0ZM163.3,87.0L164.2,87.9Q163.6,88.1,162.9,88.3Q162.2,88.5,161.4,88.6Q160.7,88.8,160.0,88.9Q159.9,88.7,159.8,88.4Q159.7,88.2,159.6,88.0Q160.3,87.9,161.0,87.7Q161.7,87.6,162.3,87.4Q162.9,87.2,163.3,87.0ZM155.5,87.1L156.5,86.8Q156.7,87.2,156.9,87.6Q157.1,88.1,157.2,88.4L156.1,88.7Q156.0,88.4,155.9,87.9Q155.7,87.4,155.5,87.1ZM155.9,91.4L156.9,91.4L156.9,96.7Q156.9,97.1,156.8,97.3Q156.8,97.5,156.5,97.6Q156.3,97.7,156.0,97.7Q155.6,97.8,155.2,97.8Q155.1,97.6,155.0,97.3Q154.9,97.0,154.8,96.8Q155.1,96.8,155.4,96.8Q155.6,96.8,155.7,96.8Q155.9,96.8,155.9,96.7L155.9,91.4ZM159.6,88.0L160.7,88.0L160.7,92.2Q160.7,92.8,160.6,93.6Q160.6,94.3,160.5,95.1Q160.3,95.9,160.1,96.6Q159.8,97.3,159.4,97.9Q159.4,97.8,159.2,97.6Q159.0,97.5,158.9,97.4Q158.7,97.3,158.6,97.2Q159.0,96.5,159.3,95.6Q159.5,94.8,159.5,93.9Q159.6,93.0,159.6,92.2L159.6,88.0ZM157.3,94.6L158.0,94.1Q158.3,94.6,158.6,95.1Q158.9,95.6,159.0,96.0L158.3,96.4Q158.1,96.1,157.8,95.5Q157.6,95.0,157.3,94.6ZM154.5,94.2L155.4,94.5Q155.2,95.1,154.9,95.7Q154.5,96.3,154.2,96.7Q154.0,96.6,153.8,96.4Q153.6,96.2,153.4,96.1Q153.8,95.8,154.0,95.3Q154.3,94.8,154.5,94.2Z" fill="#F0F8FF" fill-opacity="1"/></g><g filter="url(#master_svg8_122_370)"><path d="M95.4,102.2L98.1,109.2L100.6,102.2L102.0,102.2L98.6,111L97.5,111L94.0,102.2L95.4,102.2ZM104.7,104.6Q105.5,104.6,106.1,105.0Q106.7,105.4,107.1,106.0Q107.4,106.7,107.4,107.5Q107.4,107.8,107.3,108.2L103.0,108.2Q103.0,109.1,103.5,109.6Q104.0,110.1,104.8,110.1Q105.8,110.1,106.2,109.2L107.1,109.8Q106.9,110.4,106.2,110.8Q105.6,111.1,104.7,111.1Q103.9,111.1,103.2,110.8Q102.5,110.4,102.1,109.6Q101.7,108.9,101.7,107.9Q101.7,106.8,102.1,106.1Q102.5,105.4,103.2,105.0Q103.9,104.6,104.7,104.6ZM104.6,105.7Q104.0,105.7,103.6,106.1Q103.1,106.5,103.0,107.2L106.1,107.2Q106.0,106.5,105.6,106.1Q105.3,105.7,104.6,105.7ZM111.5,104.6Q111.8,104.6,112.0,104.7Q112.3,104.8,112.5,104.9L112.0,105.9Q111.7,105.7,111.4,105.7Q110.7,105.7,110.3,106.3Q109.9,106.9,109.9,107.9L109.9,111L108.6,111L108.6,104.8L109.7,104.8Q109.7,105.3,109.8,105.8Q110.1,105.2,110.5,104.9Q110.9,104.6,111.5,104.6ZM117.6,109.2Q117.6,110.1,116.9,110.6Q116.3,111.1,115.2,111.1Q114.2,111.1,113.6,110.7Q112.9,110.3,112.7,109.6L113.6,109.1Q113.8,109.6,114.2,109.8Q114.6,110.1,115.2,110.1Q115.7,110.1,116.0,109.9Q116.3,109.7,116.3,109.3Q116.3,109.0,116.1,108.8Q115.9,108.6,115.7,108.5Q115.4,108.4,114.9,108.3Q114.2,108.1,113.8,107.9Q113.5,107.7,113.2,107.4Q112.9,107.1,112.9,106.5Q112.9,106.0,113.2,105.5Q113.5,105.1,114.1,104.9Q114.6,104.6,115.2,104.6Q116.1,104.6,116.7,105Q117.3,105.4,117.5,106.0L116.6,106.5Q116.4,106.1,116.1,105.9Q115.7,105.7,115.2,105.7Q114.7,105.7,114.5,105.9Q114.2,106.1,114.2,106.4Q114.2,106.7,114.3,106.9Q114.5,107.0,114.8,107.1Q115.0,107.2,115.5,107.4Q116.2,107.5,116.6,107.7Q117,107.9,117.3,108.3Q117.6,108.6,117.6,109.2ZM119.4,103.8Q119.1,103.8,118.8,103.5Q118.6,103.3,118.6,103.0Q118.6,102.6,118.8,102.4Q119.1,102.2,119.4,102.2Q119.7,102.2,119.9,102.4Q120.2,102.6,120.2,103.0Q120.2,103.3,119.9,103.5Q119.7,103.8,119.4,103.8ZM120,111L118.8,111L118.8,104.8L120,104.8L120,111ZM121.4,107.9Q121.4,106.9,121.8,106.2Q122.2,105.4,122.9,105.0Q123.6,104.6,124.5,104.6Q125.3,104.6,126.0,105.0Q126.7,105.4,127.1,106.2Q127.5,106.9,127.5,107.9Q127.5,108.8,127.1,109.6Q126.7,110.3,126.0,110.7Q125.3,111.1,124.5,111.1Q123.6,111.1,122.9,110.7Q122.2,110.3,121.8,109.6Q121.4,108.8,121.4,107.9ZM122.7,107.9Q122.7,108.9,123.2,109.4Q123.7,110.0,124.5,110.0Q125.2,110.0,125.7,109.4Q126.2,108.9,126.2,107.9Q126.2,106.9,125.7,106.3Q125.2,105.7,124.5,105.7Q123.7,105.7,123.2,106.3Q122.7,106.9,122.7,107.9ZM132.1,104.6Q133.1,104.6,133.7,105.3Q134.3,105.9,134.3,107.2L134.3,111L133.1,111L133.1,107.6Q133.1,106.7,132.7,106.2Q132.4,105.8,131.7,105.8Q131.1,105.8,130.6,106.2Q130.1,106.7,130.1,107.6L130.1,111L128.9,111L128.9,104.8L130.0,104.8Q130.0,105.4,130.1,105.8Q130.4,105.2,130.9,104.9Q131.4,104.6,132.1,104.6ZM144.7,106.6Q144.7,108.8,144.0,110.0Q143.2,111.1,141.8,111.1Q140.4,111.1,139.6,110.0Q138.9,108.8,138.9,106.6Q138.9,104.4,139.6,103.2Q140.4,102.1,141.8,102.1Q143.2,102.1,144.0,103.2Q144.7,104.4,144.7,106.6ZM140.2,106.6Q140.2,108.3,140.6,109.1Q141,110.0,141.8,110.0Q142.6,110.0,143.0,109.1Q143.4,108.3,143.4,106.6Q143.4,104.9,143.0,104.1Q142.6,103.2,141.8,103.2Q141,103.2,140.6,104.1Q140.2,104.9,140.2,106.6ZM146.7,111.1Q146.4,111.1,146.2,110.9Q145.9,110.7,145.9,110.3Q145.9,110.0,146.2,109.8Q146.4,109.5,146.7,109.5Q147.0,109.5,147.3,109.8Q147.5,110.0,147.5,110.3Q147.5,110.7,147.3,110.9Q147.0,111.1,146.7,111.1ZM154.6,106.6Q154.6,108.8,153.8,110.0Q153.1,111.1,151.7,111.1Q150.3,111.1,149.5,110.0Q148.7,108.8,148.7,106.6Q148.7,104.4,149.5,103.2Q150.3,102.1,151.7,102.1Q153.1,102.1,153.8,103.2Q154.6,104.4,154.6,106.6ZM150.1,106.6Q150.1,108.3,150.5,109.1Q150.9,110.0,151.7,110.0Q152.5,110.0,152.8,109.1Q153.2,108.3,153.2,106.6Q153.2,104.9,152.8,104.1Q152.5,103.2,151.7,103.2Q150.9,103.2,150.5,104.1Q150.1,104.9,150.1,106.6ZM156.6,111.1Q156.3,111.1,156.0,110.9Q155.8,110.7,155.8,110.3Q155.8,110.0,156.0,109.8Q156.3,109.5,156.6,109.5Q156.9,109.5,157.1,109.8Q157.4,110.0,157.4,110.3Q157.4,110.7,157.1,110.9Q156.9,111.1,156.6,111.1ZM161.8,105.5Q162.6,105.5,163.2,105.9Q163.8,106.2,164.2,106.9Q164.5,107.5,164.5,108.3Q164.5,109.1,164.1,109.7Q163.8,110.4,163.1,110.8Q162.4,111.1,161.6,111.1Q160.8,111.1,160.1,110.8Q159.4,110.4,159.1,109.7Q158.7,109.1,158.7,108.2Q158.7,107.6,158.9,107.0Q159.2,106.4,159.7,105.5L161.8,102.2L163.2,102.2L161.4,105.1L161.0,105.6Q161.4,105.5,161.8,105.5ZM161.6,110.0Q162.3,110.0,162.7,109.5Q163.2,109.0,163.2,108.3Q163.2,107.6,162.7,107.1Q162.3,106.6,161.6,106.6Q160.9,106.6,160.5,107.1Q160.0,107.6,160.0,108.3Q160.0,109.1,160.5,109.5Q160.9,110.0,161.6,110.0Z" fill="#F0F8FF" fill-opacity="1"/></g><g filter="url(#master_svg9_122_374)"><path d="M440.9,99.4Q442.5,99.9,442.5,101.5Q442.5,102.7,441.7,103.3Q440.8,104,439.3,104L436.0,104L436.0,95.2L438.9,95.2Q440.3,95.2,441.2,95.9Q442.0,96.5,442.0,97.6Q442.0,98.9,440.9,99.4ZM437.3,96.3L437.3,99.0L438.7,99.0Q439.6,99.0,440.1,98.6Q440.6,98.3,440.6,97.6Q440.6,97.0,440.1,96.7Q439.6,96.3,438.7,96.3L437.3,96.3ZM439.1,102.9Q440.1,102.9,440.6,102.5Q441.1,102.1,441.1,101.5Q441.1,100.8,440.6,100.4Q440.1,100.0,439.1,100.0L437.3,100.0L437.3,102.9L439.1,102.9ZM445.0,104L443.8,104L443.8,94.9L445.0,94.9L445.0,104ZM446.4,100.9Q446.4,99.9,446.8,99.2Q447.3,98.4,448.0,98.0Q448.7,97.6,449.5,97.6Q450.3,97.6,451.0,98.0Q451.7,98.4,452.1,99.2Q452.5,99.9,452.5,100.9Q452.5,101.8,452.1,102.6Q451.7,103.3,451.0,103.7Q450.3,104.1,449.5,104.1Q448.7,104.1,448.0,103.7Q447.3,103.3,446.8,102.6Q446.4,101.8,446.4,100.9ZM447.7,100.9Q447.7,101.9,448.2,102.4Q448.7,103.0,449.5,103.0Q450.2,103.0,450.7,102.4Q451.2,101.9,451.2,100.9Q451.2,99.9,450.7,99.3Q450.2,98.7,449.5,98.7Q448.7,98.7,448.2,99.3Q447.7,99.9,447.7,100.9ZM459.5,97.8L459.5,103.5Q459.5,105.4,458.6,106.1Q457.7,106.9,456.5,106.9Q455.5,106.9,454.8,106.5Q454.1,106.1,453.8,105.4L454.8,104.8Q455.2,105.8,456.5,105.8Q457.4,105.8,457.8,105.3Q458.3,104.7,458.3,103.5L458.3,103.0Q458.0,103.6,457.5,103.9Q457.0,104.1,456.3,104.1Q455.6,104.1,455.0,103.7Q454.3,103.4,453.9,102.6Q453.6,101.9,453.6,100.9Q453.6,99.9,453.9,99.1Q454.3,98.4,455.0,98.0Q455.6,97.6,456.3,97.6Q457.0,97.6,457.5,97.9Q458.0,98.2,458.4,98.8Q458.4,98.1,458.4,97.8L459.5,97.8ZM456.5,103.0Q457.3,103.0,457.8,102.5Q458.3,102.0,458.3,100.9Q458.3,99.8,457.8,99.3Q457.3,98.8,456.5,98.8Q455.8,98.8,455.3,99.3Q454.8,99.9,454.8,100.9Q454.8,101.9,455.3,102.5Q455.8,103.0,456.5,103.0ZM468.0,98.6L469.1,98.6L469.1,103.2Q469.1,103.5,469.2,103.6Q469.2,103.7,469.5,103.7Q469.5,103.7,469.7,103.7Q469.8,103.7,470.0,103.7Q470.1,103.7,470.3,103.7Q470.4,103.7,470.5,103.7Q470.7,103.7,470.7,103.5Q470.8,103.4,470.9,103.0Q470.9,102.6,470.9,101.8Q471.0,101.9,471.2,102.0Q471.4,102.1,471.6,102.2Q471.8,102.2,471.9,102.3Q471.9,103.2,471.7,103.7Q471.6,104.3,471.3,104.5Q471.1,104.7,470.6,104.7Q470.5,104.7,470.3,104.7Q470.2,104.7,469.9,104.7Q469.7,104.7,469.6,104.7Q469.4,104.7,469.3,104.7Q468.8,104.7,468.5,104.6Q468.2,104.4,468.1,104.1Q468.0,103.8,468.0,103.2L468.0,98.6ZM463.9,96.7L471.8,96.7L471.8,97.8L463.9,97.8L463.9,96.7ZM466.5,94.0L467.7,94.0Q467.7,95.3,467.6,96.6Q467.6,97.9,467.4,99.1Q467.3,100.3,466.9,101.4Q466.6,102.5,466.0,103.4Q465.4,104.3,464.4,105.0Q464.3,104.8,464.1,104.5Q463.8,104.3,463.6,104.1Q464.5,103.5,465.0,102.7Q465.6,101.9,465.9,100.9Q466.2,99.9,466.3,98.8Q466.5,97.6,466.5,96.4Q466.5,95.2,466.5,94.0ZM468.8,94.7L469.6,94.1Q469.8,94.4,470.2,94.7Q470.5,95.1,470.7,95.4Q471.0,95.7,471.2,95.9L470.3,96.6Q470.2,96.3,469.9,96.0Q469.7,95.7,469.4,95.3Q469.1,95.0,468.8,94.7ZM463.5,93.9L464.6,94.2Q464.2,95.3,463.7,96.3Q463.2,97.3,462.6,98.2Q462.0,99.0,461.4,99.7Q461.3,99.6,461.2,99.4Q461.1,99.2,461.0,98.9Q460.9,98.7,460.8,98.6Q461.3,98.0,461.8,97.2Q462.3,96.5,462.8,95.6Q463.2,94.8,463.5,93.9ZM462.3,97.1L463.3,96.0L463.3,96.1L463.3,105.0L462.3,105.0L462.3,97.1ZM478.5,94.1L479.7,94.1L479.7,102.9Q479.7,103.4,479.8,103.5Q480.0,103.7,480.4,103.7Q480.5,103.7,480.7,103.7Q480.9,103.7,481.2,103.7Q481.5,103.7,481.7,103.7Q482.0,103.7,482.1,103.7Q482.4,103.7,482.5,103.4Q482.7,103.2,482.8,102.7Q482.8,102.1,482.9,101.1Q483.0,101.2,483.2,101.4Q483.4,101.5,483.6,101.6Q483.8,101.6,484.0,101.7Q483.9,102.8,483.8,103.5Q483.6,104.2,483.2,104.5Q482.9,104.8,482.2,104.8Q482.1,104.8,481.9,104.8Q481.7,104.8,481.5,104.8Q481.2,104.8,480.9,104.8Q480.7,104.8,480.5,104.8Q480.3,104.8,480.2,104.8Q479.6,104.8,479.2,104.6Q478.8,104.4,478.7,104.0Q478.5,103.6,478.5,102.8L478.5,94.1ZM482.7,95.5L483.8,96.3Q482.9,97.5,481.7,98.6Q480.6,99.7,479.4,100.5Q478.2,101.4,477.0,102.0Q476.9,101.9,476.7,101.7Q476.6,101.6,476.4,101.4Q476.3,101.2,476.1,101.1Q477.3,100.6,478.5,99.7Q479.7,98.9,480.8,97.8Q481.9,96.7,482.7,95.5ZM476.0,93.8L477.1,94.2Q476.7,95.2,476.1,96.2Q475.6,97.2,474.9,98.1Q474.3,99.0,473.6,99.6Q473.5,99.5,473.4,99.3Q473.2,99.1,473.1,98.9Q472.9,98.6,472.8,98.5Q473.5,97.9,474.1,97.2Q474.6,96.5,475.1,95.6Q475.6,94.7,476.0,93.8ZM474.7,97.0L475.9,95.8L475.9,95.8L475.9,105.0L474.7,105.0L474.7,97.0Z" fill="#F0F8FF" fill-opacity="1"/></g><g><path d="M17.6,13L16.3,13L14.2,10.1L14.2,10.1L12.9,10.1L12.9,13L11.8,13L11.8,5.7L14.2,5.7Q15.0,5.7,15.6,6.0Q16.2,6.2,16.5,6.7Q16.8,7.2,16.8,7.9Q16.8,8.6,16.4,9.2Q16.1,9.7,15.4,9.9L17.6,13ZM12.9,6.6L12.9,9.2L14.1,9.2Q14.8,9.2,15.3,8.8Q15.7,8.5,15.7,7.9Q15.7,7.3,15.3,7.0Q14.8,6.6,14.1,6.6L12.9,6.6ZM22.6,9.7L19.5,9.7L19.5,12.1L23.1,12.1L23.1,13L18.4,13L18.4,5.7L23.0,5.7L23.0,6.6L19.5,6.6L19.5,8.8L22.6,8.8L22.6,9.7ZM24.4,5.7L25.5,5.7L25.5,12.0L29.0,12.0L29.0,13L24.4,13L24.4,5.7ZM34.3,9.7L31.2,9.7L31.2,12.1L34.8,12.1L34.8,13L30.1,13L30.1,5.7L34.7,5.7L34.7,6.6L31.2,6.6L31.2,8.8L34.3,8.8L34.3,9.7ZM39.1,5.7L42.0,13L40.9,13L40.1,11.0L37.1,11.0L36.4,13L35.3,13L38.2,5.7L39.1,5.7ZM39.8,10.1L38.6,7.1L37.5,10.1L39.8,10.1ZM47.6,10.9Q47.6,11.6,47.3,12.1Q47,12.6,46.4,12.8Q45.9,13.1,45.1,13.1Q44.0,13.1,43.3,12.6Q42.5,12.1,42.2,11.3L43.1,10.8Q43.4,11.4,43.9,11.8Q44.4,12.1,45.1,12.1Q45.8,12.1,46.2,11.8Q46.5,11.6,46.5,11.1Q46.5,10.6,46.3,10.4Q46.0,10.1,45.7,10.0Q45.4,9.8,44.8,9.6Q44.0,9.4,43.6,9.2Q43.2,9.0,42.9,8.6Q42.5,8.3,42.5,7.6Q42.5,7.0,42.9,6.5Q43.2,6.0,43.8,5.8Q44.4,5.6,45.1,5.6Q46.1,5.6,46.7,6.0Q47.3,6.4,47.5,7.1L46.7,7.6Q46.2,6.5,45.0,6.5Q44.4,6.5,44.1,6.8Q43.7,7.1,43.7,7.5Q43.7,7.9,43.9,8.1Q44.1,8.3,44.4,8.5Q44.8,8.6,45.3,8.8Q46.1,9.0,46.5,9.2Q47.0,9.4,47.3,9.8Q47.6,10.2,47.6,10.9ZM52.9,9.7L49.8,9.7L49.8,12.1L53.4,12.1L53.4,13L48.7,13L48.7,5.7L53.3,5.7L53.3,6.6L49.8,6.6L49.8,8.8L52.9,8.8L52.9,9.7ZM62.1,5.7L63.2,5.7L63.2,10.0Q63.2,11.0,62.9,11.7Q62.5,12.4,61.9,12.7Q61.2,13.1,60.3,13.1Q59.4,13.1,58.7,12.7Q58.0,12.4,57.7,11.7Q57.4,11.0,57.4,10.0L57.4,5.7L58.4,5.7L58.4,9.8Q58.4,11.0,58.9,11.5Q59.4,12.1,60.3,12.1Q61.2,12.1,61.7,11.5Q62.1,11.0,62.1,9.8L62.1,5.7ZM67.2,5.7Q68.0,5.7,68.6,6.0Q69.2,6.3,69.5,6.8Q69.8,7.3,69.8,8Q69.8,8.7,69.5,9.2Q69.2,9.7,68.6,10.0Q68.0,10.3,67.2,10.3L65.9,10.3L65.9,13L64.8,13L64.8,5.7L67.2,5.7ZM67.0,9.4Q67.8,9.4,68.3,9.0Q68.7,8.6,68.7,8Q68.7,7.4,68.3,7.0Q67.8,6.6,67.0,6.6L65.9,6.6L65.9,9.4L67.0,9.4ZM73.0,5.7Q74.1,5.7,75.0,6.1Q75.8,6.5,76.3,7.4Q76.8,8.2,76.8,9.3Q76.8,10.5,76.3,11.3Q75.8,12.1,75.0,12.6Q74.1,13,73.0,13L70.9,13L70.9,5.7L73.0,5.7ZM72.9,12.1Q74.2,12.1,75.0,11.3Q75.7,10.6,75.7,9.3Q75.7,8.0,75.0,7.3Q74.2,6.6,72.9,6.6L72.0,6.6L72.0,12.1L72.9,12.1ZM80.8,5.7L83.7,13L82.5,13L81.8,11.0L78.8,11.0L78.1,13L77.0,13L79.8,5.7L80.8,5.7ZM81.4,10.1L80.3,7.1L79.2,10.1L81.4,10.1ZM83.0,5.7L88.6,5.7L88.6,6.6L86.4,6.6L86.4,13L85.3,13L85.3,6.6L83.0,6.6L83.0,5.7ZM93.8,9.7L90.7,9.7L90.7,12.1L94.3,12.1L94.3,13L89.6,13L89.6,5.7L94.2,5.7L94.2,6.6L90.7,6.6L90.7,8.8L93.8,8.8L93.8,9.7ZM98.3,5.3L106.7,5.3L106.7,6.2L98.3,6.2L98.3,5.3ZM102.7,8.6L106.2,8.6L106.2,9.6L102.7,9.6L102.7,8.6ZM97.9,12.5L107.0,12.5L107.0,13.4L97.9,13.4L97.9,12.5ZM102.2,5.6L103.2,5.6L103.2,13.0L102.2,13.0L102.2,5.6ZM99.2,7.9L100.2,7.9L100.2,13.0L99.2,13.0L99.2,7.9ZM114.6,5.1L115.2,4.6Q115.4,4.8,115.7,5.0Q116.0,5.2,116.2,5.4Q116.4,5.6,116.6,5.8L115.9,6.3Q115.8,6.2,115.6,6.0Q115.3,5.7,115.1,5.5Q114.8,5.3,114.6,5.1ZM108.0,6.4L116.9,6.4L116.9,7.3L108.0,7.3L108.0,6.4ZM108.3,8.6L112.7,8.6L112.7,9.5L108.3,9.5L108.3,8.6ZM110.0,9.1L111.0,9.1L111.0,12.6L110.0,12.6L110.0,9.1ZM108.0,12.6Q108.6,12.5,109.4,12.3Q110.2,12.2,111.2,12.0Q112.1,11.8,113.0,11.6L113.1,12.5Q112.2,12.7,111.4,12.9Q110.5,13.1,109.7,13.2Q108.9,13.4,108.3,13.6L108.0,12.6ZM113.0,4.6L114.0,4.6Q114.0,5.9,114.1,7.1Q114.2,8.4,114.3,9.4Q114.5,10.5,114.7,11.2Q115.0,12.0,115.3,12.4Q115.6,12.9,115.9,12.9Q116.1,12.9,116.2,12.4Q116.3,12.0,116.3,11.0Q116.5,11.2,116.7,11.3Q117.0,11.5,117.2,11.5Q117.1,12.5,116.9,13.0Q116.8,13.5,116.5,13.7Q116.3,13.9,115.8,13.9Q115.3,13.9,114.9,13.5Q114.5,13.1,114.2,12.5Q113.9,11.9,113.6,11.0Q113.4,10.1,113.3,9.1Q113.1,8.1,113.1,6.9Q113.0,5.8,113.0,4.6ZM118.8,7.3L121.9,7.3L121.9,8.1L118.8,8.1L118.8,7.3ZM122.7,7.4L126.2,7.4L126.2,8.3L122.7,8.3L122.7,7.4ZM120.2,4.5L121.1,4.5L121.1,7.8L120.2,7.8L120.2,4.5ZM118.8,9.4L121.3,9.4L121.3,13.8L120.4,13.8L120.4,10.3L118.8,10.3L118.8,9.4ZM118.4,4.8L119.3,4.8L119.3,8.7Q119.3,9.4,119.3,10.1Q119.2,10.8,119.2,11.4Q119.1,12.1,118.9,12.7Q118.7,13.4,118.4,13.9Q118.3,13.8,118.2,13.7Q118.1,13.6,118.0,13.5Q117.8,13.4,117.7,13.3Q118.0,12.8,118.1,12.3Q118.2,11.7,118.3,11.1Q118.4,10.5,118.4,9.9Q118.4,9.3,118.4,8.7L118.4,4.8ZM126.0,7.4L126.1,7.4L126.3,7.4L126.8,7.5Q126.6,9.2,126.1,10.4Q125.7,11.6,124.9,12.5Q124.2,13.4,123.2,13.9Q123.1,13.8,123.0,13.6Q122.9,13.5,122.8,13.3Q122.7,13.2,122.6,13.1Q123.5,12.7,124.2,11.9Q124.9,11.2,125.3,10.1Q125.8,9.0,126.0,7.6L126.0,7.4ZM123.9,8.0Q124.1,9.1,124.6,10.1Q125.0,11.1,125.6,11.9Q126.3,12.7,127.1,13.1Q127.0,13.2,126.9,13.3Q126.8,13.5,126.7,13.6Q126.6,13.7,126.5,13.9Q125.6,13.3,124.9,12.5Q124.3,11.6,123.9,10.5Q123.4,9.4,123.2,8.1L123.9,8.0ZM126.4,4.6L127.0,5.4Q126.4,5.6,125.6,5.7Q124.8,5.8,124.0,5.9Q123.2,6.0,122.5,6.0Q122.5,5.8,122.4,5.6Q122.3,5.4,122.3,5.2Q123.0,5.1,123.8,5.1Q124.5,5.0,125.2,4.9Q125.9,4.8,126.4,4.6ZM122.3,5.2L123.2,5.2L123.2,8.6Q123.2,9.3,123.1,10.0Q123.1,10.7,123.0,11.4Q122.9,12.1,122.7,12.7Q122.5,13.4,122.2,13.9Q122.1,13.8,121.9,13.7Q121.8,13.6,121.7,13.5Q121.5,13.4,121.4,13.4Q121.7,12.9,121.9,12.3Q122.0,11.7,122.1,11.1Q122.2,10.4,122.2,9.8Q122.3,9.2,122.3,8.6L122.3,5.2ZM128.1,5.1L136.8,5.1L136.8,5.9L128.1,5.9L128.1,5.1ZM132.0,5.4L133.0,5.4L133.0,9.4Q133.0,10.0,132.9,10.5Q132.8,11.1,132.5,11.6Q132.3,12.1,131.7,12.5Q131.2,12.9,130.4,13.3Q129.6,13.6,128.5,13.8Q128.4,13.7,128.3,13.6Q128.2,13.4,128.1,13.3Q128.0,13.1,127.9,13.0Q129.0,12.8,129.8,12.5Q130.5,12.3,131.0,11.9Q131.4,11.6,131.7,11.2Q131.9,10.8,132.0,10.3Q132.0,9.8,132.0,9.4L132.0,5.4ZM129.9,9.0L129.9,9.9L135.3,9.9L135.3,9.0L129.9,9.0ZM129.9,7.4L129.9,8.3L135.3,8.3L135.3,7.4L129.9,7.4ZM129.0,6.6L136.2,6.6L136.2,10.6L129.0,10.6L129.0,6.6ZM130.0,10.7Q130.5,11.4,131.2,11.8Q131.9,12.2,132.8,12.4Q133.7,12.7,134.8,12.7Q135.9,12.8,137.2,12.8Q137.1,13.0,137.0,13.3Q136.8,13.5,136.8,13.8Q135.4,13.7,134.3,13.6Q133.1,13.5,132.2,13.2Q131.2,12.9,130.5,12.4Q129.8,11.8,129.2,11.0L130.0,10.7ZM143.3,7.9L147.1,7.9L147.1,8.8L143.3,8.8L143.3,7.9ZM138.0,5.6L142.5,5.6L142.5,6.4L138.0,6.4L138.0,5.6ZM137.9,9.6L142.5,9.6L142.5,10.4L137.9,10.4L137.9,9.6ZM137.9,7.8L142.6,7.8L142.6,8.6L137.9,8.6L137.9,7.8ZM145.1,8.3L146.0,8.3L146.0,13.8L145.1,13.8L145.1,8.3ZM138.6,6.6L139.4,6.4Q139.5,6.7,139.6,7.1Q139.7,7.4,139.8,7.7L139.0,7.9Q139.0,7.6,138.9,7.3Q138.8,6.9,138.6,6.6ZM141.1,6.4L142.0,6.5Q141.8,7.0,141.7,7.4Q141.5,7.8,141.3,8.1L140.6,8.0Q140.7,7.7,140.8,7.5Q140.9,7.2,141.0,6.9Q141.1,6.6,141.1,6.4ZM146.1,4.7L146.8,5.4Q146.3,5.6,145.7,5.7Q145.1,5.9,144.5,6.0Q143.8,6.1,143.2,6.2Q143.2,6.1,143.1,5.9Q143.0,5.7,143.0,5.5Q143.5,5.4,144.1,5.3Q144.7,5.2,145.2,5.0Q145.7,4.9,146.1,4.7ZM139.5,4.7L140.4,4.5Q140.5,4.8,140.7,5.2Q140.9,5.6,140.9,5.8L140.0,6.1Q140.0,5.8,139.8,5.4Q139.7,5.0,139.5,4.7ZM139.9,8.3L140.7,8.3L140.7,12.7Q140.7,13.1,140.7,13.2Q140.6,13.4,140.4,13.5Q140.2,13.6,139.9,13.6Q139.6,13.6,139.2,13.6Q139.2,13.5,139.2,13.3Q139.1,13.0,139.0,12.9Q139.2,12.9,139.4,12.9Q139.7,12.9,139.7,12.9Q139.9,12.9,139.9,12.7L139.9,8.3ZM143.0,5.5L143.8,5.5L143.8,9.0Q143.8,9.5,143.8,10.2Q143.8,10.8,143.7,11.4Q143.6,12.1,143.4,12.7Q143.2,13.3,142.8,13.7Q142.7,13.6,142.6,13.5Q142.5,13.4,142.3,13.3Q142.2,13.2,142.1,13.2Q142.5,12.6,142.7,11.9Q142.9,11.1,142.9,10.4Q143.0,9.7,143.0,9.0L143.0,5.5ZM141.0,11.0L141.7,10.6Q141.9,11.0,142.1,11.4Q142.4,11.8,142.5,12.1L141.8,12.5Q141.7,12.2,141.5,11.8Q141.2,11.3,141.0,11.0ZM138.7,10.7L139.5,10.9Q139.3,11.4,139.0,11.9Q138.7,12.4,138.4,12.7Q138.3,12.7,138.1,12.5Q137.9,12.4,137.8,12.3Q138.1,12.0,138.3,11.6Q138.6,11.1,138.7,10.7ZM164.8,13L163.5,13L161.5,10.1L161.4,10.1L160.2,10.1L160.2,13L159.1,13L159.1,5.7L161.4,5.7Q162.2,5.7,162.8,6.0Q163.4,6.2,163.8,6.7Q164.1,7.2,164.1,7.9Q164.1,8.6,163.7,9.2Q163.3,9.7,162.6,9.9L164.8,13ZM160.2,6.6L160.2,9.2L161.3,9.2Q162.1,9.2,162.5,8.8Q163.0,8.5,163.0,7.9Q163.0,7.3,162.5,7.0Q162.1,6.6,161.3,6.6L160.2,6.6ZM169.9,9.7L166.7,9.7L166.7,12.1L170.3,12.1L170.3,13L165.7,13L165.7,5.7L170.2,5.7L170.2,6.6L166.7,6.6L166.7,8.8L169.9,8.8L169.9,9.7ZM171.7,5.7L172.7,5.7L172.7,12.0L176.2,12.0L176.2,13L171.7,13L171.7,5.7ZM181.6,9.7L178.4,9.7L178.4,12.1L182.1,12.1L182.1,13L177.4,13L177.4,5.7L181.9,5.7L181.9,6.6L178.4,6.6L178.4,8.8L181.6,8.8L181.6,9.7ZM186.3,5.7L189.3,13L188.1,13L187.4,11.0L184.4,11.0L183.7,13L182.6,13L185.4,5.7L186.3,5.7ZM187,10.1L185.8,7.1L184.7,10.1L187,10.1ZM194.9,10.9Q194.9,11.6,194.6,12.1Q194.2,12.6,193.7,12.8Q193.1,13.1,192.3,13.1Q191.3,13.1,190.5,12.6Q189.7,12.1,189.5,11.3L190.4,10.8Q190.6,11.4,191.1,11.8Q191.6,12.1,192.4,12.1Q193.0,12.1,193.4,11.8Q193.8,11.6,193.8,11.1Q193.8,10.6,193.5,10.4Q193.3,10.1,192.9,10.0Q192.6,9.8,192,9.6Q191.3,9.4,190.8,9.2Q190.4,9.0,190.1,8.6Q189.8,8.3,189.8,7.6Q189.8,7.0,190.1,6.5Q190.5,6.0,191.1,5.8Q191.6,5.6,192.3,5.6Q193.3,5.6,193.9,6.0Q194.6,6.4,194.8,7.1L193.9,7.6Q193.5,6.5,192.3,6.5Q191.7,6.5,191.3,6.8Q190.9,7.1,190.9,7.5Q190.9,7.9,191.1,8.1Q191.4,8.3,191.7,8.5Q192.0,8.6,192.6,8.8Q193.3,9.0,193.8,9.2Q194.2,9.4,194.6,9.8Q194.9,10.2,194.9,10.9ZM200.2,9.7L197.1,9.7L197.1,12.1L200.7,12.1L200.7,13L196.0,13L196.0,5.7L200.6,5.7L200.6,6.6L197.1,6.6L197.1,8.8L200.2,8.8L200.2,9.7ZM209.4,5.7L210.5,5.7L210.5,10.0Q210.5,11.0,210.1,11.7Q209.8,12.4,209.1,12.7Q208.5,13.1,207.5,13.1Q206.6,13.1,206.0,12.7Q205.3,12.4,204.9,11.7Q204.6,11.0,204.6,10.0L204.6,5.7L205.7,5.7L205.7,9.8Q205.7,11.0,206.2,11.5Q206.6,12.1,207.5,12.1Q208.4,12.1,208.9,11.5Q209.4,11.0,209.4,9.8L209.4,5.7ZM214.4,5.7Q215.2,5.7,215.8,6.0Q216.4,6.3,216.8,6.8Q217.1,7.3,217.1,8Q217.1,8.7,216.8,9.2Q216.4,9.7,215.8,10.0Q215.2,10.3,214.4,10.3L213.2,10.3L213.2,13L212.1,13L212.1,5.7L214.4,5.7ZM214.3,9.4Q215.1,9.4,215.5,9.0Q215.9,8.6,215.9,8Q215.9,7.4,215.5,7.0Q215.1,6.6,214.3,6.6L213.2,6.6L213.2,9.4L214.3,9.4ZM220.3,5.7Q221.4,5.7,222.2,6.1Q223.1,6.5,223.6,7.4Q224.1,8.2,224.1,9.3Q224.1,10.5,223.6,11.3Q223.1,12.1,222.2,12.6Q221.4,13,220.3,13L218.2,13L218.2,5.7L220.3,5.7ZM220.2,12.1Q221.5,12.1,222.2,11.3Q222.9,10.6,222.9,9.3Q222.9,8.0,222.2,7.3Q221.5,6.6,220.2,6.6L219.2,6.6L219.2,12.1L220.2,12.1ZM228.0,5.7L231.0,13L229.8,13L229.0,11.0L226.1,11.0L225.3,13L224.3,13L227.1,5.7L228.0,5.7ZM228.7,10.1L227.5,7.1L226.4,10.1L228.7,10.1ZM230.3,5.7L235.9,5.7L235.9,6.6L233.6,6.6L233.6,13L232.6,13L232.6,6.6L230.3,6.6L230.3,5.7ZM241.1,9.7L237.9,9.7L237.9,12.1L241.5,12.1L241.5,13L236.8,13L236.8,5.7L241.4,5.7L241.4,6.6L237.9,6.6L237.9,8.8L241.1,8.8L241.1,9.7ZM245.5,5.3L253.9,5.3L253.9,6.2L245.5,6.2L245.5,5.3ZM249.9,8.6L253.5,8.6L253.5,9.6L249.9,9.6L249.9,8.6ZM245.2,12.5L254.2,12.5L254.2,13.4L245.2,13.4L245.2,12.5ZM249.5,5.6L250.5,5.6L250.5,13.0L249.5,13.0L249.5,5.6ZM246.5,7.9L247.5,7.9L247.5,13.0L246.5,13.0L246.5,7.9ZM261.8,5.1L262.4,4.6Q262.7,4.8,263.0,5.0Q263.2,5.2,263.5,5.4Q263.7,5.6,263.8,5.8L263.2,6.3Q263.0,6.2,262.8,6.0Q262.6,5.7,262.3,5.5Q262.1,5.3,261.8,5.1ZM255.2,6.4L264.2,6.4L264.2,7.3L255.2,7.3L255.2,6.4ZM255.6,8.6L260.0,8.6L260.0,9.5L255.6,9.5L255.6,8.6ZM257.3,9.1L258.2,9.1L258.2,12.6L257.3,12.6L257.3,9.1ZM255.3,12.6Q255.9,12.5,256.7,12.3Q257.5,12.2,258.4,12.0Q259.3,11.8,260.2,11.6L260.3,12.5Q259.5,12.7,258.6,12.9Q257.8,13.1,257.0,13.2Q256.2,13.4,255.5,13.6L255.3,12.6ZM260.3,4.6L261.3,4.6Q261.2,5.9,261.3,7.1Q261.4,8.4,261.6,9.4Q261.8,10.5,262.0,11.2Q262.2,12.0,262.5,12.4Q262.8,12.9,263.2,12.9Q263.4,12.9,263.4,12.4Q263.5,12.0,263.6,11.0Q263.7,11.2,264.0,11.3Q264.2,11.5,264.4,11.5Q264.3,12.5,264.2,13.0Q264.0,13.5,263.8,13.7Q263.5,13.9,263.1,13.9Q262.6,13.9,262.1,13.5Q261.7,13.1,261.4,12.5Q261.1,11.9,260.9,11.0Q260.7,10.1,260.5,9.1Q260.4,8.1,260.3,6.9Q260.3,5.8,260.3,4.6ZM266.1,7.3L269.1,7.3L269.1,8.1L266.1,8.1L266.1,7.3ZM270.0,7.4L273.5,7.4L273.5,8.3L270.0,8.3L270.0,7.4ZM267.5,4.5L268.3,4.5L268.3,7.8L267.5,7.8L267.5,4.5ZM266.1,9.4L268.6,9.4L268.6,13.8L267.7,13.8L267.7,10.3L266.1,10.3L266.1,9.4ZM265.7,4.8L266.6,4.8L266.6,8.7Q266.6,9.4,266.5,10.1Q266.5,10.8,266.4,11.4Q266.3,12.1,266.1,12.7Q265.9,13.4,265.6,13.9Q265.6,13.8,265.5,13.7Q265.3,13.6,265.2,13.5Q265.1,13.4,265.0,13.3Q265.2,12.8,265.4,12.3Q265.5,11.7,265.6,11.1Q265.6,10.5,265.7,9.9Q265.7,9.3,265.7,8.7L265.7,4.8ZM273.2,7.4L273.4,7.4L273.5,7.4L274.1,7.5Q273.9,9.2,273.4,10.4Q272.9,11.6,272.2,12.5Q271.4,13.4,270.5,13.9Q270.4,13.8,270.3,13.6Q270.2,13.5,270.1,13.3Q270.0,13.2,269.9,13.1Q270.8,12.7,271.4,11.9Q272.1,11.2,272.6,10.1Q273.0,9.0,273.2,7.6L273.2,7.4ZM271.2,8.0Q271.4,9.1,271.8,10.1Q272.2,11.1,272.9,11.9Q273.5,12.7,274.4,13.1Q274.3,13.2,274.1,13.3Q274.0,13.5,273.9,13.6Q273.8,13.7,273.7,13.9Q272.8,13.3,272.2,12.5Q271.5,11.6,271.1,10.5Q270.7,9.4,270.4,8.1L271.2,8.0ZM273.7,4.6L274.2,5.4Q273.6,5.6,272.9,5.7Q272.1,5.8,271.3,5.9Q270.5,6.0,269.8,6.0Q269.7,5.8,269.7,5.6Q269.6,5.4,269.5,5.2Q270.2,5.1,271.0,5.1Q271.8,5.0,272.5,4.9Q273.2,4.8,273.7,4.6ZM269.5,5.2L270.4,5.2L270.4,8.6Q270.4,9.3,270.4,10.0Q270.3,10.7,270.2,11.4Q270.1,12.1,269.9,12.7Q269.7,13.4,269.4,13.9Q269.3,13.8,269.2,13.7Q269.1,13.6,268.9,13.5Q268.8,13.4,268.7,13.4Q268.9,12.9,269.1,12.3Q269.3,11.7,269.4,11.1Q269.4,10.4,269.5,9.8Q269.5,9.2,269.5,8.6L269.5,5.2ZM275.3,5.1L284.1,5.1L284.1,5.9L275.3,5.9L275.3,5.1ZM279.3,5.4L280.3,5.4L280.3,9.4Q280.3,10.0,280.2,10.5Q280.1,11.1,279.8,11.6Q279.5,12.1,279.0,12.5Q278.5,12.9,277.7,13.3Q276.9,13.6,275.7,13.8Q275.7,13.7,275.6,13.6Q275.5,13.4,275.3,13.3Q275.2,13.1,275.1,13.0Q276.3,12.8,277.0,12.5Q277.8,12.3,278.2,11.9Q278.7,11.6,278.9,11.2Q279.1,10.8,279.2,10.3Q279.3,9.8,279.3,9.4L279.3,5.4ZM277.1,9.0L277.1,9.9L282.5,9.9L282.5,9.0L277.1,9.0ZM277.1,7.4L277.1,8.3L282.5,8.3L282.5,7.4L277.1,7.4ZM276.2,6.6L283.5,6.6L283.5,10.6L276.2,10.6L276.2,6.6ZM277.3,10.7Q277.8,11.4,278.5,11.8Q279.2,12.2,280.0,12.4Q280.9,12.7,282.0,12.7Q283.1,12.8,284.4,12.8Q284.3,13.0,284.2,13.3Q284.1,13.5,284.0,13.8Q282.7,13.7,281.5,13.6Q280.4,13.5,279.4,13.2Q278.5,12.9,277.7,12.4Q277,11.8,276.5,11.0L277.3,10.7ZM290.6,7.9L294.3,7.9L294.3,8.8L290.6,8.8L290.6,7.9ZM285.3,5.6L289.7,5.6L289.7,6.4L285.3,6.4L285.3,5.6ZM285.2,9.6L289.8,9.6L289.8,10.4L285.2,10.4L285.2,9.6ZM285.1,7.8L289.9,7.8L289.9,8.6L285.1,8.6L285.1,7.8ZM292.4,8.3L293.3,8.3L293.3,13.8L292.4,13.8L292.4,8.3ZM285.9,6.6L286.6,6.4Q286.8,6.7,286.9,7.1Q287.0,7.4,287.0,7.7L286.2,7.9Q286.2,7.6,286.1,7.3Q286.0,6.9,285.9,6.6ZM288.4,6.4L289.2,6.5Q289.1,7.0,288.9,7.4Q288.7,7.8,288.6,8.1L287.8,8.0Q287.9,7.7,288.0,7.5Q288.1,7.2,288.2,6.9Q288.3,6.6,288.4,6.4ZM293.3,4.7L294.0,5.4Q293.6,5.6,292.9,5.7Q292.3,5.9,291.7,6.0Q291.1,6.1,290.5,6.2Q290.5,6.1,290.4,5.9Q290.3,5.7,290.2,5.5Q290.8,5.4,291.3,5.3Q291.9,5.2,292.4,5.0Q292.9,4.9,293.3,4.7ZM286.8,4.7L287.6,4.5Q287.8,4.8,287.9,5.2Q288.1,5.6,288.2,5.8L287.3,6.1Q287.2,5.8,287.1,5.4Q286.9,5.0,286.8,4.7ZM287.1,8.3L288.0,8.3L288.0,12.7Q288.0,13.1,287.9,13.2Q287.8,13.4,287.6,13.5Q287.4,13.6,287.2,13.6Q286.9,13.6,286.5,13.6Q286.5,13.5,286.4,13.3Q286.3,13.0,286.2,12.9Q286.5,12.9,286.7,12.9Q286.9,12.9,287.0,12.9Q287.1,12.9,287.1,12.7L287.1,8.3ZM290.2,5.5L291.1,5.5L291.1,9.0Q291.1,9.5,291.1,10.2Q291.0,10.8,290.9,11.4Q290.8,12.1,290.6,12.7Q290.4,13.3,290.1,13.7Q290.0,13.6,289.9,13.5Q289.7,13.4,289.6,13.3Q289.4,13.2,289.3,13.2Q289.7,12.6,289.9,11.9Q290.1,11.1,290.2,10.4Q290.2,9.7,290.2,9.0L290.2,5.5ZM288.3,11.0L288.9,10.6Q289.1,11.0,289.4,11.4Q289.6,11.8,289.7,12.1L289.1,12.5Q289.0,12.2,288.7,11.8Q288.5,11.3,288.3,11.0ZM286.0,10.7L286.7,10.9Q286.5,11.4,286.3,11.9Q286.0,12.4,285.7,12.7Q285.6,12.7,285.4,12.5Q285.2,12.4,285.0,12.3Q285.3,12.0,285.6,11.6Q285.8,11.1,286.0,10.7ZM312.1,13L310.8,13L308.8,10.1L308.7,10.1L307.4,10.1L307.4,13L306.3,13L306.3,5.7L308.7,5.7Q309.5,5.7,310.1,6.0Q310.7,6.2,311.0,6.7Q311.3,7.2,311.3,7.9Q311.3,8.6,310.9,9.2Q310.6,9.7,309.9,9.9L312.1,13ZM307.4,6.6L307.4,9.2L308.6,9.2Q309.3,9.2,309.8,8.8Q310.2,8.5,310.2,7.9Q310.2,7.3,309.8,7.0Q309.3,6.6,308.6,6.6L307.4,6.6ZM317.1,9.7L314.0,9.7L314.0,12.1L317.6,12.1L317.6,13L312.9,13L312.9,5.7L317.5,5.7L317.5,6.6L314.0,6.6L314.0,8.8L317.1,8.8L317.1,9.7ZM318.9,5.7L320.0,5.7L320.0,12.0L323.5,12.0L323.5,13L318.9,13L318.9,5.7ZM328.8,9.7L325.7,9.7L325.7,12.1L329.3,12.1L329.3,13L324.6,13L324.6,5.7L329.2,5.7L329.2,6.6L325.7,6.6L325.7,8.8L328.8,8.8L328.8,9.7ZM333.6,5.7L336.5,13L335.4,13L334.6,11.0L331.6,11.0L330.9,13L329.8,13L332.7,5.7L333.6,5.7ZM334.2,10.1L333.1,7.1L332.0,10.1L334.2,10.1ZM342.1,10.9Q342.1,11.6,341.8,12.1Q341.5,12.6,340.9,12.8Q340.4,13.1,339.6,13.1Q338.6,13.1,337.8,12.6Q337.0,12.1,336.7,11.3L337.6,10.8Q337.9,11.4,338.4,11.8Q338.9,12.1,339.6,12.1Q340.3,12.1,340.7,11.8Q341.0,11.6,341.0,11.1Q341.0,10.6,340.8,10.4Q340.6,10.1,340.2,10.0Q339.9,9.8,339.2,9.6Q338.5,9.4,338.1,9.2Q337.7,9.0,337.4,8.6Q337.1,8.3,337.1,7.6Q337.1,7.0,337.4,6.5Q337.7,6.0,338.3,5.8Q338.9,5.6,339.6,5.6Q340.6,5.6,341.2,6.0Q341.8,6.4,342.0,7.1L341.2,7.6Q340.7,6.5,339.6,6.5Q338.9,6.5,338.6,6.8Q338.2,7.1,338.2,7.5Q338.2,7.9,338.4,8.1Q338.6,8.3,338.9,8.5Q339.3,8.6,339.8,8.8Q340.6,9.0,341.0,9.2Q341.5,9.4,341.8,9.8Q342.1,10.2,342.1,10.9ZM347.4,9.7L344.3,9.7L344.3,12.1L347.9,12.1L347.9,13L343.2,13L343.2,5.7L347.8,5.7L347.8,6.6L344.3,6.6L344.3,8.8L347.4,8.8L347.4,9.7ZM356.6,5.7L357.7,5.7L357.7,10.0Q357.7,11.0,357.4,11.7Q357.0,12.4,356.4,12.7Q355.7,13.1,354.8,13.1Q353.9,13.1,353.2,12.7Q352.6,12.4,352.2,11.7Q351.9,11.0,351.9,10.0L351.9,5.7L352.9,5.7L352.9,9.8Q352.9,11.0,353.4,11.5Q353.9,12.1,354.8,12.1Q355.7,12.1,356.2,11.5Q356.6,11.0,356.6,9.8L356.6,5.7ZM361.7,5.7Q362.4,5.7,363.1,6.0Q363.7,6.3,364.0,6.8Q364.3,7.3,364.3,8Q364.3,8.7,364.0,9.2Q363.7,9.7,363.1,10.0Q362.5,10.3,361.7,10.3L360.4,10.3L360.4,13L359.3,13L359.3,5.7L361.7,5.7ZM361.5,9.4Q362.3,9.4,362.8,9.0Q363.2,8.6,363.2,8Q363.2,7.4,362.8,7.0Q362.3,6.6,361.5,6.6L360.4,6.6L360.4,9.4L361.5,9.4ZM367.6,5.7Q368.6,5.7,369.5,6.1Q370.3,6.5,370.8,7.4Q371.3,8.2,371.3,9.3Q371.3,10.5,370.8,11.3Q370.3,12.1,369.5,12.6Q368.6,13,367.6,13L365.4,13L365.4,5.7L367.6,5.7ZM367.4,12.1Q368.7,12.1,369.5,11.3Q370.2,10.6,370.2,9.3Q370.2,8.0,369.5,7.3Q368.7,6.6,367.4,6.6L366.5,6.6L366.5,12.1L367.4,12.1ZM375.3,5.7L378.2,13L377.0,13L376.3,11.0L373.3,11.0L372.6,13L371.5,13L374.4,5.7L375.3,5.7ZM375.9,10.1L374.8,7.1L373.7,10.1L375.9,10.1ZM377.6,5.7L383.1,5.7L383.1,6.6L380.9,6.6L380.9,13L379.8,13L379.8,6.6L377.6,6.6L377.6,5.7ZM388.3,9.7L385.2,9.7L385.2,12.1L388.8,12.1L388.8,13L384.1,13L384.1,5.7L388.7,5.7L388.7,6.6L385.2,6.6L385.2,8.8L388.3,8.8L388.3,9.7ZM392.8,5.3L401.2,5.3L401.2,6.2L392.8,6.2L392.8,5.3ZM397.2,8.6L400.7,8.6L400.7,9.6L397.2,9.6L397.2,8.6ZM392.4,12.5L401.5,12.5L401.5,13.4L392.4,13.4L392.4,12.5ZM396.7,5.6L397.7,5.6L397.7,13.0L396.7,13.0L396.7,5.6ZM393.7,7.9L394.7,7.9L394.7,13.0L393.7,13.0L393.7,7.9ZM409.1,5.1L409.7,4.6Q409.9,4.8,410.2,5.0Q410.5,5.2,410.7,5.4Q410.9,5.6,411.1,5.8L410.4,6.3Q410.3,6.2,410.1,6.0Q409.8,5.7,409.6,5.5Q409.3,5.3,409.1,5.1ZM402.5,6.4L411.4,6.4L411.4,7.3L402.5,7.3L402.5,6.4ZM402.8,8.6L407.2,8.6L407.2,9.5L402.8,9.5L402.8,8.6ZM404.5,9.1L405.5,9.1L405.5,12.6L404.5,12.6L404.5,9.1ZM402.5,12.6Q403.1,12.5,403.9,12.3Q404.7,12.2,405.7,12.0Q406.6,11.8,407.5,11.6L407.6,12.5Q406.7,12.7,405.9,12.9Q405.0,13.1,404.2,13.2Q403.4,13.4,402.8,13.6L402.5,12.6ZM407.5,4.6L408.5,4.6Q408.5,5.9,408.6,7.1Q408.7,8.4,408.8,9.4Q409.0,10.5,409.2,11.2Q409.5,12.0,409.8,12.4Q410.1,12.9,410.4,12.9Q410.6,12.9,410.7,12.4Q410.8,12.0,410.8,11.0Q411.0,11.2,411.2,11.3Q411.5,11.5,411.7,11.5Q411.6,12.5,411.4,13.0Q411.3,13.5,411.0,13.7Q410.8,13.9,410.3,13.9Q409.8,13.9,409.4,13.5Q409.0,13.1,408.7,12.5Q408.4,11.9,408.1,11.0Q407.9,10.1,407.8,9.1Q407.6,8.1,407.6,6.9Q407.5,5.8,407.5,4.6ZM413.3,7.3L416.4,7.3L416.4,8.1L413.3,8.1L413.3,7.3ZM417.2,7.4L420.7,7.4L420.7,8.3L417.2,8.3L417.2,7.4ZM414.7,4.5L415.6,4.5L415.6,7.8L414.7,7.8L414.7,4.5ZM413.3,9.4L415.8,9.4L415.8,13.8L414.9,13.8L414.9,10.3L413.3,10.3L413.3,9.4ZM412.9,4.8L413.8,4.8L413.8,8.7Q413.8,9.4,413.8,10.1Q413.7,10.8,413.7,11.4Q413.6,12.1,413.4,12.7Q413.2,13.4,412.9,13.9Q412.8,13.8,412.7,13.7Q412.6,13.6,412.5,13.5Q412.3,13.4,412.2,13.3Q412.5,12.8,412.6,12.3Q412.7,11.7,412.8,11.1Q412.9,10.5,412.9,9.9Q412.9,9.3,412.9,8.7L412.9,4.8ZM420.4,7.4L420.6,7.4L420.8,7.4L421.3,7.5Q421.1,9.2,420.6,10.4Q420.1,11.6,419.4,12.5Q418.7,13.4,417.7,13.9Q417.6,13.8,417.5,13.6Q417.4,13.5,417.3,13.3Q417.2,13.2,417.1,13.1Q418,12.7,418.7,11.9Q419.4,11.2,419.8,10.1Q420.3,9.0,420.4,7.6L420.4,7.4ZM418.4,8.0Q418.6,9.1,419.1,10.1Q419.5,11.1,420.1,11.9Q420.8,12.7,421.6,13.1Q421.5,13.2,421.4,13.3Q421.3,13.5,421.2,13.6Q421.1,13.7,421.0,13.9Q420.1,13.3,419.4,12.5Q418.8,11.6,418.4,10.5Q417.9,9.4,417.7,8.1L418.4,8.0ZM420.9,4.6L421.5,5.4Q420.9,5.6,420.1,5.7Q419.3,5.8,418.5,5.9Q417.8,6.0,417,6.0Q417.0,5.8,416.9,5.6Q416.8,5.4,416.8,5.2Q417.5,5.1,418.3,5.1Q419.0,5.0,419.7,4.9Q420.4,4.8,420.9,4.6ZM416.8,5.2L417.7,5.2L417.7,8.6Q417.7,9.3,417.6,10.0Q417.6,10.7,417.5,11.4Q417.4,12.1,417.2,12.7Q417.0,13.4,416.7,13.9Q416.6,13.8,416.4,13.7Q416.3,13.6,416.2,13.5Q416.0,13.4,415.9,13.4Q416.2,12.9,416.4,12.3Q416.5,11.7,416.6,11.1Q416.7,10.4,416.7,9.8Q416.8,9.2,416.8,8.6L416.8,5.2ZM422.6,5.1L431.3,5.1L431.3,5.9L422.6,5.9L422.6,5.1ZM426.5,5.4L427.5,5.4L427.5,9.4Q427.5,10.0,427.4,10.5Q427.3,11.1,427.0,11.6Q426.8,12.1,426.2,12.5Q425.7,12.9,424.9,13.3Q424.1,13.6,423.0,13.8Q422.9,13.7,422.8,13.6Q422.7,13.4,422.6,13.3Q422.5,13.1,422.4,13.0Q423.5,12.8,424.3,12.5Q425.0,12.3,425.5,11.9Q425.9,11.6,426.2,11.2Q426.4,10.8,426.5,10.3Q426.5,9.8,426.5,9.4L426.5,5.4ZM424.4,9.0L424.4,9.9L429.8,9.9L429.8,9.0L424.4,9.0ZM424.4,7.4L424.4,8.3L429.8,8.3L429.8,7.4L424.4,7.4ZM423.5,6.6L430.7,6.6L430.7,10.6L423.5,10.6L423.5,6.6ZM424.5,10.7Q425.0,11.4,425.7,11.8Q426.4,12.2,427.3,12.4Q428.2,12.7,429.3,12.7Q430.4,12.8,431.7,12.8Q431.6,13.0,431.5,13.3Q431.3,13.5,431.3,13.8Q429.9,13.7,428.8,13.6Q427.6,13.5,426.7,13.2Q425.7,12.9,425.0,12.4Q424.2,11.8,423.7,11.0L424.5,10.7ZM437.8,7.9L441.6,7.9L441.6,8.8L437.8,8.8L437.8,7.9ZM432.5,5.6L437.0,5.6L437.0,6.4L432.5,6.4L432.5,5.6ZM432.4,9.6L437.0,9.6L437.0,10.4L432.4,10.4L432.4,9.6ZM432.4,7.8L437.1,7.8L437.1,8.6L432.4,8.6L432.4,7.8ZM439.6,8.3L440.5,8.3L440.5,13.8L439.6,13.8L439.6,8.3ZM433.1,6.6L433.9,6.4Q434.0,6.7,434.1,7.1Q434.2,7.4,434.3,7.7L433.5,7.9Q433.5,7.6,433.4,7.3Q433.3,6.9,433.1,6.6ZM435.6,6.4L436.5,6.5Q436.3,7.0,436.1,7.4Q436.0,7.8,435.8,8.1L435.1,8.0Q435.2,7.7,435.3,7.5Q435.4,7.2,435.5,6.9Q435.6,6.6,435.6,6.4ZM440.5,4.7L441.3,5.4Q440.8,5.6,440.2,5.7Q439.6,5.9,439.0,6.0Q438.3,6.1,437.7,6.2Q437.7,6.1,437.6,5.9Q437.5,5.7,437.5,5.5Q438.0,5.4,438.6,5.3Q439.2,5.2,439.7,5.0Q440.2,4.9,440.5,4.7ZM434.0,4.7L434.9,4.5Q435.0,4.8,435.2,5.2Q435.4,5.6,435.4,5.8L434.5,6.1Q434.5,5.8,434.3,5.4Q434.2,5.0,434.0,4.7ZM434.4,8.3L435.2,8.3L435.2,12.7Q435.2,13.1,435.2,13.2Q435.1,13.4,434.9,13.5Q434.7,13.6,434.4,13.6Q434.1,13.6,433.7,13.6Q433.7,13.5,433.7,13.3Q433.6,13.0,433.5,12.9Q433.7,12.9,433.9,12.9Q434.2,12.9,434.2,12.9Q434.4,12.9,434.4,12.7L434.4,8.3ZM437.5,5.5L438.3,5.5L438.3,9.0Q438.3,9.5,438.3,10.2Q438.3,10.8,438.2,11.4Q438.1,12.1,437.9,12.7Q437.7,13.3,437.3,13.7Q437.2,13.6,437.1,13.5Q437.0,13.4,436.8,13.3Q436.7,13.2,436.6,13.2Q437.0,12.6,437.2,11.9Q437.4,11.1,437.4,10.4Q437.5,9.7,437.5,9.0L437.5,5.5ZM435.5,11.0L436.2,10.6Q436.4,11.0,436.6,11.4Q436.9,11.8,437.0,12.1L436.3,12.5Q436.2,12.2,436.0,11.8Q435.7,11.3,435.5,11.0ZM433.2,10.7L434.0,10.9Q433.8,11.4,433.5,11.9Q433.2,12.4,432.9,12.7Q432.8,12.7,432.6,12.5Q432.4,12.4,432.3,12.3Q432.6,12.0,432.8,11.6Q433.1,11.1,433.2,10.7ZM459.3,13L458.0,13L456,10.1L455.9,10.1L454.7,10.1L454.7,13L453.6,13L453.6,5.7L455.9,5.7Q456.7,5.7,457.3,6.0Q457.9,6.2,458.3,6.7Q458.6,7.2,458.6,7.9Q458.6,8.6,458.2,9.2Q457.8,9.7,457.1,9.9L459.3,13ZM454.7,6.6L454.7,9.2L455.8,9.2Q456.6,9.2,457.0,8.8Q457.5,8.5,457.5,7.9Q457.5,7.3,457.0,7.0Q456.6,6.6,455.8,6.6L454.7,6.6ZM464.4,9.7L461.2,9.7L461.2,12.1L464.8,12.1L464.8,13L460.1,13L460.1,5.7L464.7,5.7L464.7,6.6L461.2,6.6L461.2,8.8L464.4,8.8L464.4,9.7ZM466.1,5.7L467.2,5.7L467.2,12.0L470.7,12.0L470.7,13L466.1,13L466.1,5.7ZM476.1,9.7L472.9,9.7L472.9,12.1L476.6,12.1L476.6,13L471.9,13L471.9,5.7L476.4,5.7L476.4,6.6L472.9,6.6L472.9,8.8L476.1,8.8L476.1,9.7ZM480.8,5.7L483.8,13L482.6,13L481.9,11.0L478.9,11.0L478.2,13L477.1,13L479.9,5.7L480.8,5.7ZM481.5,10.1L480.3,7.1L479.2,10.1L481.5,10.1ZM489.4,10.9Q489.4,11.6,489.1,12.1Q488.8,12.6,488.2,12.8Q487.6,13.1,486.9,13.1Q485.8,13.1,485.0,12.6Q484.2,12.1,484.0,11.3L484.9,10.8Q485.1,11.4,485.6,11.8Q486.1,12.1,486.9,12.1Q487.5,12.1,487.9,11.8Q488.3,11.6,488.3,11.1Q488.3,10.6,488.0,10.4Q487.8,10.1,487.4,10.0Q487.1,9.8,486.5,9.6Q485.8,9.4,485.3,9.2Q484.9,9.0,484.6,8.6Q484.3,8.3,484.3,7.6Q484.3,7.0,484.6,6.5Q485.0,6.0,485.6,5.8Q486.1,5.6,486.8,5.6Q487.8,5.6,488.4,6.0Q489.1,6.4,489.3,7.1L488.4,7.6Q488.0,6.5,486.8,6.5Q486.2,6.5,485.8,6.8Q485.4,7.1,485.4,7.5Q485.4,7.9,485.6,8.1Q485.9,8.3,486.2,8.5Q486.5,8.6,487.1,8.8Q487.8,9.0,488.3,9.2Q488.7,9.4,489.1,9.8Q489.4,10.2,489.4,10.9ZM494.7,9.7L491.6,9.7L491.6,12.1L495.2,12.1L495.2,13L490.5,13L490.5,5.7L495.1,5.7L495.1,6.6L491.6,6.6L491.6,8.8L494.7,8.8L494.7,9.7ZM503.9,5.7L505.0,5.7L505.0,10.0Q505.0,11.0,504.6,11.7Q504.3,12.4,503.6,12.7Q503.0,13.1,502.0,13.1Q501.1,13.1,500.5,12.7Q499.8,12.4,499.4,11.7Q499.1,11.0,499.1,10.0L499.1,5.7L500.2,5.7L500.2,9.8Q500.2,11.0,500.7,11.5Q501.1,12.1,502.0,12.1Q502.9,12.1,503.4,11.5Q503.9,11.0,503.9,9.8L503.9,5.7ZM508.9,5.7Q509.7,5.7,510.3,6.0Q510.9,6.3,511.3,6.8Q511.6,7.3,511.6,8Q511.6,8.7,511.3,9.2Q510.9,9.7,510.3,10.0Q509.7,10.3,508.9,10.3L507.6,10.3L507.6,13L506.6,13L506.6,5.7L508.9,5.7ZM508.8,9.4Q509.6,9.4,510.0,9.0Q510.4,8.6,510.4,8Q510.4,7.4,510.0,7.0Q509.6,6.6,508.8,6.6L507.6,6.6L507.6,9.4L508.8,9.4ZM514.8,5.7Q515.9,5.7,516.7,6.1Q517.6,6.5,518.1,7.4Q518.6,8.2,518.6,9.3Q518.6,10.5,518.1,11.3Q517.6,12.1,516.7,12.6Q515.9,13,514.8,13L512.7,13L512.7,5.7L514.8,5.7ZM514.7,12.1Q516.0,12.1,516.7,11.3Q517.4,10.6,517.4,9.3Q517.4,8.0,516.7,7.3Q516.0,6.6,514.7,6.6L513.7,6.6L513.7,12.1L514.7,12.1ZM522.5,5.7L525.5,13L524.3,13L523.5,11.0L520.6,11.0L519.9,13L518.8,13L521.6,5.7L522.5,5.7ZM523.2,10.1L522.0,7.1L520.9,10.1L523.2,10.1ZM524.8,5.7L530.4,5.7L530.4,6.6L528.1,6.6L528.1,13L527.0,13L527.0,6.6L524.8,6.6L524.8,5.7ZM535.5,9.7L532.4,9.7L532.4,12.1L536.0,12.1L536.0,13L531.3,13L531.3,5.7L535.9,5.7L535.9,6.6L532.4,6.6L532.4,8.8L535.5,8.8L535.5,9.7ZM540.0,5.3L548.4,5.3L548.4,6.2L540.0,6.2L540.0,5.3ZM544.4,8.6L548.0,8.6L548.0,9.6L544.4,9.6L544.4,8.6ZM539.7,12.5L548.7,12.5L548.7,13.4L539.7,13.4L539.7,12.5ZM544.0,5.6L545.0,5.6L545.0,13.0L544.0,13.0L544.0,5.6ZM541.0,7.9L542.0,7.9L542.0,13.0L541.0,13.0L541.0,7.9ZM556.3,5.1L556.9,4.6Q557.2,4.8,557.5,5.0Q557.7,5.2,558.0,5.4Q558.2,5.6,558.3,5.8L557.7,6.3Q557.5,6.2,557.3,6.0Q557.1,5.7,556.8,5.5Q556.6,5.3,556.3,5.1ZM549.7,6.4L558.7,6.4L558.7,7.3L549.7,7.3L549.7,6.4ZM550.1,8.6L554.5,8.6L554.5,9.5L550.1,9.5L550.1,8.6ZM551.8,9.1L552.7,9.1L552.7,12.6L551.8,12.6L551.8,9.1ZM549.8,12.6Q550.4,12.5,551.2,12.3Q552.0,12.2,552.9,12.0Q553.8,11.8,554.7,11.6L554.8,12.5Q554.0,12.7,553.1,12.9Q552.3,13.1,551.5,13.2Q550.7,13.4,550.0,13.6L549.8,12.6ZM554.8,4.6L555.8,4.6Q555.7,5.9,555.8,7.1Q555.9,8.4,556.1,9.4Q556.3,10.5,556.5,11.2Q556.7,12.0,557.0,12.4Q557.3,12.9,557.7,12.9Q557.9,12.9,557.9,12.4Q558.0,12.0,558.1,11.0Q558.2,11.2,558.5,11.3Q558.7,11.5,558.9,11.5Q558.8,12.5,558.7,13.0Q558.5,13.5,558.3,13.7Q558.0,13.9,557.6,13.9Q557.1,13.9,556.6,13.5Q556.2,13.1,555.9,12.5Q555.6,11.9,555.4,11.0Q555.2,10.1,555.0,9.1Q554.9,8.1,554.8,6.9Q554.8,5.8,554.8,4.6ZM560.6,7.3L563.6,7.3L563.6,8.1L560.6,8.1L560.6,7.3ZM564.5,7.4L568.0,7.4L568.0,8.3L564.5,8.3L564.5,7.4ZM562.0,4.5L562.8,4.5L562.8,7.8L562.0,7.8L562.0,4.5ZM560.6,9.4L563.1,9.4L563.1,13.8L562.2,13.8L562.2,10.3L560.6,10.3L560.6,9.4ZM560.2,4.8L561.1,4.8L561.1,8.7Q561.1,9.4,561.0,10.1Q561.0,10.8,560.9,11.4Q560.8,12.1,560.6,12.7Q560.4,13.4,560.1,13.9Q560.1,13.8,560.0,13.7Q559.8,13.6,559.7,13.5Q559.6,13.4,559.5,13.3Q559.7,12.8,559.9,12.3Q560.0,11.7,560.1,11.1Q560.1,10.5,560.2,9.9Q560.2,9.3,560.2,8.7L560.2,4.8ZM567.7,7.4L567.9,7.4L568.0,7.4L568.6,7.5Q568.4,9.2,567.9,10.4Q567.4,11.6,566.7,12.5Q565.9,13.4,565.0,13.9Q564.9,13.8,564.8,13.6Q564.7,13.5,564.6,13.3Q564.5,13.2,564.4,13.1Q565.2,12.7,565.9,11.9Q566.6,11.2,567.1,10.1Q567.5,9.0,567.7,7.6L567.7,7.4ZM565.7,8.0Q565.9,9.1,566.3,10.1Q566.7,11.1,567.4,11.9Q568.0,12.7,568.9,13.1Q568.8,13.2,568.6,13.3Q568.5,13.5,568.4,13.6Q568.3,13.7,568.2,13.9Q567.3,13.3,566.7,12.5Q566.0,11.6,565.6,10.5Q565.2,9.4,564.9,8.1L565.7,8.0ZM568.2,4.6L568.7,5.4Q568.1,5.6,567.4,5.7Q566.6,5.8,565.8,5.9Q565,6.0,564.2,6.0Q564.2,5.8,564.2,5.6Q564.1,5.4,564.0,5.2Q564.7,5.1,565.5,5.1Q566.3,5.0,567.0,4.9Q567.7,4.8,568.2,4.6ZM564.0,5.2L564.9,5.2L564.9,8.6Q564.9,9.3,564.9,10.0Q564.8,10.7,564.7,11.4Q564.6,12.1,564.4,12.7Q564.2,13.4,563.9,13.9Q563.8,13.8,563.7,13.7Q563.6,13.6,563.4,13.5Q563.3,13.4,563.2,13.4Q563.4,12.9,563.6,12.3Q563.8,11.7,563.9,11.1Q564.0,10.4,564.0,9.8Q564.0,9.2,564.0,8.6L564.0,5.2ZM569.8,5.1L578.6,5.1L578.6,5.9L569.8,5.9L569.8,5.1ZM573.8,5.4L574.8,5.4L574.8,9.4Q574.8,10.0,574.7,10.5Q574.6,11.1,574.3,11.6Q574.0,12.1,573.5,12.5Q573.0,12.9,572.2,13.3Q571.4,13.6,570.2,13.8Q570.2,13.7,570.1,13.6Q570.0,13.4,569.8,13.3Q569.7,13.1,569.6,13.0Q570.8,12.8,571.5,12.5Q572.3,12.3,572.7,11.9Q573.2,11.6,573.4,11.2Q573.6,10.8,573.7,10.3Q573.8,9.8,573.8,9.4L573.8,5.4ZM571.6,9.0L571.6,9.9L577.0,9.9L577.0,9.0L571.6,9.0ZM571.6,7.4L571.6,8.3L577.0,8.3L577.0,7.4L571.6,7.4ZM570.7,6.6L578.0,6.6L578.0,10.6L570.7,10.6L570.7,6.6ZM571.8,10.7Q572.3,11.4,573.0,11.8Q573.7,12.2,574.5,12.4Q575.4,12.7,576.5,12.7Q577.6,12.8,578.9,12.8Q578.8,13.0,578.7,13.3Q578.6,13.5,578.5,13.8Q577.2,13.7,576.0,13.6Q574.9,13.5,573.9,13.2Q573.0,12.9,572.2,12.4Q571.5,11.8,571.0,11.0L571.8,10.7ZM585.1,7.9L588.8,7.9L588.8,8.8L585.1,8.8L585.1,7.9ZM579.8,5.6L584.2,5.6L584.2,6.4L579.8,6.4L579.8,5.6ZM579.7,9.6L584.3,9.6L584.3,10.4L579.7,10.4L579.7,9.6ZM579.6,7.8L584.4,7.8L584.4,8.6L579.6,8.6L579.6,7.8ZM586.9,8.3L587.8,8.3L587.8,13.8L586.9,13.8L586.9,8.3ZM580.4,6.6L581.1,6.4Q581.3,6.7,581.4,7.1Q581.5,7.4,581.5,7.7L580.7,7.9Q580.7,7.6,580.6,7.3Q580.5,6.9,580.4,6.6ZM582.9,6.4L583.7,6.5Q583.6,7.0,583.4,7.4Q583.2,7.8,583.1,8.1L582.3,8.0Q582.4,7.7,582.5,7.5Q582.6,7.2,582.7,6.9Q582.8,6.6,582.9,6.4ZM587.8,4.7L588.5,5.4Q588.0,5.6,587.5,5.7Q586.8,5.9,586.2,6.0Q585.6,6.1,585.0,6.2Q585.0,6.1,584.9,5.9Q584.8,5.7,584.7,5.5Q585.3,5.4,585.8,5.3Q586.4,5.2,586.9,5.0Q587.4,4.9,587.8,4.7ZM581.3,4.7L582.1,4.5Q582.3,4.8,582.4,5.2Q582.6,5.6,582.7,5.8L581.8,6.1Q581.7,5.8,581.6,5.4Q581.4,5.0,581.3,4.7ZM581.6,8.3L582.5,8.3L582.5,12.7Q582.5,13.1,582.4,13.2Q582.3,13.4,582.1,13.5Q581.9,13.6,581.7,13.6Q581.4,13.6,581.0,13.6Q581.0,13.5,580.9,13.3Q580.8,13.0,580.7,12.9Q581.0,12.9,581.2,12.9Q581.4,12.9,581.5,12.9Q581.6,12.9,581.6,12.7L581.6,8.3ZM584.7,5.5L585.6,5.5L585.6,9.0Q585.6,9.5,585.6,10.2Q585.5,10.8,585.4,11.4Q585.3,12.1,585.1,12.7Q584.9,13.3,584.6,13.7Q584.5,13.6,584.4,13.5Q584.2,13.4,584.1,13.3Q583.9,13.2,583.8,13.2Q584.2,12.6,584.4,11.9Q584.6,11.1,584.7,10.4Q584.7,9.7,584.7,9.0L584.7,5.5ZM582.8,11.0L583.4,10.6Q583.6,11.0,583.9,11.4Q584.1,11.8,584.2,12.1L583.6,12.5Q583.5,12.2,583.2,11.8Q583.0,11.3,582.8,11.0ZM580.5,10.7L581.2,10.9Q581.0,11.4,580.8,11.9Q580.5,12.4,580.2,12.7Q580.1,12.7,579.9,12.5Q579.7,12.4,579.5,12.3Q579.8,12.0,580.1,11.6Q580.3,11.1,580.5,10.7Z" fill="#FFFFFF" fill-opacity="0.2"/></g><g><path d="M17.6,193L16.3,193L14.2,190.1L14.2,190.1L12.9,190.1L12.9,193L11.8,193L11.8,185.7L14.2,185.7Q15.0,185.7,15.6,186.0Q16.2,186.2,16.5,186.7Q16.8,187.2,16.8,187.9Q16.8,188.6,16.4,189.2Q16.1,189.7,15.4,189.9L17.6,193ZM12.9,186.6L12.9,189.2L14.1,189.2Q14.8,189.2,15.3,188.8Q15.7,188.5,15.7,187.9Q15.7,187.3,15.3,187.0Q14.8,186.6,14.1,186.6L12.9,186.6ZM22.6,189.7L19.5,189.7L19.5,192.1L23.1,192.1L23.1,193L18.4,193L18.4,185.7L23.0,185.7L23.0,186.6L19.5,186.6L19.5,188.8L22.6,188.8L22.6,189.7ZM24.4,185.7L25.5,185.7L25.5,192.0L29.0,192.0L29.0,193L24.4,193L24.4,185.7ZM34.3,189.7L31.2,189.7L31.2,192.1L34.8,192.1L34.8,193L30.1,193L30.1,185.7L34.7,185.7L34.7,186.6L31.2,186.6L31.2,188.8L34.3,188.8L34.3,189.7ZM39.1,185.7L42.0,193L40.9,193L40.1,191.0L37.1,191.0L36.4,193L35.3,193L38.2,185.7L39.1,185.7ZM39.8,190.1L38.6,187.1L37.5,190.1L39.8,190.1ZM47.6,190.9Q47.6,191.6,47.3,192.1Q47,192.6,46.4,192.8Q45.9,193.1,45.1,193.1Q44.0,193.1,43.3,192.6Q42.5,192.1,42.2,191.3L43.1,190.8Q43.4,191.4,43.9,191.8Q44.4,192.1,45.1,192.1Q45.8,192.1,46.2,191.8Q46.5,191.6,46.5,191.1Q46.5,190.6,46.3,190.4Q46.0,190.1,45.7,190.0Q45.4,189.8,44.8,189.6Q44.0,189.4,43.6,189.2Q43.2,189.0,42.9,188.6Q42.5,188.3,42.5,187.6Q42.5,187.0,42.9,186.5Q43.2,186.0,43.8,185.8Q44.4,185.6,45.1,185.6Q46.1,185.6,46.7,186.0Q47.3,186.4,47.5,187.1L46.7,187.6Q46.2,186.5,45.0,186.5Q44.4,186.5,44.1,186.8Q43.7,187.1,43.7,187.6Q43.7,187.9,43.9,188.1Q44.1,188.3,44.4,188.5Q44.8,188.6,45.3,188.8Q46.1,189.0,46.5,189.2Q47.0,189.4,47.3,189.8Q47.6,190.2,47.6,190.9ZM52.9,189.7L49.8,189.7L49.8,192.1L53.4,192.1L53.4,193L48.7,193L48.7,185.7L53.3,185.7L53.3,186.6L49.8,186.6L49.8,188.8L52.9,188.8L52.9,189.7ZM62.1,185.7L63.2,185.7L63.2,190.0Q63.2,191.0,62.9,191.7Q62.5,192.4,61.9,192.7Q61.2,193.1,60.3,193.1Q59.4,193.1,58.7,192.7Q58.0,192.4,57.7,191.7Q57.4,191.0,57.4,190.0L57.4,185.7L58.4,185.7L58.4,189.8Q58.4,191.0,58.9,191.5Q59.4,192.1,60.3,192.1Q61.2,192.1,61.7,191.5Q62.1,191.0,62.1,189.8L62.1,185.7ZM67.2,185.7Q68.0,185.7,68.6,186.0Q69.2,186.3,69.5,186.8Q69.8,187.3,69.8,188Q69.8,188.7,69.5,189.2Q69.2,189.7,68.6,190.0Q68.0,190.3,67.2,190.3L65.9,190.3L65.9,193L64.8,193L64.8,185.7L67.2,185.7ZM67.0,189.4Q67.8,189.4,68.3,189.0Q68.7,188.6,68.7,188Q68.7,187.4,68.3,187.0Q67.8,186.6,67.0,186.6L65.9,186.6L65.9,189.4L67.0,189.4ZM73.0,185.7Q74.1,185.7,75.0,186.1Q75.8,186.5,76.3,187.4Q76.8,188.2,76.8,189.3Q76.8,190.5,76.3,191.3Q75.8,192.1,75.0,192.6Q74.1,193,73.0,193L70.9,193L70.9,185.7L73.0,185.7ZM72.9,192.1Q74.2,192.1,75.0,191.3Q75.7,190.6,75.7,189.3Q75.7,188.0,75.0,187.3Q74.2,186.6,72.9,186.6L72.0,186.6L72.0,192.1L72.9,192.1ZM80.8,185.7L83.7,193L82.5,193L81.8,191.0L78.8,191.0L78.1,193L77.0,193L79.8,185.7L80.8,185.7ZM81.4,190.1L80.3,187.1L79.2,190.1L81.4,190.1ZM83.0,185.7L88.6,185.7L88.6,186.6L86.4,186.6L86.4,193L85.3,193L85.3,186.6L83.0,186.6L83.0,185.7ZM93.8,189.7L90.7,189.7L90.7,192.1L94.3,192.1L94.3,193L89.6,193L89.6,185.7L94.2,185.7L94.2,186.6L90.7,186.6L90.7,188.8L93.8,188.8L93.8,189.7ZM98.3,185.3L106.7,185.3L106.7,186.2L98.3,186.2L98.3,185.3ZM102.7,188.6L106.2,188.6L106.2,189.6L102.7,189.6L102.7,188.6ZM97.9,192.5L107.0,192.5L107.0,193.4L97.9,193.4L97.9,192.5ZM102.2,185.6L103.2,185.6L103.2,193.0L102.2,193.0L102.2,185.6ZM99.2,187.9L100.2,187.9L100.2,193.0L99.2,193.0L99.2,187.9ZM114.6,185.1L115.2,184.6Q115.4,184.8,115.7,185.0Q116.0,185.2,116.2,185.4Q116.4,185.6,116.6,185.8L115.9,186.3Q115.8,186.2,115.6,186.0Q115.3,185.7,115.1,185.5Q114.8,185.3,114.6,185.1ZM108.0,186.4L116.9,186.4L116.9,187.3L108.0,187.3L108.0,186.4ZM108.3,188.6L112.7,188.6L112.7,189.5L108.3,189.5L108.3,188.6ZM110.0,189.1L111.0,189.1L111.0,192.6L110.0,192.6L110.0,189.1ZM108.0,192.6Q108.6,192.5,109.4,192.3Q110.2,192.2,111.2,192.0Q112.1,191.8,113.0,191.6L113.1,192.5Q112.2,192.7,111.4,192.9Q110.5,193.1,109.7,193.2Q108.9,193.4,108.3,193.6L108.0,192.6ZM113.0,184.6L114.0,184.6Q114.0,185.9,114.1,187.1Q114.2,188.4,114.3,189.4Q114.5,190.5,114.7,191.2Q115.0,192.0,115.3,192.4Q115.6,192.9,115.9,192.9Q116.1,192.9,116.2,192.4Q116.3,192.0,116.3,191.0Q116.5,191.2,116.7,191.3Q117.0,191.5,117.2,191.5Q117.1,192.5,116.9,193.0Q116.8,193.5,116.5,193.7Q116.3,193.9,115.8,193.9Q115.3,193.9,114.9,193.5Q114.5,193.1,114.2,192.5Q113.9,191.9,113.6,191.0Q113.4,190.1,113.3,189.1Q113.1,188.1,113.1,186.9Q113.0,185.8,113.0,184.6ZM118.8,187.3L121.9,187.3L121.9,188.1L118.8,188.1L118.8,187.3ZM122.7,187.4L126.2,187.4L126.2,188.3L122.7,188.3L122.7,187.4ZM120.2,184.5L121.1,184.5L121.1,187.8L120.2,187.8L120.2,184.5ZM118.8,189.4L121.3,189.4L121.3,193.8L120.4,193.8L120.4,190.3L118.8,190.3L118.8,189.4ZM118.4,184.8L119.3,184.8L119.3,188.7Q119.3,189.4,119.3,190.1Q119.2,190.8,119.2,191.4Q119.1,192.1,118.9,192.7Q118.7,193.4,118.4,193.9Q118.3,193.8,118.2,193.7Q118.1,193.6,118.0,193.5Q117.8,193.4,117.7,193.3Q118.0,192.8,118.1,192.3Q118.2,191.7,118.3,191.1Q118.4,190.5,118.4,189.9Q118.4,189.3,118.4,188.7L118.4,184.8ZM126.0,187.4L126.1,187.4L126.3,187.4L126.8,187.5Q126.6,189.2,126.1,190.4Q125.7,191.6,124.9,192.5Q124.2,193.4,123.2,193.9Q123.1,193.8,123.0,193.6Q122.9,193.5,122.8,193.3Q122.7,193.2,122.6,193.1Q123.5,192.7,124.2,191.9Q124.9,191.2,125.3,190.1Q125.8,189.0,126.0,187.6L126.0,187.4ZM123.9,188.0Q124.1,189.1,124.6,190.1Q125.0,191.1,125.6,191.9Q126.3,192.7,127.1,193.1Q127.0,193.2,126.9,193.3Q126.8,193.5,126.7,193.6Q126.6,193.7,126.5,193.9Q125.6,193.3,124.9,192.5Q124.3,191.6,123.9,190.5Q123.4,189.4,123.2,188.1L123.9,188.0ZM126.4,184.6L127.0,185.4Q126.4,185.6,125.6,185.7Q124.8,185.8,124.0,185.9Q123.2,186.0,122.5,186.0Q122.5,185.8,122.4,185.6Q122.3,185.4,122.3,185.2Q123.0,185.1,123.8,185.1Q124.5,185.0,125.2,184.9Q125.9,184.8,126.4,184.6ZM122.3,185.2L123.2,185.2L123.2,188.6Q123.2,189.3,123.1,190.0Q123.1,190.7,123.0,191.4Q122.9,192.1,122.7,192.7Q122.5,193.4,122.2,193.9Q122.1,193.8,121.9,193.7Q121.8,193.6,121.7,193.5Q121.5,193.4,121.4,193.4Q121.7,192.9,121.9,192.3Q122.0,191.7,122.1,191.1Q122.2,190.4,122.2,189.8Q122.3,189.2,122.3,188.6L122.3,185.2ZM128.1,185.1L136.8,185.1L136.8,185.9L128.1,185.9L128.1,185.1ZM132.0,185.4L133.0,185.4L133.0,189.4Q133.0,190.0,132.9,190.5Q132.8,191.1,132.5,191.6Q132.3,192.1,131.7,192.5Q131.2,192.9,130.4,193.3Q129.6,193.6,128.5,193.8Q128.4,193.7,128.3,193.6Q128.2,193.4,128.1,193.3Q128.0,193.1,127.9,193.0Q129.0,192.8,129.8,192.5Q130.5,192.3,131.0,191.9Q131.4,191.6,131.7,191.2Q131.9,190.8,132.0,190.3Q132.0,189.8,132.0,189.4L132.0,185.4ZM129.9,189.0L129.9,189.9L135.3,189.9L135.3,189.0L129.9,189.0ZM129.9,187.4L129.9,188.3L135.3,188.3L135.3,187.4L129.9,187.4ZM129.0,186.6L136.2,186.6L136.2,190.6L129.0,190.6L129.0,186.6ZM130.0,190.7Q130.5,191.4,131.2,191.8Q131.9,192.2,132.8,192.4Q133.7,192.7,134.8,192.7Q135.9,192.8,137.2,192.8Q137.1,193.0,137.0,193.3Q136.8,193.5,136.8,193.8Q135.4,193.7,134.3,193.6Q133.1,193.5,132.2,193.2Q131.2,192.9,130.5,192.4Q129.8,191.8,129.2,191.0L130.0,190.7ZM143.3,187.9L147.1,187.9L147.1,188.8L143.3,188.8L143.3,187.9ZM138.0,185.6L142.5,185.6L142.5,186.4L138.0,186.4L138.0,185.6ZM137.9,189.6L142.5,189.6L142.5,190.4L137.9,190.4L137.9,189.6ZM137.9,187.8L142.6,187.8L142.6,188.6L137.9,188.6L137.9,187.8ZM145.1,188.3L146.0,188.3L146.0,193.8L145.1,193.8L145.1,188.3ZM138.6,186.6L139.4,186.4Q139.5,186.7,139.6,187.1Q139.7,187.4,139.8,187.7L139.0,187.9Q139.0,187.6,138.9,187.3Q138.8,186.9,138.6,186.6ZM141.1,186.4L142.0,186.5Q141.8,187.0,141.7,187.4Q141.5,187.8,141.3,188.1L140.6,188.0Q140.7,187.7,140.8,187.5Q140.9,187.2,141.0,186.9Q141.1,186.6,141.1,186.4ZM146.1,184.7L146.8,185.4Q146.3,185.6,145.7,185.7Q145.1,185.9,144.5,186.0Q143.8,186.1,143.2,186.2Q143.2,186.1,143.1,185.9Q143.0,185.7,143.0,185.5Q143.5,185.4,144.1,185.3Q144.7,185.2,145.2,185.0Q145.7,184.9,146.1,184.7ZM139.5,184.7L140.4,184.5Q140.5,184.8,140.7,185.2Q140.9,185.6,140.9,185.8L140.0,186.1Q140.0,185.8,139.8,185.4Q139.7,185.0,139.5,184.7ZM139.9,188.3L140.7,188.3L140.7,192.7Q140.7,193.1,140.7,193.2Q140.6,193.4,140.4,193.5Q140.2,193.6,139.9,193.6Q139.6,193.6,139.2,193.6Q139.2,193.5,139.2,193.3Q139.1,193.0,139.0,192.9Q139.2,192.9,139.4,192.9Q139.7,192.9,139.7,192.9Q139.9,192.9,139.9,192.7L139.9,188.3ZM143.0,185.5L143.8,185.5L143.8,189.0Q143.8,189.5,143.8,190.2Q143.8,190.8,143.7,191.4Q143.6,192.1,143.4,192.7Q143.2,193.3,142.8,193.7Q142.7,193.6,142.6,193.5Q142.5,193.4,142.3,193.3Q142.2,193.2,142.1,193.2Q142.5,192.6,142.7,191.9Q142.9,191.1,142.9,190.4Q143.0,189.7,143.0,189.0L143.0,185.5ZM141.0,191.0L141.7,190.6Q141.9,191.0,142.1,191.4Q142.4,191.8,142.5,192.1L141.8,192.5Q141.7,192.2,141.5,191.8Q141.2,191.3,141.0,191.0ZM138.7,190.7L139.5,190.9Q139.3,191.4,139.0,191.9Q138.7,192.4,138.4,192.7Q138.3,192.7,138.1,192.5Q137.9,192.4,137.8,192.3Q138.1,192.0,138.3,191.6Q138.6,191.1,138.7,190.7ZM164.8,193L163.5,193L161.5,190.1L161.4,190.1L160.2,190.1L160.2,193L159.1,193L159.1,185.7L161.4,185.7Q162.2,185.7,162.8,186.0Q163.4,186.2,163.8,186.7Q164.1,187.2,164.1,187.9Q164.1,188.6,163.7,189.2Q163.3,189.7,162.6,189.9L164.8,193ZM160.2,186.6L160.2,189.2L161.3,189.2Q162.1,189.2,162.5,188.8Q163.0,188.5,163.0,187.9Q163.0,187.3,162.5,187.0Q162.1,186.6,161.3,186.6L160.2,186.6ZM169.9,189.7L166.7,189.7L166.7,192.1L170.3,192.1L170.3,193L165.7,193L165.7,185.7L170.2,185.7L170.2,186.6L166.7,186.6L166.7,188.8L169.9,188.8L169.9,189.7ZM171.7,185.7L172.7,185.7L172.7,192.0L176.2,192.0L176.2,193L171.7,193L171.7,185.7ZM181.6,189.7L178.4,189.7L178.4,192.1L182.1,192.1L182.1,193L177.4,193L177.4,185.7L181.9,185.7L181.9,186.6L178.4,186.6L178.4,188.8L181.6,188.8L181.6,189.7ZM186.3,185.7L189.3,193L188.1,193L187.4,191.0L184.4,191.0L183.7,193L182.6,193L185.4,185.7L186.3,185.7ZM187,190.1L185.8,187.1L184.7,190.1L187,190.1ZM194.9,190.9Q194.9,191.6,194.6,192.1Q194.2,192.6,193.7,192.8Q193.1,193.1,192.3,193.1Q191.3,193.1,190.5,192.6Q189.7,192.1,189.5,191.3L190.4,190.8Q190.6,191.4,191.1,191.8Q191.6,192.1,192.4,192.1Q193.0,192.1,193.4,191.8Q193.8,191.6,193.8,191.1Q193.8,190.6,193.5,190.4Q193.3,190.1,192.9,190.0Q192.6,189.8,192,189.6Q191.3,189.4,190.8,189.2Q190.4,189.0,190.1,188.6Q189.8,188.3,189.8,187.6Q189.8,187.0,190.1,186.5Q190.5,186.0,191.1,185.8Q191.6,185.6,192.3,185.6Q193.3,185.6,193.9,186.0Q194.6,186.4,194.8,187.1L193.9,187.6Q193.5,186.5,192.3,186.5Q191.7,186.5,191.3,186.8Q190.9,187.1,190.9,187.6Q190.9,187.9,191.1,188.1Q191.4,188.3,191.7,188.5Q192.0,188.6,192.6,188.8Q193.3,189.0,193.8,189.2Q194.2,189.4,194.6,189.8Q194.9,190.2,194.9,190.9ZM200.2,189.7L197.1,189.7L197.1,192.1L200.7,192.1L200.7,193L196.0,193L196.0,185.7L200.6,185.7L200.6,186.6L197.1,186.6L197.1,188.8L200.2,188.8L200.2,189.7ZM209.4,185.7L210.5,185.7L210.5,190.0Q210.5,191.0,210.1,191.7Q209.8,192.4,209.1,192.7Q208.5,193.1,207.5,193.1Q206.6,193.1,206.0,192.7Q205.3,192.4,204.9,191.7Q204.6,191.0,204.6,190.0L204.6,185.7L205.7,185.7L205.7,189.8Q205.7,191.0,206.2,191.5Q206.6,192.1,207.5,192.1Q208.4,192.1,208.9,191.5Q209.4,191.0,209.4,189.8L209.4,185.7ZM214.4,185.7Q215.2,185.7,215.8,186.0Q216.4,186.3,216.8,186.8Q217.1,187.3,217.1,188Q217.1,188.7,216.8,189.2Q216.4,189.7,215.8,190.0Q215.2,190.3,214.4,190.3L213.2,190.3L213.2,193L212.1,193L212.1,185.7L214.4,185.7ZM214.3,189.4Q215.1,189.4,215.5,189.0Q215.9,188.6,215.9,188Q215.9,187.4,215.5,187.0Q215.1,186.6,214.3,186.6L213.2,186.6L213.2,189.4L214.3,189.4ZM220.3,185.7Q221.4,185.7,222.2,186.1Q223.1,186.5,223.6,187.4Q224.1,188.2,224.1,189.3Q224.1,190.5,223.6,191.3Q223.1,192.1,222.2,192.6Q221.4,193,220.3,193L218.2,193L218.2,185.7L220.3,185.7ZM220.2,192.1Q221.5,192.1,222.2,191.3Q222.9,190.6,222.9,189.3Q222.9,188.0,222.2,187.3Q221.5,186.6,220.2,186.6L219.2,186.6L219.2,192.1L220.2,192.1ZM228.0,185.7L231.0,193L229.8,193L229.0,191.0L226.1,191.0L225.3,193L224.3,193L227.1,185.7L228.0,185.7ZM228.7,190.1L227.5,187.1L226.4,190.1L228.7,190.1ZM230.3,185.7L235.9,185.7L235.9,186.6L233.6,186.6L233.6,193L232.6,193L232.6,186.6L230.3,186.6L230.3,185.7ZM241.1,189.7L237.9,189.7L237.9,192.1L241.5,192.1L241.5,193L236.8,193L236.8,185.7L241.4,185.7L241.4,186.6L237.9,186.6L237.9,188.8L241.1,188.8L241.1,189.7ZM245.5,185.3L253.9,185.3L253.9,186.2L245.5,186.2L245.5,185.3ZM249.9,188.6L253.5,188.6L253.5,189.6L249.9,189.6L249.9,188.6ZM245.2,192.5L254.2,192.5L254.2,193.4L245.2,193.4L245.2,192.5ZM249.5,185.6L250.5,185.6L250.5,193.0L249.5,193.0L249.5,185.6ZM246.5,187.9L247.5,187.9L247.5,193.0L246.5,193.0L246.5,187.9ZM261.8,185.1L262.4,184.6Q262.7,184.8,263.0,185.0Q263.2,185.2,263.5,185.4Q263.7,185.6,263.8,185.8L263.2,186.3Q263.0,186.2,262.8,186.0Q262.6,185.7,262.3,185.5Q262.1,185.3,261.8,185.1ZM255.2,186.4L264.2,186.4L264.2,187.3L255.2,187.3L255.2,186.4ZM255.6,188.6L260.0,188.6L260.0,189.5L255.6,189.5L255.6,188.6ZM257.3,189.1L258.2,189.1L258.2,192.6L257.3,192.6L257.3,189.1ZM255.3,192.6Q255.9,192.5,256.7,192.3Q257.5,192.2,258.4,192.0Q259.3,191.8,260.2,191.6L260.3,192.5Q259.5,192.7,258.6,192.9Q257.8,193.1,257.0,193.2Q256.2,193.4,255.5,193.6L255.3,192.6ZM260.3,184.6L261.3,184.6Q261.2,185.9,261.3,187.1Q261.4,188.4,261.6,189.4Q261.8,190.5,262.0,191.2Q262.2,192.0,262.5,192.4Q262.8,192.9,263.2,192.9Q263.4,192.9,263.4,192.4Q263.5,192.0,263.6,191.0Q263.7,191.2,264.0,191.3Q264.2,191.5,264.4,191.5Q264.3,192.5,264.2,193.0Q264.0,193.5,263.8,193.7Q263.5,193.9,263.1,193.9Q262.6,193.9,262.1,193.5Q261.7,193.1,261.4,192.5Q261.1,191.9,260.9,191.0Q260.7,190.1,260.5,189.1Q260.4,188.1,260.3,186.9Q260.3,185.8,260.3,184.6ZM266.1,187.3L269.1,187.3L269.1,188.1L266.1,188.1L266.1,187.3ZM270.0,187.4L273.5,187.4L273.5,188.3L270.0,188.3L270.0,187.4ZM267.5,184.5L268.3,184.5L268.3,187.8L267.5,187.8L267.5,184.5ZM266.1,189.4L268.6,189.4L268.6,193.8L267.7,193.8L267.7,190.3L266.1,190.3L266.1,189.4ZM265.7,184.8L266.6,184.8L266.6,188.7Q266.6,189.4,266.5,190.1Q266.5,190.8,266.4,191.4Q266.3,192.1,266.1,192.7Q265.9,193.4,265.6,193.9Q265.6,193.8,265.5,193.7Q265.3,193.6,265.2,193.5Q265.1,193.4,265.0,193.3Q265.2,192.8,265.4,192.3Q265.5,191.7,265.6,191.1Q265.6,190.5,265.7,189.9Q265.7,189.3,265.7,188.7L265.7,184.8ZM273.2,187.4L273.4,187.4L273.5,187.4L274.1,187.5Q273.9,189.2,273.4,190.4Q272.9,191.6,272.2,192.5Q271.4,193.4,270.5,193.9Q270.4,193.8,270.3,193.6Q270.2,193.5,270.1,193.3Q270.0,193.2,269.9,193.1Q270.8,192.7,271.4,191.9Q272.1,191.2,272.6,190.1Q273.0,189.0,273.2,187.6L273.2,187.4ZM271.2,188.0Q271.4,189.1,271.8,190.1Q272.2,191.1,272.9,191.9Q273.5,192.7,274.4,193.1Q274.3,193.2,274.1,193.3Q274.0,193.5,273.9,193.6Q273.8,193.7,273.7,193.9Q272.8,193.3,272.2,192.5Q271.5,191.6,271.1,190.5Q270.7,189.4,270.4,188.1L271.2,188.0ZM273.7,184.6L274.2,185.4Q273.6,185.6,272.9,185.7Q272.1,185.8,271.3,185.9Q270.5,186.0,269.8,186.0Q269.7,185.8,269.7,185.6Q269.6,185.4,269.5,185.2Q270.2,185.1,271.0,185.1Q271.8,185.0,272.5,184.9Q273.2,184.8,273.7,184.6ZM269.5,185.2L270.4,185.2L270.4,188.6Q270.4,189.3,270.4,190.0Q270.3,190.7,270.2,191.4Q270.1,192.1,269.9,192.7Q269.7,193.4,269.4,193.9Q269.3,193.8,269.2,193.7Q269.1,193.6,268.9,193.5Q268.8,193.4,268.7,193.4Q268.9,192.9,269.1,192.3Q269.3,191.7,269.4,191.1Q269.4,190.4,269.5,189.8Q269.5,189.2,269.5,188.6L269.5,185.2ZM275.3,185.1L284.1,185.1L284.1,185.9L275.3,185.9L275.3,185.1ZM279.3,185.4L280.3,185.4L280.3,189.4Q280.3,190.0,280.2,190.5Q280.1,191.1,279.8,191.6Q279.5,192.1,279.0,192.5Q278.5,192.9,277.7,193.3Q276.9,193.6,275.7,193.8Q275.7,193.7,275.6,193.6Q275.5,193.4,275.3,193.3Q275.2,193.1,275.1,193.0Q276.3,192.8,277.0,192.5Q277.8,192.3,278.2,191.9Q278.7,191.6,278.9,191.2Q279.1,190.8,279.2,190.3Q279.3,189.8,279.3,189.4L279.3,185.4ZM277.1,189.0L277.1,189.9L282.5,189.9L282.5,189.0L277.1,189.0ZM277.1,187.4L277.1,188.3L282.5,188.3L282.5,187.4L277.1,187.4ZM276.2,186.6L283.5,186.6L283.5,190.6L276.2,190.6L276.2,186.6ZM277.3,190.7Q277.8,191.4,278.5,191.8Q279.2,192.2,280.0,192.4Q280.9,192.7,282.0,192.7Q283.1,192.8,284.4,192.8Q284.3,193.0,284.2,193.3Q284.1,193.5,284.0,193.8Q282.7,193.7,281.5,193.6Q280.4,193.5,279.4,193.2Q278.5,192.9,277.7,192.4Q277,191.8,276.5,191.0L277.3,190.7ZM290.6,187.9L294.3,187.9L294.3,188.8L290.6,188.8L290.6,187.9ZM285.3,185.6L289.7,185.6L289.7,186.4L285.3,186.4L285.3,185.6ZM285.2,189.6L289.8,189.6L289.8,190.4L285.2,190.4L285.2,189.6ZM285.1,187.8L289.9,187.8L289.9,188.6L285.1,188.6L285.1,187.8ZM292.4,188.3L293.3,188.3L293.3,193.8L292.4,193.8L292.4,188.3ZM285.9,186.6L286.6,186.4Q286.8,186.7,286.9,187.1Q287.0,187.4,287.0,187.7L286.2,187.9Q286.2,187.6,286.1,187.3Q286.0,186.9,285.9,186.6ZM288.4,186.4L289.2,186.5Q289.1,187.0,288.9,187.4Q288.7,187.8,288.6,188.1L287.8,188.0Q287.9,187.7,288.0,187.5Q288.1,187.2,288.2,186.9Q288.3,186.6,288.4,186.4ZM293.3,184.7L294.0,185.4Q293.6,185.6,292.9,185.7Q292.3,185.9,291.7,186.0Q291.1,186.1,290.5,186.2Q290.5,186.1,290.4,185.9Q290.3,185.7,290.2,185.5Q290.8,185.4,291.3,185.3Q291.9,185.2,292.4,185.0Q292.9,184.9,293.3,184.7ZM286.8,184.7L287.6,184.5Q287.8,184.8,287.9,185.2Q288.1,185.6,288.2,185.8L287.3,186.1Q287.2,185.8,287.1,185.4Q286.9,185.0,286.8,184.7ZM287.1,188.3L288.0,188.3L288.0,192.7Q288.0,193.1,287.9,193.2Q287.8,193.4,287.6,193.5Q287.4,193.6,287.2,193.6Q286.9,193.6,286.5,193.6Q286.5,193.5,286.4,193.3Q286.3,193.0,286.2,192.9Q286.5,192.9,286.7,192.9Q286.9,192.9,287.0,192.9Q287.1,192.9,287.1,192.7L287.1,188.3ZM290.2,185.5L291.1,185.5L291.1,189.0Q291.1,189.5,291.1,190.2Q291.0,190.8,290.9,191.4Q290.8,192.1,290.6,192.7Q290.4,193.3,290.1,193.7Q290.0,193.6,289.9,193.5Q289.7,193.4,289.6,193.3Q289.4,193.2,289.3,193.2Q289.7,192.6,289.9,191.9Q290.1,191.1,290.2,190.4Q290.2,189.7,290.2,189.0L290.2,185.5ZM288.3,191.0L288.9,190.6Q289.1,191.0,289.4,191.4Q289.6,191.8,289.7,192.1L289.1,192.5Q289.0,192.2,288.7,191.8Q288.5,191.3,288.3,191.0ZM286.0,190.7L286.7,190.9Q286.5,191.4,286.3,191.9Q286.0,192.4,285.7,192.7Q285.6,192.7,285.4,192.5Q285.2,192.4,285.0,192.3Q285.3,192.0,285.6,191.6Q285.8,191.1,286.0,190.7ZM312.1,193L310.8,193L308.8,190.1L308.7,190.1L307.4,190.1L307.4,193L306.3,193L306.3,185.7L308.7,185.7Q309.5,185.7,310.1,186.0Q310.7,186.2,311.0,186.7Q311.3,187.2,311.3,187.9Q311.3,188.6,310.9,189.2Q310.6,189.7,309.9,189.9L312.1,193ZM307.4,186.6L307.4,189.2L308.6,189.2Q309.3,189.2,309.8,188.8Q310.2,188.5,310.2,187.9Q310.2,187.3,309.8,187.0Q309.3,186.6,308.6,186.6L307.4,186.6ZM317.1,189.7L314.0,189.7L314.0,192.1L317.6,192.1L317.6,193L312.9,193L312.9,185.7L317.5,185.7L317.5,186.6L314.0,186.6L314.0,188.8L317.1,188.8L317.1,189.7ZM318.9,185.7L320.0,185.7L320.0,192.0L323.5,192.0L323.5,193L318.9,193L318.9,185.7ZM328.8,189.7L325.7,189.7L325.7,192.1L329.3,192.1L329.3,193L324.6,193L324.6,185.7L329.2,185.7L329.2,186.6L325.7,186.6L325.7,188.8L328.8,188.8L328.8,189.7ZM333.6,185.7L336.5,193L335.4,193L334.6,191.0L331.6,191.0L330.9,193L329.8,193L332.7,185.7L333.6,185.7ZM334.2,190.1L333.1,187.1L332.0,190.1L334.2,190.1ZM342.1,190.9Q342.1,191.6,341.8,192.1Q341.5,192.6,340.9,192.8Q340.4,193.1,339.6,193.1Q338.6,193.1,337.8,192.6Q337.0,192.1,336.7,191.3L337.6,190.8Q337.9,191.4,338.4,191.8Q338.9,192.1,339.6,192.1Q340.3,192.1,340.7,191.8Q341.0,191.6,341.0,191.1Q341.0,190.6,340.8,190.4Q340.6,190.1,340.2,190.0Q339.9,189.8,339.2,189.6Q338.5,189.4,338.1,189.2Q337.7,189.0,337.4,188.6Q337.1,188.3,337.1,187.6Q337.1,187.0,337.4,186.5Q337.7,186.0,338.3,185.8Q338.9,185.6,339.6,185.6Q340.6,185.6,341.2,186.0Q341.8,186.4,342.0,187.1L341.2,187.6Q340.7,186.5,339.6,186.5Q338.9,186.5,338.6,186.8Q338.2,187.1,338.2,187.6Q338.2,187.9,338.4,188.1Q338.6,188.3,338.9,188.5Q339.3,188.6,339.8,188.8Q340.6,189.0,341.0,189.2Q341.5,189.4,341.8,189.8Q342.1,190.2,342.1,190.9ZM347.4,189.7L344.3,189.7L344.3,192.1L347.9,192.1L347.9,193L343.2,193L343.2,185.7L347.8,185.7L347.8,186.6L344.3,186.6L344.3,188.8L347.4,188.8L347.4,189.7ZM356.6,185.7L357.7,185.7L357.7,190.0Q357.7,191.0,357.4,191.7Q357.0,192.4,356.4,192.7Q355.7,193.1,354.8,193.1Q353.9,193.1,353.2,192.7Q352.6,192.4,352.2,191.7Q351.9,191.0,351.9,190.0L351.9,185.7L352.9,185.7L352.9,189.8Q352.9,191.0,353.4,191.5Q353.9,192.1,354.8,192.1Q355.7,192.1,356.2,191.5Q356.6,191.0,356.6,189.8L356.6,185.7ZM361.7,185.7Q362.4,185.7,363.1,186.0Q363.7,186.3,364.0,186.8Q364.3,187.3,364.3,188Q364.3,188.7,364.0,189.2Q363.7,189.7,363.1,190.0Q362.5,190.3,361.7,190.3L360.4,190.3L360.4,193L359.3,193L359.3,185.7L361.7,185.7ZM361.5,189.4Q362.3,189.4,362.8,189.0Q363.2,188.6,363.2,188Q363.2,187.4,362.8,187.0Q362.3,186.6,361.5,186.6L360.4,186.6L360.4,189.4L361.5,189.4ZM367.6,185.7Q368.6,185.7,369.5,186.1Q370.3,186.5,370.8,187.4Q371.3,188.2,371.3,189.3Q371.3,190.5,370.8,191.3Q370.3,192.1,369.5,192.6Q368.6,193,367.6,193L365.4,193L365.4,185.7L367.6,185.7ZM367.4,192.1Q368.7,192.1,369.5,191.3Q370.2,190.6,370.2,189.3Q370.2,188.0,369.5,187.3Q368.7,186.6,367.4,186.6L366.5,186.6L366.5,192.1L367.4,192.1ZM375.3,185.7L378.2,193L377.0,193L376.3,191.0L373.3,191.0L372.6,193L371.5,193L374.4,185.7L375.3,185.7ZM375.9,190.1L374.8,187.1L373.7,190.1L375.9,190.1ZM377.6,185.7L383.1,185.7L383.1,186.6L380.9,186.6L380.9,193L379.8,193L379.8,186.6L377.6,186.6L377.6,185.7ZM388.3,189.7L385.2,189.7L385.2,192.1L388.8,192.1L388.8,193L384.1,193L384.1,185.7L388.7,185.7L388.7,186.6L385.2,186.6L385.2,188.8L388.3,188.8L388.3,189.7ZM392.8,185.3L401.2,185.3L401.2,186.2L392.8,186.2L392.8,185.3ZM397.2,188.6L400.7,188.6L400.7,189.6L397.2,189.6L397.2,188.6ZM392.4,192.5L401.5,192.5L401.5,193.4L392.4,193.4L392.4,192.5ZM396.7,185.6L397.7,185.6L397.7,193.0L396.7,193.0L396.7,185.6ZM393.7,187.9L394.7,187.9L394.7,193.0L393.7,193.0L393.7,187.9ZM409.1,185.1L409.7,184.6Q409.9,184.8,410.2,185.0Q410.5,185.2,410.7,185.4Q410.9,185.6,411.1,185.8L410.4,186.3Q410.3,186.2,410.1,186.0Q409.8,185.7,409.6,185.5Q409.3,185.3,409.1,185.1ZM402.5,186.4L411.4,186.4L411.4,187.3L402.5,187.3L402.5,186.4ZM402.8,188.6L407.2,188.6L407.2,189.5L402.8,189.5L402.8,188.6ZM404.5,189.1L405.5,189.1L405.5,192.6L404.5,192.6L404.5,189.1ZM402.5,192.6Q403.1,192.5,403.9,192.3Q404.7,192.2,405.7,192.0Q406.6,191.8,407.5,191.6L407.6,192.5Q406.7,192.7,405.9,192.9Q405.0,193.1,404.2,193.2Q403.4,193.4,402.8,193.6L402.5,192.6ZM407.5,184.6L408.5,184.6Q408.5,185.9,408.6,187.1Q408.7,188.4,408.8,189.4Q409.0,190.5,409.2,191.2Q409.5,192.0,409.8,192.4Q410.1,192.9,410.4,192.9Q410.6,192.9,410.7,192.4Q410.8,192.0,410.8,191.0Q411.0,191.2,411.2,191.3Q411.5,191.5,411.7,191.5Q411.6,192.5,411.4,193.0Q411.3,193.5,411.0,193.7Q410.8,193.9,410.3,193.9Q409.8,193.9,409.4,193.5Q409.0,193.1,408.7,192.5Q408.4,191.9,408.1,191.0Q407.9,190.1,407.8,189.1Q407.6,188.1,407.6,186.9Q407.5,185.8,407.5,184.6ZM413.3,187.3L416.4,187.3L416.4,188.1L413.3,188.1L413.3,187.3ZM417.2,187.4L420.7,187.4L420.7,188.3L417.2,188.3L417.2,187.4ZM414.7,184.5L415.6,184.5L415.6,187.8L414.7,187.8L414.7,184.5ZM413.3,189.4L415.8,189.4L415.8,193.8L414.9,193.8L414.9,190.3L413.3,190.3L413.3,189.4ZM412.9,184.8L413.8,184.8L413.8,188.7Q413.8,189.4,413.8,190.1Q413.7,190.8,413.7,191.4Q413.6,192.1,413.4,192.7Q413.2,193.4,412.9,193.9Q412.8,193.8,412.7,193.7Q412.6,193.6,412.5,193.5Q412.3,193.4,412.2,193.3Q412.5,192.8,412.6,192.3Q412.7,191.7,412.8,191.1Q412.9,190.5,412.9,189.9Q412.9,189.3,412.9,188.7L412.9,184.8ZM420.4,187.4L420.6,187.4L420.8,187.4L421.3,187.5Q421.1,189.2,420.6,190.4Q420.1,191.6,419.4,192.5Q418.7,193.4,417.7,193.9Q417.6,193.8,417.5,193.6Q417.4,193.5,417.3,193.3Q417.2,193.2,417.1,193.1Q418,192.7,418.7,191.9Q419.4,191.2,419.8,190.1Q420.3,189.0,420.4,187.6L420.4,187.4ZM418.4,188.0Q418.6,189.1,419.1,190.1Q419.5,191.1,420.1,191.9Q420.8,192.7,421.6,193.1Q421.5,193.2,421.4,193.3Q421.3,193.5,421.2,193.6Q421.1,193.7,421.0,193.9Q420.1,193.3,419.4,192.5Q418.8,191.6,418.4,190.5Q417.9,189.4,417.7,188.1L418.4,188.0ZM420.9,184.6L421.5,185.4Q420.9,185.6,420.1,185.7Q419.3,185.8,418.5,185.9Q417.8,186.0,417,186.0Q417.0,185.8,416.9,185.6Q416.8,185.4,416.8,185.2Q417.5,185.1,418.3,185.1Q419.0,185.0,419.7,184.9Q420.4,184.8,420.9,184.6ZM416.8,185.2L417.7,185.2L417.7,188.6Q417.7,189.3,417.6,190.0Q417.6,190.7,417.5,191.4Q417.4,192.1,417.2,192.7Q417.0,193.4,416.7,193.9Q416.6,193.8,416.4,193.7Q416.3,193.6,416.2,193.5Q416.0,193.4,415.9,193.4Q416.2,192.9,416.4,192.3Q416.5,191.7,416.6,191.1Q416.7,190.4,416.7,189.8Q416.8,189.2,416.8,188.6L416.8,185.2ZM422.6,185.1L431.3,185.1L431.3,185.9L422.6,185.9L422.6,185.1ZM426.5,185.4L427.5,185.4L427.5,189.4Q427.5,190.0,427.4,190.5Q427.3,191.1,427.0,191.6Q426.8,192.1,426.2,192.5Q425.7,192.9,424.9,193.3Q424.1,193.6,423.0,193.8Q422.9,193.7,422.8,193.6Q422.7,193.4,422.6,193.3Q422.5,193.1,422.4,193.0Q423.5,192.8,424.3,192.5Q425.0,192.3,425.5,191.9Q425.9,191.6,426.2,191.2Q426.4,190.8,426.5,190.3Q426.5,189.8,426.5,189.4L426.5,185.4ZM424.4,189.0L424.4,189.9L429.8,189.9L429.8,189.0L424.4,189.0ZM424.4,187.4L424.4,188.3L429.8,188.3L429.8,187.4L424.4,187.4ZM423.5,186.6L430.7,186.6L430.7,190.6L423.5,190.6L423.5,186.6ZM424.5,190.7Q425.0,191.4,425.7,191.8Q426.4,192.2,427.3,192.4Q428.2,192.7,429.3,192.7Q430.4,192.8,431.7,192.8Q431.6,193.0,431.5,193.3Q431.3,193.5,431.3,193.8Q429.9,193.7,428.8,193.6Q427.6,193.5,426.7,193.2Q425.7,192.9,425.0,192.4Q424.2,191.8,423.7,191.0L424.5,190.7ZM437.8,187.9L441.6,187.9L441.6,188.8L437.8,188.8L437.8,187.9ZM432.5,185.6L437.0,185.6L437.0,186.4L432.5,186.4L432.5,185.6ZM432.4,189.6L437.0,189.6L437.0,190.4L432.4,190.4L432.4,189.6ZM432.4,187.8L437.1,187.8L437.1,188.6L432.4,188.6L432.4,187.8ZM439.6,188.3L440.5,188.3L440.5,193.8L439.6,193.8L439.6,188.3ZM433.1,186.6L433.9,186.4Q434.0,186.7,434.1,187.1Q434.2,187.4,434.3,187.7L433.5,187.9Q433.5,187.6,433.4,187.3Q433.3,186.9,433.1,186.6ZM435.6,186.4L436.5,186.5Q436.3,187.0,436.1,187.4Q436.0,187.8,435.8,188.1L435.1,188.0Q435.2,187.7,435.3,187.5Q435.4,187.2,435.5,186.9Q435.6,186.6,435.6,186.4ZM440.5,184.7L441.3,185.4Q440.8,185.6,440.2,185.7Q439.6,185.9,439.0,186.0Q438.3,186.1,437.7,186.2Q437.7,186.1,437.6,185.9Q437.5,185.7,437.5,185.5Q438.0,185.4,438.6,185.3Q439.2,185.2,439.7,185.0Q440.2,184.9,440.5,184.7ZM434.0,184.7L434.9,184.5Q435.0,184.8,435.2,185.2Q435.4,185.6,435.4,185.8L434.5,186.1Q434.5,185.8,434.3,185.4Q434.2,185.0,434.0,184.7ZM434.4,188.3L435.2,188.3L435.2,192.7Q435.2,193.1,435.2,193.2Q435.1,193.4,434.9,193.5Q434.7,193.6,434.4,193.6Q434.1,193.6,433.7,193.6Q433.7,193.5,433.7,193.3Q433.6,193.0,433.5,192.9Q433.7,192.9,433.9,192.9Q434.2,192.9,434.2,192.9Q434.4,192.9,434.4,192.7L434.4,188.3ZM437.5,185.5L438.3,185.5L438.3,189.0Q438.3,189.5,438.3,190.2Q438.3,190.8,438.2,191.4Q438.1,192.1,437.9,192.7Q437.7,193.3,437.3,193.7Q437.2,193.6,437.1,193.5Q437.0,193.4,436.8,193.3Q436.7,193.2,436.6,193.2Q437.0,192.6,437.2,191.9Q437.4,191.1,437.4,190.4Q437.5,189.7,437.5,189.0L437.5,185.5ZM435.5,191.0L436.2,190.6Q436.4,191.0,436.6,191.4Q436.9,191.8,437.0,192.1L436.3,192.5Q436.2,192.2,436.0,191.8Q435.7,191.3,435.5,191.0ZM433.2,190.7L434.0,190.9Q433.8,191.4,433.5,191.9Q433.2,192.4,432.9,192.7Q432.8,192.7,432.6,192.5Q432.4,192.4,432.3,192.3Q432.6,192.0,432.8,191.6Q433.1,191.1,433.2,190.7ZM459.3,193L458.0,193L456,190.1L455.9,190.1L454.7,190.1L454.7,193L453.6,193L453.6,185.7L455.9,185.7Q456.7,185.7,457.3,186.0Q457.9,186.2,458.3,186.7Q458.6,187.2,458.6,187.9Q458.6,188.6,458.2,189.2Q457.8,189.7,457.1,189.9L459.3,193ZM454.7,186.6L454.7,189.2L455.8,189.2Q456.6,189.2,457.0,188.8Q457.5,188.5,457.5,187.9Q457.5,187.3,457.0,187.0Q456.6,186.6,455.8,186.6L454.7,186.6ZM464.4,189.7L461.2,189.7L461.2,192.1L464.8,192.1L464.8,193L460.1,193L460.1,185.7L464.7,185.7L464.7,186.6L461.2,186.6L461.2,188.8L464.4,188.8L464.4,189.7ZM466.1,185.7L467.2,185.7L467.2,192.0L470.7,192.0L470.7,193L466.1,193L466.1,185.7ZM476.1,189.7L472.9,189.7L472.9,192.1L476.6,192.1L476.6,193L471.9,193L471.9,185.7L476.4,185.7L476.4,186.6L472.9,186.6L472.9,188.8L476.1,188.8L476.1,189.7ZM480.8,185.7L483.8,193L482.6,193L481.9,191.0L478.9,191.0L478.2,193L477.1,193L479.9,185.7L480.8,185.7ZM481.5,190.1L480.3,187.1L479.2,190.1L481.5,190.1ZM489.4,190.9Q489.4,191.6,489.1,192.1Q488.8,192.6,488.2,192.8Q487.6,193.1,486.9,193.1Q485.8,193.1,485.0,192.6Q484.2,192.1,484.0,191.3L484.9,190.8Q485.1,191.4,485.6,191.8Q486.1,192.1,486.9,192.1Q487.5,192.1,487.9,191.8Q488.3,191.6,488.3,191.1Q488.3,190.6,488.0,190.4Q487.8,190.1,487.4,190.0Q487.1,189.8,486.5,189.6Q485.8,189.4,485.3,189.2Q484.9,189.0,484.6,188.6Q484.3,188.3,484.3,187.6Q484.3,187.0,484.6,186.5Q485.0,186.0,485.6,185.8Q486.1,185.6,486.8,185.6Q487.8,185.6,488.4,186.0Q489.1,186.4,489.3,187.1L488.4,187.6Q488.0,186.5,486.8,186.5Q486.2,186.5,485.8,186.8Q485.4,187.1,485.4,187.6Q485.4,187.9,485.6,188.1Q485.9,188.3,486.2,188.5Q486.5,188.6,487.1,188.8Q487.8,189.0,488.3,189.2Q488.7,189.4,489.1,189.8Q489.4,190.2,489.4,190.9ZM494.7,189.7L491.6,189.7L491.6,192.1L495.2,192.1L495.2,193L490.5,193L490.5,185.7L495.1,185.7L495.1,186.6L491.6,186.6L491.6,188.8L494.7,188.8L494.7,189.7ZM503.9,185.7L505.0,185.7L505.0,190.0Q505.0,191.0,504.6,191.7Q504.3,192.4,503.6,192.7Q503.0,193.1,502.0,193.1Q501.1,193.1,500.5,192.7Q499.8,192.4,499.4,191.7Q499.1,191.0,499.1,190.0L499.1,185.7L500.2,185.7L500.2,189.8Q500.2,191.0,500.7,191.5Q501.1,192.1,502.0,192.1Q502.9,192.1,503.4,191.5Q503.9,191.0,503.9,189.8L503.9,185.7ZM508.9,185.7Q509.7,185.7,510.3,186.0Q510.9,186.3,511.3,186.8Q511.6,187.3,511.6,188Q511.6,188.7,511.3,189.2Q510.9,189.7,510.3,190.0Q509.7,190.3,508.9,190.3L507.6,190.3L507.6,193L506.6,193L506.6,185.7L508.9,185.7ZM508.8,189.4Q509.6,189.4,510.0,189.0Q510.4,188.6,510.4,188Q510.4,187.4,510.0,187.0Q509.6,186.6,508.8,186.6L507.6,186.6L507.6,189.4L508.8,189.4ZM514.8,185.7Q515.9,185.7,516.7,186.1Q517.6,186.5,518.1,187.4Q518.6,188.2,518.6,189.3Q518.6,190.5,518.1,191.3Q517.6,192.1,516.7,192.6Q515.9,193,514.8,193L512.7,193L512.7,185.7L514.8,185.7ZM514.7,192.1Q516.0,192.1,516.7,191.3Q517.4,190.6,517.4,189.3Q517.4,188.0,516.7,187.3Q516.0,186.6,514.7,186.6L513.7,186.6L513.7,192.1L514.7,192.1ZM522.5,185.7L525.5,193L524.3,193L523.5,191.0L520.6,191.0L519.9,193L518.8,193L521.6,185.7L522.5,185.7ZM523.2,190.1L522.0,187.1L520.9,190.1L523.2,190.1ZM524.8,185.7L530.4,185.7L530.4,186.6L528.1,186.6L528.1,193L527.0,193L527.0,186.6L524.8,186.6L524.8,185.7ZM535.5,189.7L532.4,189.7L532.4,192.1L536.0,192.1L536.0,193L531.3,193L531.3,185.7L535.9,185.7L535.9,186.6L532.4,186.6L532.4,188.8L535.5,188.8L535.5,189.7ZM540.0,185.3L548.4,185.3L548.4,186.2L540.0,186.2L540.0,185.3ZM544.4,188.6L548.0,188.6L548.0,189.6L544.4,189.6L544.4,188.6ZM539.7,192.5L548.7,192.5L548.7,193.4L539.7,193.4L539.7,192.5ZM544.0,185.6L545.0,185.6L545.0,193.0L544.0,193.0L544.0,185.6ZM541.0,187.9L542.0,187.9L542.0,193.0L541.0,193.0L541.0,187.9ZM556.3,185.1L556.9,184.6Q557.2,184.8,557.5,185.0Q557.7,185.2,558.0,185.4Q558.2,185.6,558.3,185.8L557.7,186.3Q557.5,186.2,557.3,186.0Q557.1,185.7,556.8,185.5Q556.6,185.3,556.3,185.1ZM549.7,186.4L558.7,186.4L558.7,187.3L549.7,187.3L549.7,186.4ZM550.1,188.6L554.5,188.6L554.5,189.5L550.1,189.5L550.1,188.6ZM551.8,189.1L552.7,189.1L552.7,192.6L551.8,192.6L551.8,189.1ZM549.8,192.6Q550.4,192.5,551.2,192.3Q552.0,192.2,552.9,192.0Q553.8,191.8,554.7,191.6L554.8,192.5Q554.0,192.7,553.1,192.9Q552.3,193.1,551.5,193.2Q550.7,193.4,550.0,193.6L549.8,192.6ZM554.8,184.6L555.8,184.6Q555.7,185.9,555.8,187.1Q555.9,188.4,556.1,189.4Q556.3,190.5,556.5,191.2Q556.7,192.0,557.0,192.4Q557.3,192.9,557.7,192.9Q557.9,192.9,557.9,192.4Q558.0,192.0,558.1,191.0Q558.2,191.2,558.5,191.3Q558.7,191.5,558.9,191.5Q558.8,192.5,558.7,193.0Q558.5,193.5,558.3,193.7Q558.0,193.9,557.6,193.9Q557.1,193.9,556.6,193.5Q556.2,193.1,555.9,192.5Q555.6,191.9,555.4,191.0Q555.2,190.1,555.0,189.1Q554.9,188.1,554.8,186.9Q554.8,185.8,554.8,184.6ZM560.6,187.3L563.6,187.3L563.6,188.1L560.6,188.1L560.6,187.3ZM564.5,187.4L568.0,187.4L568.0,188.3L564.5,188.3L564.5,187.4ZM562.0,184.5L562.8,184.5L562.8,187.8L562.0,187.8L562.0,184.5ZM560.6,189.4L563.1,189.4L563.1,193.8L562.2,193.8L562.2,190.3L560.6,190.3L560.6,189.4ZM560.2,184.8L561.1,184.8L561.1,188.7Q561.1,189.4,561.0,190.1Q561.0,190.8,560.9,191.4Q560.8,192.1,560.6,192.7Q560.4,193.4,560.1,193.9Q560.1,193.8,560.0,193.7Q559.8,193.6,559.7,193.5Q559.6,193.4,559.5,193.3Q559.7,192.8,559.9,192.3Q560.0,191.7,560.1,191.1Q560.1,190.5,560.2,189.9Q560.2,189.3,560.2,188.7L560.2,184.8ZM567.7,187.4L567.9,187.4L568.0,187.4L568.6,187.5Q568.4,189.2,567.9,190.4Q567.4,191.6,566.7,192.5Q565.9,193.4,565.0,193.9Q564.9,193.8,564.8,193.6Q564.7,193.5,564.6,193.3Q564.5,193.2,564.4,193.1Q565.2,192.7,565.9,191.9Q566.6,191.2,567.1,190.1Q567.5,189.0,567.7,187.6L567.7,187.4ZM565.7,188.0Q565.9,189.1,566.3,190.1Q566.7,191.1,567.4,191.9Q568.0,192.7,568.9,193.1Q568.8,193.2,568.6,193.3Q568.5,193.5,568.4,193.6Q568.3,193.7,568.2,193.9Q567.3,193.3,566.7,192.5Q566.0,191.6,565.6,190.5Q565.2,189.4,564.9,188.1L565.7,188.0ZM568.2,184.6L568.7,185.4Q568.1,185.6,567.4,185.7Q566.6,185.8,565.8,185.9Q565,186.0,564.2,186.0Q564.2,185.8,564.2,185.6Q564.1,185.4,564.0,185.2Q564.7,185.1,565.5,185.1Q566.3,185.0,567.0,184.9Q567.7,184.8,568.2,184.6ZM564.0,185.2L564.9,185.2L564.9,188.6Q564.9,189.3,564.9,190.0Q564.8,190.7,564.7,191.4Q564.6,192.1,564.4,192.7Q564.2,193.4,563.9,193.9Q563.8,193.8,563.7,193.7Q563.6,193.6,563.4,193.5Q563.3,193.4,563.2,193.4Q563.4,192.9,563.6,192.3Q563.8,191.7,563.9,191.1Q564.0,190.4,564.0,189.8Q564.0,189.2,564.0,188.6L564.0,185.2ZM569.8,185.1L578.6,185.1L578.6,185.9L569.8,185.9L569.8,185.1ZM573.8,185.4L574.8,185.4L574.8,189.4Q574.8,190.0,574.7,190.5Q574.6,191.1,574.3,191.6Q574.0,192.1,573.5,192.5Q573.0,192.9,572.2,193.3Q571.4,193.6,570.2,193.8Q570.2,193.7,570.1,193.6Q570.0,193.4,569.8,193.3Q569.7,193.1,569.6,193.0Q570.8,192.8,571.5,192.5Q572.3,192.3,572.7,191.9Q573.2,191.6,573.4,191.2Q573.6,190.8,573.7,190.3Q573.8,189.8,573.8,189.4L573.8,185.4ZM571.6,189.0L571.6,189.9L577.0,189.9L577.0,189.0L571.6,189.0ZM571.6,187.4L571.6,188.3L577.0,188.3L577.0,187.4L571.6,187.4ZM570.7,186.6L578.0,186.6L578.0,190.6L570.7,190.6L570.7,186.6ZM571.8,190.7Q572.3,191.4,573.0,191.8Q573.7,192.2,574.5,192.4Q575.4,192.7,576.5,192.7Q577.6,192.8,578.9,192.8Q578.8,193.0,578.7,193.3Q578.6,193.5,578.5,193.8Q577.2,193.7,576.0,193.6Q574.9,193.5,573.9,193.2Q573.0,192.9,572.2,192.4Q571.5,191.8,571.0,191.0L571.8,190.7ZM585.1,187.9L588.8,187.9L588.8,188.8L585.1,188.8L585.1,187.9ZM579.8,185.6L584.2,185.6L584.2,186.4L579.8,186.4L579.8,185.6ZM579.7,189.6L584.3,189.6L584.3,190.4L579.7,190.4L579.7,189.6ZM579.6,187.8L584.4,187.8L584.4,188.6L579.6,188.6L579.6,187.8ZM586.9,188.3L587.8,188.3L587.8,193.8L586.9,193.8L586.9,188.3ZM580.4,186.6L581.1,186.4Q581.3,186.7,581.4,187.1Q581.5,187.4,581.5,187.7L580.7,187.9Q580.7,187.6,580.6,187.3Q580.5,186.9,580.4,186.6ZM582.9,186.4L583.7,186.5Q583.6,187.0,583.4,187.4Q583.2,187.8,583.1,188.1L582.3,188.0Q582.4,187.7,582.5,187.5Q582.6,187.2,582.7,186.9Q582.8,186.6,582.9,186.4ZM587.8,184.7L588.5,185.4Q588.0,185.6,587.5,185.7Q586.8,185.9,586.2,186.0Q585.6,186.1,585.0,186.2Q585.0,186.1,584.9,185.9Q584.8,185.7,584.7,185.5Q585.3,185.4,585.8,185.3Q586.4,185.2,586.9,185.0Q587.4,184.9,587.8,184.7ZM581.3,184.7L582.1,184.5Q582.3,184.8,582.4,185.2Q582.6,185.6,582.7,185.8L581.8,186.1Q581.7,185.8,581.6,185.4Q581.4,185.0,581.3,184.7ZM581.6,188.3L582.5,188.3L582.5,192.7Q582.5,193.1,582.4,193.2Q582.3,193.4,582.1,193.5Q581.9,193.6,581.7,193.6Q581.4,193.6,581.0,193.6Q581.0,193.5,580.9,193.3Q580.8,193.0,580.7,192.9Q581.0,192.9,581.2,192.9Q581.4,192.9,581.5,192.9Q581.6,192.9,581.6,192.7L581.6,188.3ZM584.7,185.5L585.6,185.5L585.6,189.0Q585.6,189.5,585.6,190.2Q585.5,190.8,585.4,191.4Q585.3,192.1,585.1,192.7Q584.9,193.3,584.6,193.7Q584.5,193.6,584.4,193.5Q584.2,193.4,584.1,193.3Q583.9,193.2,583.8,193.2Q584.2,192.6,584.4,191.9Q584.6,191.1,584.7,190.4Q584.7,189.7,584.7,189.0L584.7,185.5ZM582.8,191.0L583.4,190.6Q583.6,191.0,583.9,191.4Q584.1,191.8,584.2,192.1L583.6,192.5Q583.5,192.2,583.2,191.8Q583.0,191.3,582.8,191.0ZM580.5,190.7L581.2,190.9Q581.0,191.4,580.8,191.9Q580.5,192.4,580.2,192.7Q580.1,192.7,579.9,192.5Q579.7,192.4,579.5,192.3Q579.8,192.0,580.1,191.6Q580.3,191.1,580.5,190.7Z" fill="#FFFFFF" fill-opacity="0.2"/></g></g></svg>