<svg xmlns="http://www.w3.org/2000/svg" xmlns:xlink="http://www.w3.org/1999/xlink" fill="none" version="1.1" width="160" height="160" viewBox="0 0 160 160"><path d="M80,14.545454C43.850468,14.545454,14.545454,43.850468,14.545454,80C14.545454,116.14981,43.850468,145.45453,80,145.45453C116.14981,145.45453,145.45453,116.14981,145.45453,80C145.45453,43.850468,116.14981,14.545454,80,14.545454C80,14.545454,80,14.545454,80,14.545454ZM0,80C0,35.817234,35.817234,0,80,0C124.18254,0,160,35.817234,160,80C160,124.18254,124.18254,160,80,160C35.817234,160,0,124.18254,0,80C0,80,0,80,0,80ZM115.9789,44.021015C117.92654,45.968945,118.60727,48.850105,117.73598,51.463486C117.73598,51.463486,102.31781,97.717812,102.31781,97.717812C101.59345,99.889458,99.889458,101.59345,97.717812,102.31781C97.717812,102.31781,51.463486,117.73598,51.463486,117.73598C48.850105,118.60727,45.968945,117.92654,44.021015,115.9789C42.073162,114.03127,41.393017,111.14981,42.264145,108.53673C42.264145,108.53673,57.682323,62.281963,57.682323,62.281963C58.406181,60.110321,60.110321,58.406181,62.281963,57.682323C62.281963,57.682323,108.53673,42.264145,108.53673,42.264145C111.14981,41.393017,114.03127,42.073162,115.9789,44.021015C115.9789,44.021015,115.9789,44.021015,115.9789,44.021015ZM70.331421,70.331421C70.331421,70.331421,60.66283,99.337448,60.66283,99.337448C60.66283,99.337448,89.668358,89.668358,89.668358,89.668358C89.668358,89.668358,99.337448,60.66283,99.337448,60.66283C99.337448,60.66283,70.331421,70.331421,70.331421,70.331421C70.331421,70.331421,70.331421,70.331421,70.331421,70.331421Z" fill-rule="evenodd" fill="#399FFF" fill-opacity="1"/></svg>