<svg xmlns="http://www.w3.org/2000/svg" xmlns:xlink="http://www.w3.org/1999/xlink" fill="none" version="1.1" width="160" height="160" viewBox="0 0 160 160"><defs><clipPath id="master_svg0_96_219"><rect x="0" y="0" width="160" height="160" rx="0"/></clipPath></defs><g clip-path="url(#master_svg0_96_219)"><g><path d="M79.9999259765625,19.9999259765625C46.8629259765625,19.9999259765625,19.9999259765625,46.8629259765625,19.9999259765625,79.9999259765625C19.9999259765625,113.1376259765625,46.8629259765625,139.9996259765625,79.9999259765625,139.9996259765625C113.1376259765625,139.9996259765625,139.9996259765625,113.1376259765625,139.9996259765625,79.9999259765625C139.9996259765625,46.8629259765625,113.1376259765625,19.9999259765625,79.9999259765625,19.9999259765625C79.9999259765625,19.9999259765625,79.9999259765625,19.9999259765625,79.9999259765625,19.9999259765625ZM6.6666259765625,79.9999259765625C6.6666259765625,39.4991259765625,39.4991259765625,6.6666259765625,79.9999259765625,6.6666259765625C120.5006259765625,6.6666259765625,153.3336259765625,39.4991259765625,153.3336259765625,79.9999259765625C153.3336259765625,120.5006259765625,120.5006259765625,153.3336259765625,79.9999259765625,153.3336259765625C39.4991259765625,153.3336259765625,6.6666259765625,120.5006259765625,6.6666259765625,79.9999259765625C6.6666259765625,79.9999259765625,6.6666259765625,79.9999259765625,6.6666259765625,79.9999259765625ZM112.9806259765625,47.0192259765625C114.7656259765625,48.8048259765625,115.3896259765625,51.4459259765625,114.5916259765625,53.8415259765625C114.5916259765625,53.8415259765625,100.4579259765625,96.2413259765625,100.4579259765625,96.2413259765625C99.7939259765625,98.2319259765625,98.2319259765625,99.7939259765625,96.2413259765625,100.4579259765625C96.2413259765625,100.4579259765625,53.8415259765625,114.5916259765625,53.8415259765625,114.5916259765625C51.4459259765625,115.3896259765625,48.8048259765625,114.7656259765625,47.0192259765625,112.9806259765625C45.2337259765625,111.1956259765625,44.6102259765625,108.5536259765625,45.4087259765625,106.1586259765625C45.4087259765625,106.1586259765625,59.5421259765625,63.7584259765625,59.5421259765625,63.7584259765625C60.2056259765625,61.7677259765625,61.7677259765625,60.2056259765625,63.7584259765625,59.5421259765625C63.7584259765625,59.5421259765625,106.1586259765625,45.4087259765625,106.1586259765625,45.4087259765625C108.5536259765625,44.6102259765625,111.1956259765625,45.2337259765625,112.9806259765625,47.0192259765625C112.9806259765625,47.0192259765625,112.9806259765625,47.0192259765625,112.9806259765625,47.0192259765625ZM71.1371259765625,71.1371259765625C71.1371259765625,71.1371259765625,62.2742259765625,97.7259259765625,62.2742259765625,97.7259259765625C62.2742259765625,97.7259259765625,88.8626259765625,88.8626259765625,88.8626259765625,88.8626259765625C88.8626259765625,88.8626259765625,97.7259259765625,62.2742259765625,97.7259259765625,62.2742259765625C97.7259259765625,62.2742259765625,71.1371259765625,71.1371259765625,71.1371259765625,71.1371259765625C71.1371259765625,71.1371259765625,71.1371259765625,71.1371259765625,71.1371259765625,71.1371259765625Z" fill-rule="evenodd" fill="#399FFF" fill-opacity="1"/></g></g></svg>