<svg xmlns="http://www.w3.org/2000/svg" xmlns:xlink="http://www.w3.org/1999/xlink" fill="none" version="1.1" width="32" height="32" viewBox="0 0 32 32"><defs><clipPath id="master_svg0_19_063"><rect x="0" y="0" width="32" height="32" rx="0"/></clipPath></defs><g clip-path="url(#master_svg0_19_063)"><g transform="matrix(0.7071067690849304,-0.7071068286895752,0.7071068286895752,0.7071067690849304,-9.869844857603312,19.828339801169932)"><rect x="19" y="21.828125" width="4" height="15" rx="2" fill="#5CA1FF" fill-opacity="1"/></g><g><path d="M12.5,25Q12.8069,25,13.1133,24.9849Q13.4198,24.9699,13.7252,24.9398Q14.0306,24.9097,14.3341,24.8647Q14.6377,24.8197,14.9386,24.7598Q15.2396,24.6999,15.5373,24.6254Q15.8349,24.5508,16.1286,24.4618Q16.4222,24.3727,16.7111,24.2693Q17,24.1659,17.2835,24.0485Q17.567,23.9311,17.8444,23.7999Q18.1218,23.6687,18.3925,23.524Q18.6631,23.3794,18.9263,23.2216Q19.1895,23.0638,19.4446,22.8934Q19.6998,22.7229,19.9462,22.5401Q20.1927,22.3573,20.4299,22.1626Q20.6671,21.968,20.8945,21.7619Q21.1219,21.5558,21.3388,21.3388Q21.5558,21.1219,21.7619,20.8945Q21.968,20.6671,22.1626,20.4299Q22.3573,20.1927,22.5401,19.9462Q22.7229,19.6998,22.8934,19.4446Q23.0638,19.1895,23.2216,18.9263Q23.3794,18.6631,23.524,18.3925Q23.6687,18.1218,23.7999,17.8444Q23.9311,17.567,24.0485,17.2835Q24.1659,17,24.2693,16.7111Q24.3727,16.4222,24.4618,16.1286Q24.5508,15.8349,24.6254,15.5373Q24.6999,15.2396,24.7598,14.9386Q24.8197,14.6377,24.8647,14.3341Q24.9097,14.0306,24.9398,13.7252Q24.9699,13.4198,24.9849,13.1133Q25,12.8069,25,12.5Q25,12.1931,24.9849,11.8867Q24.9699,11.5802,24.9398,11.2748Q24.9097,10.9694,24.8647,10.6659Q24.8197,10.3623,24.7598,10.0614Q24.6999,9.76041,24.6254,9.46275Q24.5508,9.16509,24.4618,8.87144Q24.3727,8.5778,24.2693,8.28888Q24.1659,7.99996,24.0485,7.71646Q23.9311,7.43296,23.7999,7.15556Q23.6687,6.87816,23.524,6.60754Q23.3794,6.33692,23.2216,6.07372Q23.0638,5.81051,22.8934,5.55537Q22.7229,5.30023,22.5401,5.05376Q22.3573,4.80729,22.1626,4.57008Q21.968,4.33288,21.7619,4.10551Q21.5558,3.87815,21.3388,3.66116Q21.1219,3.44418,20.8945,3.23811Q20.6671,3.03204,20.4299,2.83737Q20.1927,2.6427,19.9462,2.45991Q19.6998,2.27711,19.4446,2.10663Q19.1895,1.93615,18.9263,1.77839Q18.6631,1.62064,18.3925,1.47598Q18.1218,1.33133,17.8444,1.20013Q17.567,1.06894,17.2835,0.951506Q17,0.834076,16.7111,0.730699Q16.4222,0.627322,16.1286,0.538246Q15.8349,0.44917,15.5373,0.374609Q15.2396,0.300049,14.9386,0.240184Q14.6377,0.180319,14.3341,0.135294Q14.0306,0.0902682,13.7252,0.0601909Q13.4198,0.0301136,13.1133,0.0150568Q12.8069,0,12.5,0Q12.1931,0,11.8867,0.0150568Q11.5802,0.0301136,11.2748,0.0601909Q10.9694,0.0902682,10.6659,0.135294Q10.3623,0.180319,10.0614,0.240184Q9.76041,0.300049,9.46275,0.374609Q9.16509,0.44917,8.87144,0.538246Q8.5778,0.627322,8.28888,0.730699Q7.99996,0.834076,7.71646,0.951506Q7.43296,1.06894,7.15556,1.20013Q6.87816,1.33133,6.60754,1.47598Q6.33692,1.62064,6.07372,1.77839Q5.81051,1.93615,5.55537,2.10663Q5.30023,2.27711,5.05376,2.45991Q4.80729,2.6427,4.57008,2.83737Q4.33288,3.03204,4.10551,3.23811Q3.87815,3.44418,3.66116,3.66116Q3.44418,3.87815,3.23811,4.10551Q3.03204,4.33288,2.83737,4.57008Q2.6427,4.80729,2.45991,5.05376Q2.27711,5.30023,2.10663,5.55537Q1.93615,5.81051,1.77839,6.07371Q1.62064,6.33692,1.47598,6.60754Q1.33133,6.87816,1.20013,7.15556Q1.06894,7.43296,0.951506,7.71646Q0.834076,7.99996,0.730699,8.28887Q0.627322,8.5778,0.538246,8.87144Q0.44917,9.16508,0.374609,9.46275Q0.300049,9.76041,0.240184,10.0614Q0.180319,10.3623,0.135294,10.6659Q0.0902682,10.9694,0.0601909,11.2748Q0.0301136,11.5802,0.0150568,11.8867Q0,12.1931,0,12.5Q0,12.8069,0.0150568,13.1133Q0.0301136,13.4198,0.0601909,13.7252Q0.0902682,14.0306,0.135294,14.3341Q0.180319,14.6377,0.240184,14.9386Q0.300049,15.2396,0.374609,15.5373Q0.44917,15.8349,0.538246,16.1286Q0.627322,16.4222,0.730699,16.7111Q0.834076,17,0.951506,17.2835Q1.06894,17.567,1.20013,17.8444Q1.33133,18.1218,1.47598,18.3925Q1.62064,18.6631,1.77839,18.9263Q1.93615,19.1895,2.10663,19.4446Q2.27711,19.6998,2.45991,19.9462Q2.6427,20.1927,2.83737,20.4299Q3.03204,20.6671,3.23811,20.8945Q3.44418,21.1219,3.66116,21.3388Q3.87815,21.5558,4.10551,21.7619Q4.33288,21.968,4.57008,22.1626Q4.80729,22.3573,5.05376,22.5401Q5.30023,22.7229,5.55537,22.8934Q5.81051,23.0638,6.07371,23.2216Q6.33692,23.3794,6.60754,23.524Q6.87816,23.6687,7.15556,23.7999Q7.43296,23.9311,7.71646,24.0485Q7.99996,24.1659,8.28887,24.2693Q8.5778,24.3727,8.87144,24.4618Q9.16508,24.5508,9.46275,24.6254Q9.76041,24.6999,10.0614,24.7598Q10.3623,24.8197,10.6659,24.8647Q10.9694,24.9097,11.2748,24.9398Q11.5802,24.9699,11.8867,24.9849Q12.1931,25,12.5,25ZM12.5,21Q12.7087,21,12.9171,20.9898Q13.1255,20.9795,13.3331,20.9591Q13.5408,20.9386,13.7472,20.908Q13.9536,20.8774,14.1583,20.8367Q14.3629,20.796,14.5653,20.7453Q14.7677,20.6946,14.9674,20.634Q15.1671,20.5734,15.3636,20.5031Q15.56,20.4328,15.7528,20.353Q15.9456,20.2731,16.1342,20.1839Q16.3228,20.0947,16.5069,19.9963Q16.6909,19.898,16.8699,19.7907Q17.0488,19.6834,17.2223,19.5675Q17.3958,19.4516,17.5634,19.3273Q17.731,19.203,17.8923,19.0706Q18.0536,18.9382,18.2083,18.7981Q18.3629,18.658,18.5104,18.5104Q18.658,18.3629,18.7981,18.2083Q18.9382,18.0536,19.0706,17.8923Q19.203,17.731,19.3273,17.5634Q19.4516,17.3958,19.5675,17.2223Q19.6834,17.0488,19.7907,16.8699Q19.898,16.6909,19.9963,16.5069Q20.0947,16.3228,20.1839,16.1342Q20.2731,15.9456,20.353,15.7528Q20.4328,15.56,20.5031,15.3636Q20.5734,15.1671,20.634,14.9674Q20.6946,14.7677,20.7453,14.5653Q20.796,14.3629,20.8367,14.1583Q20.8774,13.9536,20.908,13.7472Q20.9386,13.5408,20.9591,13.3331Q20.9795,13.1255,20.9898,12.9171Q21,12.7087,21,12.5Q21,12.2913,20.9898,12.0829Q20.9795,11.8745,20.9591,11.6669Q20.9386,11.4592,20.908,11.2528Q20.8774,11.0464,20.8367,10.8417Q20.796,10.6371,20.7453,10.4347Q20.6946,10.2323,20.634,10.0326Q20.5734,9.8329,20.5031,9.63644Q20.4328,9.43997,20.353,9.24719Q20.2731,9.05441,20.1839,8.86578Q20.0947,8.67715,19.9963,8.49313Q19.898,8.3091,19.7907,8.13013Q19.6834,7.95115,19.5675,7.77765Q19.4516,7.60416,19.3273,7.43656Q19.203,7.26896,19.0706,7.10766Q18.9382,6.94636,18.7981,6.79175Q18.658,6.63714,18.5104,6.48959Q18.3629,6.34204,18.2083,6.20192Q18.0536,6.06179,17.8923,5.92941Q17.731,5.79704,17.5634,5.67274Q17.3958,5.54844,17.2223,5.43251Q17.0488,5.31658,16.8699,5.20931Q16.6909,5.10203,16.5069,5.00367Q16.3228,4.90531,16.1342,4.81609Q15.9456,4.72688,15.7528,4.64702Q15.56,4.56717,15.3636,4.49688Q15.1671,4.42658,14.9674,4.36601Q14.7677,4.30544,14.5653,4.25473Q14.3629,4.20403,14.1583,4.16332Q13.9536,4.12262,13.7472,4.092Q13.5408,4.06138,13.3331,4.04093Q13.1255,4.02048,12.9171,4.01024Q12.7087,4,12.5,4Q12.2913,4,12.0829,4.01024Q11.8745,4.02048,11.6669,4.04093Q11.4592,4.06138,11.2528,4.092Q11.0464,4.12262,10.8417,4.16333Q10.6371,4.20403,10.4347,4.25473Q10.2323,4.30544,10.0326,4.36601Q9.8329,4.42658,9.63644,4.49688Q9.43997,4.56717,9.24719,4.64702Q9.05441,4.72688,8.86578,4.81609Q8.67715,4.90531,8.49313,5.00367Q8.3091,5.10203,8.13013,5.20931Q7.95115,5.31658,7.77765,5.43251Q7.60416,5.54844,7.43656,5.67274Q7.26896,5.79704,7.10766,5.92941Q6.94636,6.06179,6.79175,6.20191Q6.63714,6.34204,6.48959,6.48959Q6.34204,6.63714,6.20192,6.79175Q6.06179,6.94636,5.92941,7.10766Q5.79704,7.26896,5.67274,7.43656Q5.54844,7.60416,5.43251,7.77765Q5.31658,7.95115,5.20931,8.13013Q5.10203,8.3091,5.00367,8.49313Q4.90531,8.67715,4.81609,8.86578Q4.72688,9.05441,4.64702,9.24719Q4.56717,9.43997,4.49688,9.63644Q4.42658,9.8329,4.36601,10.0326Q4.30544,10.2323,4.25473,10.4347Q4.20403,10.6371,4.16332,10.8417Q4.12262,11.0464,4.092,11.2528Q4.06138,11.4592,4.04093,11.6669Q4.02048,11.8745,4.01024,12.0829Q4,12.2913,4,12.5Q4,12.7087,4.01024,12.9171Q4.02048,13.1255,4.04093,13.3331Q4.06138,13.5408,4.092,13.7472Q4.12262,13.9536,4.16332,14.1583Q4.20403,14.3629,4.25473,14.5653Q4.30544,14.7677,4.36601,14.9674Q4.42658,15.1671,4.49688,15.3636Q4.56717,15.56,4.64702,15.7528Q4.72688,15.9456,4.81609,16.1342Q4.90531,16.3228,5.00367,16.5069Q5.10203,16.6909,5.20931,16.8699Q5.31658,17.0488,5.43251,17.2223Q5.54844,17.3958,5.67274,17.5634Q5.79704,17.731,5.92941,17.8923Q6.06179,18.0536,6.20191,18.2083Q6.34204,18.3629,6.48959,18.5104Q6.63714,18.658,6.79175,18.7981Q6.94636,18.9382,7.10766,19.0706Q7.26896,19.203,7.43656,19.3273Q7.60416,19.4516,7.77765,19.5675Q7.95115,19.6834,8.13013,19.7907Q8.3091,19.898,8.49313,19.9963Q8.67715,20.0947,8.86578,20.1839Q9.05441,20.2731,9.24719,20.353Q9.43997,20.4328,9.63644,20.5031Q9.8329,20.5734,10.0326,20.634Q10.2323,20.6946,10.4347,20.7453Q10.6371,20.796,10.8417,20.8367Q11.0464,20.8774,11.2528,20.908Q11.4592,20.9386,11.6669,20.9591Q11.8745,20.9795,12.0829,20.9898Q12.2913,21,12.5,21Z" fill-rule="evenodd" fill="#5CA1FF" fill-opacity="1"/></g></g></svg>