<svg xmlns="http://www.w3.org/2000/svg" xmlns:xlink="http://www.w3.org/1999/xlink" fill="none" version="1.1" width="160" height="160" viewBox="0 0 160 160"><g><path d="M0,32L0,128Q0,128.78555,0.038545396,129.57016Q0.077090792,130.35477,0.15408874,131.13654Q0.23108667,131.9183,0.34635162,132.69536Q0.46161661,133.47241,0.61487097,134.24287Q0.7681253,135.01334,0.95899975,135.77534Q1.1498743,136.53735,1.3779092,137.28909Q1.6059439,138.04082,1.8705897,138.78046Q2.1352355,139.52008,2.4358547,140.24585Q2.7364738,140.9716,3.0723422,141.68173Q3.4082105,142.39188,3.7785192,143.08469Q4.1488276,143.77748,4.5526838,144.45128Q4.9565401,145.12506,5.392972,145.77823Q5.8294034,146.4314,6.2973585,147.06236Q6.7653136,147.69333,7.2636652,148.30058Q7.7620163,148.90784,8.2895632,149.48988Q8.8171101,150.07195,9.3725824,150.62741Q9.9280548,151.18289,10.510114,151.71043Q11.092173,152.23799,11.699415,152.73634Q12.306658,153.23468,12.937622,153.70264Q13.568586,154.17059,14.221752,154.60703Q14.874918,155.04346,15.548711,155.44731Q16.222504,155.85117,16.915302,156.22148Q17.608101,156.5918,18.318233,156.92767Q19.028368,157.26352,19.754128,157.56413Q20.479885,157.86475,21.219521,158.12939Q21.959158,158.39404,22.71089,158.6221Q23.46262,158.85013,24.224632,159.04099Q24.986647,159.23187,25.757109,159.38513Q26.527569,159.53839,27.304623,159.65366Q28.081676,159.76892,28.863453,159.84592Q29.645226,159.92291,30.429836,159.96146Q31.214443,160,32,160L128,160Q128.78555,160,129.57016,159.96146Q130.35477,159.92291,131.13654,159.84592Q131.9183,159.76892,132.69536,159.65366Q133.47241,159.53839,134.24287,159.38513Q135.01334,159.23187,135.77534,159.04099Q136.53735,158.85011,137.28909,158.62209Q138.04082,158.39404,138.78046,158.12939Q139.52008,157.86475,140.24585,157.56413Q140.9716,157.26352,141.68173,156.92766Q142.39188,156.5918,143.08469,156.22148Q143.77748,155.85117,144.45128,155.44731Q145.12506,155.04346,145.77823,154.60703Q146.4314,154.17059,147.06236,153.70264Q147.69333,153.23468,148.30058,152.73634Q148.90784,152.23799,149.48988,151.71045Q150.07195,151.18289,150.62741,150.62741Q151.18289,150.07195,151.71043,149.48988Q152.23799,148.90784,152.73634,148.30058Q153.23468,147.69333,153.70264,147.06236Q154.17059,146.4314,154.60703,145.77823Q155.04346,145.12506,155.44731,144.45126Q155.85117,143.77748,156.22148,143.08469Q156.5918,142.39188,156.92767,141.68175Q157.26352,140.9716,157.56413,140.24585Q157.86475,139.52008,158.12939,138.78046Q158.39404,138.04082,158.6221,137.28909Q158.85013,136.53735,159.04099,135.77534Q159.23187,135.01334,159.38513,134.24286Q159.53839,133.47241,159.65366,132.69536Q159.76892,131.9183,159.84592,131.13654Q159.92291,130.35477,159.96147,129.57016Q160,128.78555,160,128L160,32Q160,31.214443,159.96147,30.429834Q159.92291,29.645226,159.84592,28.863453Q159.76892,28.081676,159.65366,27.304623Q159.53839,26.527569,159.38513,25.757109Q159.23187,24.986647,159.04099,24.224632Q158.85011,23.46262,158.62209,22.71089Q158.39404,21.959158,158.12939,21.219522Q157.86475,20.479885,157.56413,19.754128Q157.26352,19.028368,156.92766,18.318233Q156.5918,17.608101,156.22148,16.915302Q155.85117,16.222504,155.44731,15.548711Q155.04346,14.874917,154.60703,14.221751Q154.17059,13.568585,153.70264,12.937622Q153.23468,12.306658,152.73634,11.699415Q152.23799,11.092173,151.71045,10.510114Q151.18289,9.9280548,150.62741,9.3725824Q150.07195,8.8171101,149.48988,8.2895641Q148.90784,7.7620168,148.30058,7.2636657Q147.69333,6.7653141,147.06236,6.2973585Q146.4314,5.8294034,145.77823,5.392972Q145.12506,4.9565401,144.45126,4.5526838Q143.77748,4.1488276,143.08469,3.7785194Q142.39188,3.4082108,141.68175,3.0723422Q140.9716,2.7364738,140.24585,2.4358547Q139.52008,2.1352355,138.78046,1.8705897Q138.04082,1.6059439,137.28909,1.3779092Q136.53735,1.1498743,135.77534,0.95899981Q135.01334,0.7681253,134.24286,0.61487097Q133.47241,0.46161661,132.69536,0.34635165Q131.9183,0.23108667,131.13654,0.15408874Q130.35477,0.077090792,129.57016,0.038545396Q128.78555,0,128,0L32,0Q31.214443,0,30.429834,0.038545396Q29.645226,0.077090792,28.863453,0.15408874Q28.081676,0.23108667,27.304623,0.34635162Q26.527569,0.46161661,25.757109,0.61487097Q24.986647,0.7681253,24.224632,0.95899975Q23.46262,1.1498743,22.71089,1.3779092Q21.959158,1.6059439,21.219522,1.8705897Q20.479885,2.1352355,19.754128,2.4358547Q19.028368,2.7364738,18.318233,3.0723422Q17.608101,3.4082105,16.915302,3.7785192Q16.222504,4.1488276,15.548711,4.5526838Q14.874917,4.9565401,14.221751,5.392972Q13.568585,5.8294034,12.937622,6.2973585Q12.306658,6.7653136,11.699415,7.2636652Q11.092173,7.7620163,10.510114,8.2895632Q9.9280548,8.8171101,9.3725824,9.3725824Q8.8171101,9.9280548,8.2895641,10.510114Q7.7620168,11.092173,7.2636657,11.699415Q6.7653141,12.306658,6.2973585,12.937622Q5.8294034,13.568586,5.392972,14.221752Q4.9565401,14.874918,4.5526838,15.548711Q4.1488276,16.222504,3.7785194,16.915302Q3.4082108,17.608101,3.0723422,18.318233Q2.7364738,19.028368,2.4358547,19.754128Q2.1352355,20.479885,1.8705897,21.219521Q1.6059439,21.959158,1.3779092,22.71089Q1.1498743,23.46262,0.95899981,24.224632Q0.7681253,24.986647,0.61487097,25.757109Q0.46161661,26.527569,0.34635165,27.304623Q0.23108667,28.081676,0.15408874,28.863453Q0.077090792,29.645226,0.038545396,30.429836Q0,31.214443,0,32ZM15,31.999939L15,127.99994Q15,128.41727,15.020477,128.83409Q15.040955,129.25092,15.08186,129.66623Q15.122765,130.08154,15.183998,130.49435Q15.245233,130.90717,15.326649,131.31647Q15.408066,131.72577,15.509467,132.1306Q15.610869,132.53543,15.732013,132.93478Q15.853155,133.33414,15.993748,133.72707Q16.13434,134.12,16.294044,134.50555Q16.453749,134.89111,16.632179,135.26837Q16.810608,135.64563,17.007336,136.01369Q17.204062,136.38173,17.41861,136.73969Q17.63316,137.09763,17.865013,137.44463Q18.096867,137.79163,18.345469,138.12683Q18.59407,138.46202,18.85882,138.78462Q19.123569,139.10721,19.403828,139.41644Q19.684088,139.72565,19.979183,140.02075Q20.274277,140.31584,20.583496,140.5961Q20.892715,140.87636,21.215313,141.14111Q21.53791,141.40585,21.87311,141.65446Q22.208309,141.90306,22.555302,142.13492Q22.902296,142.36676,23.26025,142.58133Q23.618202,142.79587,23.986254,142.9926Q24.354301,143.18933,24.731562,143.36775Q25.10882,143.54617,25.494379,143.70589Q25.87994,143.8656,26.272869,144.0062Q26.665802,144.14679,27.065159,144.26794Q27.464516,144.38907,27.869333,144.49048Q28.274155,144.59187,28.683462,144.67329Q29.09277,144.7547,29.505581,144.81595Q29.918392,144.87718,30.33371,144.91809Q30.749027,144.95898,31.165852,144.97946Q31.582672,144.99994,32,144.99994L128,144.99994Q128.41733,144.99994,128.83415,144.97946Q129.25098,144.95898,129.66629,144.91809Q130.0816,144.87718,130.49442,144.81595Q130.90723,144.7547,131.31653,144.67329Q131.72583,144.59187,132.13066,144.49048Q132.53549,144.38907,132.93484,144.26793Q133.3342,144.14677,133.72713,144.00618Q134.12006,143.86557,134.50562,143.70587Q134.89117,143.54617,135.26843,143.36774Q135.64569,143.1893,136.01375,142.99258Q136.38179,142.79587,136.73975,142.58131Q137.09769,142.36676,137.44469,142.13492Q137.79169,141.90306,138.12689,141.65445Q138.46208,141.40585,138.78468,141.14111Q139.10727,140.87636,139.4165,140.5961Q139.72571,140.31584,140.02081,140.02075Q140.3159,139.72565,140.59616,139.41644Q140.87642,139.10721,141.14117,138.78462Q141.40591,138.46202,141.65453,138.12682Q141.90312,137.79163,142.13498,137.44463Q142.36682,137.09763,142.58138,136.73969Q142.79593,136.38173,142.99265,136.01369Q143.18936,135.64563,143.3678,135.26837Q143.54623,134.89111,143.70593,134.50555Q143.86563,134.12,144.00624,133.72707Q144.14682,133.33414,144.26797,132.93478Q144.3891,132.53543,144.49051,132.1306Q144.59192,131.72577,144.67334,131.31647Q144.75476,130.90717,144.81599,130.49435Q144.87723,130.08154,144.91815,129.66623Q144.95905,129.25092,144.97952,128.83409Q145,128.41727,145,127.99994L145,31.999939Q145,31.582611,144.97952,31.165789Q144.95905,30.748964,144.91815,30.333647Q144.87723,29.918327,144.81599,29.505518Q144.75476,29.092707,144.67334,28.683399Q144.59192,28.274092,144.49051,27.869272Q144.3891,27.464453,144.26797,27.065096Q144.14682,26.665739,144.00624,26.272808Q143.86563,25.879875,143.70593,25.494316Q143.54623,25.108757,143.3678,24.731499Q143.18936,24.354239,142.99265,23.986191Q142.79593,23.618141,142.58136,23.260189Q142.36682,22.902235,142.13496,22.555241Q141.90311,22.208248,141.65451,21.873049Q141.40591,21.537849,141.14117,21.215252Q140.8764,20.892654,140.59615,20.583435Q140.31589,20.274216,140.0208,19.979122Q139.72571,19.684027,139.41649,19.403767Q139.10727,19.123508,138.78467,18.858761Q138.46207,18.594009,138.12686,18.345409Q137.79167,18.096806,137.44467,17.864952Q137.09769,17.633099,136.73973,17.41855Q136.38177,17.204002,136.01373,17.007277Q135.64568,16.810551,135.26842,16.63212Q134.89116,16.45369,134.5056,16.293985Q134.12006,16.134281,133.72713,15.993689Q133.3342,15.853096,132.93484,15.731953Q132.53549,15.610809,132.13066,15.509407Q131.72583,15.408005,131.31653,15.326589Q130.90723,15.245173,130.49442,15.183939Q130.0816,15.122705,129.66629,15.0818Q129.25098,15.040894,128.83415,15.020416Q128.41733,14.999939,128,14.999939L32,14.999939Q31.582672,14.999939,31.16585,15.020416Q30.749027,15.040894,30.333712,15.0818Q29.918392,15.122705,29.505581,15.183938Q29.092772,15.245173,28.683464,15.326589Q28.274157,15.408005,27.869337,15.509407Q27.46452,15.610809,27.065163,15.731953Q26.665806,15.853096,26.272873,15.993689Q25.87994,16.134281,25.494381,16.293985Q25.108822,16.45369,24.731562,16.63212Q24.354303,16.810551,23.986256,17.007277Q23.618206,17.204002,23.260254,17.41855Q22.9023,17.633099,22.555305,17.864954Q22.208311,18.096807,21.873112,18.345409Q21.537912,18.594009,21.215315,18.858761Q20.892715,19.123508,20.583496,19.403767Q20.274277,19.684027,19.979183,19.979122Q19.684088,20.274216,19.403828,20.583435Q19.123569,20.892654,18.858822,21.215252Q18.59407,21.537849,18.34547,21.873049Q18.096867,22.208248,17.865013,22.555241Q17.63316,22.902235,17.41861,23.260189Q17.204062,23.618141,17.007336,23.986191Q16.810608,24.354239,16.632179,24.731497Q16.453749,25.108757,16.294044,25.494316Q16.13434,25.879875,15.993748,26.272808Q15.853155,26.665739,15.732012,27.065096Q15.610868,27.464453,15.509467,27.869272Q15.408066,28.274092,15.326649,28.683399Q15.245233,29.092707,15.183998,29.505518Q15.122765,29.918327,15.08186,30.333647Q15.040955,30.748964,15.020477,31.165787Q15,31.582611,15,31.999939Z" fill-rule="evenodd" fill="#399FFF" fill-opacity="1"/></g><path d="M39.090908999999996,108.63636C39.090908999999996,108.63636,61.590912,108.63636,61.590912,108.63636C61.590912,108.63636,61.590912,100.454544,61.590912,100.454544C61.590912,100.454544,43.181818,100.454544,43.181818,100.454544C43.181818,100.454544,43.181818,43.181818,43.181818,43.181818C43.181818,43.181818,84.090912,43.181818,84.090912,43.181818C84.090912,43.181818,84.090912,45.227273,84.090912,45.227273C84.090912,45.227273,92.272728,45.227273,92.272728,45.227273C92.272728,45.227273,92.272728,39.090908999999996,92.272728,39.090908999999996C92.272728,36.8315624,90.44117,35,88.181824,35C88.181824,35,39.090908999999996,35,39.090908999999996,35C36.8315624,35,35,36.8315624,35,39.090908999999996C35,39.090908999999996,35,104.545456,35,104.545456C35,106.804794,36.8315624,108.63636,39.090908999999996,108.63636Z" fill-rule="evenodd" fill="#399FFF" fill-opacity="1"/><path d="M71.8181810336914,124.9999960168457C71.8181810336914,124.9999960168457,120.90909603369141,124.9999960168457,120.90909603369141,124.9999960168457C123.1684420336914,124.9999960168457,125.0000000336914,123.1684300168457,125.0000000336914,120.9090920168457C125.0000000336914,120.9090920168457,125.0000000336914,55.4545450168457,125.0000000336914,55.4545450168457C125.0000000336914,53.195198416845706,123.1684420336914,51.3636360168457,120.90909603369141,51.3636360168457C120.90909603369141,51.3636360168457,71.8181810336914,51.3636360168457,71.8181810336914,51.3636360168457C69.5588344336914,51.3636360168457,67.7272720336914,53.195198416845706,67.7272720336914,55.4545450168457C67.7272720336914,55.4545450168457,67.7272720336914,120.9090920168457,67.7272720336914,120.9090920168457C67.7272720336914,123.1684300168457,69.5588344336914,124.9999960168457,71.8181810336914,124.9999960168457ZM116.81818403369141,116.8181800168457C116.81818403369141,116.8181800168457,75.9090900336914,116.8181800168457,75.9090900336914,116.8181800168457C75.9090900336914,116.8181800168457,75.9090900336914,59.5454540168457,75.9090900336914,59.5454540168457C75.9090900336914,59.5454540168457,116.81818403369141,59.5454540168457,116.81818403369141,59.5454540168457C116.81818403369141,59.5454540168457,116.81818403369141,116.8181800168457,116.81818403369141,116.8181800168457Z" fill-rule="evenodd" fill="#399FFF" fill-opacity="1"/><path d="M84.09090805053711,71.81818008422852C84.09090805053711,71.81818008422852,84.09090805053711,79.99999808422851,84.09090805053711,79.99999808422851C84.09090805053711,79.99999808422851,100.45454405053711,79.99999808422851,100.45454405053711,79.99999808422851C100.45454405053711,79.99999808422851,100.45454405053711,71.81818008422852,100.45454405053711,71.81818008422852C100.45454405053711,71.81818008422852,84.09090805053711,71.81818008422852,84.09090805053711,71.81818008422852Z" fill-rule="evenodd" fill="#399FFF" fill-opacity="1"/><path d="M84.09090805053711,84.09090805053711C84.09090805053711,84.09090805053711,84.09090805053711,92.2727260505371,84.09090805053711,92.2727260505371C84.09090805053711,92.2727260505371,108.63636205053712,92.2727260505371,108.63636205053712,92.2727260505371C108.63636205053712,92.2727260505371,108.63636205053712,84.09090805053711,108.63636205053712,84.09090805053711C108.63636205053712,84.09090805053711,84.09090805053711,84.09090805053711,84.09090805053711,84.09090805053711Z" fill-rule="evenodd" fill="#399FFF" fill-opacity="1"/><path d="M84.09090805053711,96.36363983154297C84.09090805053711,96.36363983154297,84.09090805053711,104.54545783154296,84.09090805053711,104.54545783154296C84.09090805053711,104.54545783154296,96.36363505053711,104.54545783154296,96.36363505053711,104.54545783154296C96.36363505053711,104.54545783154296,96.36363505053711,96.36363983154297,96.36363505053711,96.36363983154297C96.36363505053711,96.36363983154297,84.09090805053711,96.36363983154297,84.09090805053711,96.36363983154297Z" fill-rule="evenodd" fill="#399FFF" fill-opacity="1"/></svg>