<svg xmlns="http://www.w3.org/2000/svg" xmlns:xlink="http://www.w3.org/1999/xlink" fill="none" version="1.1" width="160" height="160" viewBox="0 0 160 160"><defs><clipPath id="master_svg0_227_490"><rect x="0" y="0" width="160" height="160" rx="0"/></clipPath></defs><g clip-path="url(#master_svg0_227_490)"><g><path d="M0,212L0,308Q0,308.78555,0.038545396,309.57016Q0.077090792,310.35477000000003,0.15408874,311.13653999999997Q0.23108667,311.9183,0.34635162,312.69536Q0.46161661,313.47240999999997,0.61487097,314.24287000000004Q0.7681253,315.01333999999997,0.95899975,315.77534Q1.1498743,316.53735,1.3779092,317.28909Q1.6059439,318.04082,1.8705897,318.78046Q2.1352355,319.52008,2.4358547,320.24585Q2.7364738,320.97159999999997,3.0723422,321.68173Q3.4082105,322.39188,3.7785192,323.08469Q4.1488276,323.77747999999997,4.5526838,324.45128Q4.9565401,325.12505999999996,5.392972,325.77823Q5.8294034,326.4314,6.2973585,327.06236Q6.7653136,327.69333,7.2636652,328.30057999999997Q7.7620163,328.90783999999996,8.2895632,329.48987999999997Q8.8171101,330.07195,9.3725824,330.62741Q9.9280548,331.18289,10.510114,331.71043Q11.092173,332.23798999999997,11.699415,332.73634000000004Q12.306658,333.23468,12.937622,333.70264Q13.568586,334.17059,14.221752,334.60703Q14.874918,335.04346,15.548711,335.44731Q16.222504,335.85117,16.915302,336.22148000000004Q17.608101,336.59180000000003,18.318233,336.92767000000003Q19.028368,337.26351999999997,19.754128,337.56413Q20.479885,337.86474999999996,21.219521,338.12939Q21.959158,338.39404,22.71089,338.6221Q23.46262,338.85013000000004,24.224632,339.04098999999997Q24.986647,339.23186999999996,25.757109,339.38513Q26.527569,339.53839,27.304623,339.65366Q28.081676,339.76892,28.863453,339.84592Q29.645226,339.92291,30.429836,339.96146Q31.214443,340,32,340L128,340Q128.78555,340,129.57016,339.96146Q130.35477,339.92291,131.13654,339.84592Q131.9183,339.76892,132.69536,339.65366Q133.47241,339.53839,134.24287,339.38513Q135.01334,339.23186999999996,135.77534,339.04098999999997Q136.53735,338.85011,137.28909,338.62208999999996Q138.04082,338.39404,138.78046,338.12939Q139.52008,337.86474999999996,140.24585,337.56413Q140.9716,337.26351999999997,141.68173,336.92766Q142.39188,336.59180000000003,143.08469,336.22148000000004Q143.77748,335.85117,144.45128,335.44731Q145.12506,335.04346,145.77823,334.60703Q146.4314,334.17059,147.06236,333.70264Q147.69333,333.23468,148.30058,332.73634000000004Q148.90784,332.23798999999997,149.48988,331.71045000000004Q150.07195,331.18289,150.62741,330.62741Q151.18289,330.07195,151.71043,329.48987999999997Q152.23799,328.90783999999996,152.73634,328.30057999999997Q153.23468,327.69333,153.70264,327.06236Q154.17059,326.4314,154.60703,325.77823Q155.04346,325.12505999999996,155.44731,324.45126Q155.85117,323.77747999999997,156.22148,323.08469Q156.5918,322.39188,156.92767,321.68174999999997Q157.26352,320.97159999999997,157.56413,320.24585Q157.86475,319.52008,158.12939,318.78046Q158.39404,318.04082,158.6221,317.28909Q158.85013,316.53735,159.04099,315.77534Q159.23187,315.01333999999997,159.38513,314.24286Q159.53839,313.47240999999997,159.65366,312.69536Q159.76892,311.9183,159.84592,311.13653999999997Q159.92291,310.35477000000003,159.96147,309.57016Q160,308.78555,160,308L160,212Q160,211.214443,159.96147,210.429834Q159.92291,209.645226,159.84592,208.863453Q159.76892,208.08167600000002,159.65366,207.304623Q159.53839,206.527569,159.38513,205.757109Q159.23187,204.986647,159.04099,204.22463199999999Q158.85011,203.46262000000002,158.62209,202.71089Q158.39404,201.959158,158.12939,201.219522Q157.86475,200.479885,157.56413,199.754128Q157.26352,199.028368,156.92766,198.318233Q156.5918,197.608101,156.22148,196.915302Q155.85117,196.22250400000001,155.44731,195.548711Q155.04346,194.874917,154.60703,194.221751Q154.17059,193.568585,153.70264,192.937622Q153.23468,192.306658,152.73634,191.699415Q152.23799,191.092173,151.71045,190.510114Q151.18289,189.9280548,150.62741,189.3725824Q150.07195,188.8171101,149.48988,188.2895641Q148.90784,187.7620168,148.30058,187.2636657Q147.69333,186.7653141,147.06236,186.2973585Q146.4314,185.8294034,145.77823,185.392972Q145.12506,184.9565401,144.45126,184.5526838Q143.77748,184.1488276,143.08469,183.7785194Q142.39188,183.4082108,141.68175,183.0723422Q140.9716,182.7364738,140.24585,182.4358547Q139.52008,182.1352355,138.78046,181.8705897Q138.04082,181.6059439,137.28909,181.3779092Q136.53735,181.1498743,135.77534,180.95899981Q135.01334,180.7681253,134.24286,180.61487097Q133.47241,180.46161661,132.69536,180.34635165Q131.9183,180.23108667,131.13654,180.15408874Q130.35477,180.077090792,129.57016,180.038545396Q128.78555,180,128,180L32,180Q31.214443,180,30.429834,180.038545396Q29.645226,180.077090792,28.863453,180.15408874Q28.081676,180.23108667,27.304623,180.34635162Q26.527569,180.46161661,25.757109,180.61487097Q24.986647,180.7681253,24.224632,180.95899975Q23.46262,181.1498743,22.71089,181.3779092Q21.959158,181.6059439,21.219522,181.8705897Q20.479885,182.1352355,19.754128,182.4358547Q19.028368,182.7364738,18.318233,183.0723422Q17.608101,183.4082105,16.915302,183.7785192Q16.222504,184.1488276,15.548711,184.5526838Q14.874917,184.9565401,14.221751,185.392972Q13.568585,185.8294034,12.937622,186.2973585Q12.306658,186.7653136,11.699415,187.2636652Q11.092173,187.7620163,10.510114,188.2895632Q9.9280548,188.8171101,9.3725824,189.3725824Q8.8171101,189.9280548,8.2895641,190.510114Q7.7620168,191.092173,7.2636657,191.699415Q6.7653141,192.306658,6.2973585,192.937622Q5.8294034,193.568586,5.392972,194.221752Q4.9565401,194.874918,4.5526838,195.548711Q4.1488276,196.22250400000001,3.7785194,196.915302Q3.4082108,197.608101,3.0723422,198.318233Q2.7364738,199.028368,2.4358547,199.754128Q2.1352355,200.479885,1.8705897,201.219521Q1.6059439,201.959158,1.3779092,202.71089Q1.1498743,203.46262000000002,0.95899981,204.22463199999999Q0.7681253,204.986647,0.61487097,205.757109Q0.46161661,206.527569,0.34635165,207.304623Q0.23108667,208.08167600000002,0.15408874,208.863453Q0.077090792,209.645226,0.038545396,210.429836Q0,211.214443,0,212ZM15,211.999939L15,307.99994Q15,308.41727000000003,15.020477,308.83409Q15.040955,309.25092,15.08186,309.66623000000004Q15.122765,310.08154,15.183998,310.49435Q15.245233,310.90717,15.326649,311.31647Q15.408066,311.72577,15.509467,312.13059999999996Q15.610869,312.53543,15.732013,312.93478Q15.853155,313.33414,15.993748,313.72707Q16.13434,314.12,16.294044,314.50554999999997Q16.453749,314.89111,16.632179,315.26837Q16.810608,315.64563,17.007336,316.01369Q17.204062,316.38173,17.41861,316.73969Q17.63316,317.09763,17.865013,317.44462999999996Q18.096867,317.79163,18.345469,318.12683000000004Q18.59407,318.46202,18.85882,318.78462Q19.123569,319.10721,19.403828,319.41643999999997Q19.684088,319.72565,19.979183,320.02075Q20.274277,320.31584,20.583496,320.5961Q20.892715,320.87636,21.215313,321.14111Q21.53791,321.40585,21.87311,321.65446Q22.208309,321.90306,22.555302,322.13491999999997Q22.902296,322.36676,23.26025,322.58133Q23.618202,322.79587000000004,23.986254,322.99260000000004Q24.354301,323.18933000000004,24.731562,323.36775Q25.10882,323.54616999999996,25.494379,323.70589Q25.87994,323.8656,26.272869,324.00620000000004Q26.665802,324.14679,27.065159,324.26794Q27.464516,324.38907,27.869333,324.49048Q28.274155,324.59187,28.683462,324.67329Q29.09277,324.7547,29.505581,324.81595Q29.918392,324.87718,30.33371,324.91809Q30.749027,324.95898,31.165852,324.97946Q31.582672,324.99994000000004,32,324.99994000000004L128,324.99994000000004Q128.41733,324.99994000000004,128.83415,324.97946Q129.25098,324.95898,129.66629,324.91809Q130.0816,324.87718,130.49442,324.81595Q130.90723,324.7547,131.31653,324.67329Q131.72583,324.59187,132.13066,324.49048Q132.53549,324.38907,132.93484,324.26793Q133.3342,324.14677,133.72713,324.00618Q134.12006,323.86557,134.50562,323.70587Q134.89117,323.54616999999996,135.26843,323.36774Q135.64569,323.1893,136.01375,322.99258Q136.38179,322.79587000000004,136.73975,322.58131000000003Q137.09769,322.36676,137.44469,322.13491999999997Q137.79169,321.90306,138.12689,321.65445Q138.46208,321.40585,138.78468,321.14111Q139.10727,320.87636,139.4165,320.5961Q139.72571,320.31584,140.02081,320.02075Q140.3159,319.72565,140.59616,319.41643999999997Q140.87642,319.10721,141.14117,318.78462Q141.40591,318.46202,141.65453,318.12682Q141.90312,317.79163,142.13498,317.44462999999996Q142.36682,317.09763,142.58138,316.73969Q142.79593,316.38173,142.99265,316.01369Q143.18936,315.64563,143.3678,315.26837Q143.54623,314.89111,143.70593,314.50554999999997Q143.86563,314.12,144.00624,313.72707Q144.14682,313.33414,144.26797,312.93478Q144.3891,312.53543,144.49051,312.13059999999996Q144.59192,311.72577,144.67334,311.31647Q144.75476,310.90717,144.81599,310.49435Q144.87723,310.08154,144.91815,309.66623000000004Q144.95905,309.25092,144.97952,308.83409Q145,308.41727000000003,145,307.99994L145,211.999939Q145,211.58261099999999,144.97952,211.165789Q144.95905,210.748964,144.91815,210.33364699999998Q144.87723,209.918327,144.81599,209.505518Q144.75476,209.092707,144.67334,208.683399Q144.59192,208.274092,144.49051,207.869272Q144.3891,207.464453,144.26797,207.065096Q144.14682,206.665739,144.00624,206.272808Q143.86563,205.879875,143.70593,205.494316Q143.54623,205.108757,143.3678,204.73149899999999Q143.18936,204.354239,142.99265,203.986191Q142.79593,203.618141,142.58136,203.260189Q142.36682,202.902235,142.13496,202.555241Q141.90311,202.208248,141.65451,201.873049Q141.40591,201.537849,141.14117,201.215252Q140.8764,200.892654,140.59615,200.583435Q140.31589,200.274216,140.0208,199.979122Q139.72571,199.68402700000001,139.41649,199.403767Q139.10727,199.12350800000002,138.78467,198.85876100000002Q138.46207,198.594009,138.12686,198.345409Q137.79167,198.09680600000002,137.44467,197.864952Q137.09769,197.63309900000002,136.73973,197.41855Q136.38177,197.204002,136.01373,197.007277Q135.64568,196.810551,135.26842,196.63212Q134.89116,196.45369,134.5056,196.293985Q134.12006,196.134281,133.72713,195.993689Q133.3342,195.853096,132.93484,195.731953Q132.53549,195.610809,132.13066,195.509407Q131.72583,195.408005,131.31653,195.326589Q130.90723,195.245173,130.49442,195.183939Q130.0816,195.122705,129.66629,195.0818Q129.25098,195.040894,128.83415,195.020416Q128.41733,194.999939,128,194.999939L32,194.999939Q31.582672,194.999939,31.16585,195.020416Q30.749027,195.040894,30.333712,195.0818Q29.918392,195.122705,29.505581,195.183938Q29.092772,195.245173,28.683464,195.326589Q28.274157,195.408005,27.869337,195.509407Q27.46452,195.610809,27.065163,195.731953Q26.665806,195.853096,26.272873,195.993689Q25.87994,196.134281,25.494381,196.293985Q25.108822,196.45369,24.731562,196.63212Q24.354303,196.810551,23.986256,197.007277Q23.618206,197.204002,23.260254,197.41855Q22.9023,197.63309900000002,22.555305,197.864954Q22.208311,198.096807,21.873112,198.345409Q21.537912,198.594009,21.215315,198.85876100000002Q20.892715,199.12350800000002,20.583496,199.403767Q20.274277,199.68402700000001,19.979183,199.979122Q19.684088,200.274216,19.403828,200.583435Q19.123569,200.892654,18.858822,201.215252Q18.59407,201.537849,18.34547,201.873049Q18.096867,202.208248,17.865013,202.555241Q17.63316,202.902235,17.41861,203.260189Q17.204062,203.618141,17.007336,203.986191Q16.810608,204.354239,16.632179,204.731497Q16.453749,205.108757,16.294044,205.494316Q16.13434,205.879875,15.993748,206.272808Q15.853155,206.665739,15.732012,207.065096Q15.610868,207.464453,15.509467,207.869272Q15.408066,208.274092,15.326649,208.683399Q15.245233,209.092707,15.183998,209.505518Q15.122765,209.918327,15.08186,210.33364699999998Q15.040955,210.748964,15.020477,211.165787Q15,211.58261099999999,15,211.999939Z" fill-rule="evenodd" fill="#399FFF" fill-opacity="1"/></g><path d="M39.090908999999996,288.63635999999997C39.090908999999996,288.63635999999997,61.590912,288.63635999999997,61.590912,288.63635999999997C61.590912,288.63635999999997,61.590912,280.454544,61.590912,280.454544C61.590912,280.454544,43.181818,280.454544,43.181818,280.454544C43.181818,280.454544,43.181818,223.181818,43.181818,223.181818C43.181818,223.181818,84.090912,223.181818,84.090912,223.181818C84.090912,223.181818,84.090912,225.227273,84.090912,225.227273C84.090912,225.227273,92.272728,225.227273,92.272728,225.227273C92.272728,225.227273,92.272728,219.090909,92.272728,219.090909C92.272728,216.8315624,90.44117,215,88.181824,215C88.181824,215,39.090908999999996,215,39.090908999999996,215C36.8315624,215,35,216.8315624,35,219.090909C35,219.090909,35,284.545456,35,284.545456C35,286.804794,36.8315624,288.63635999999997,39.090908999999996,288.63635999999997Z" fill-rule="evenodd" fill="#399FFF" fill-opacity="1"/><path d="M71.8181810336914,304.99999601684567C71.8181810336914,304.99999601684567,120.90909603369141,304.99999601684567,120.90909603369141,304.99999601684567C123.1684420336914,304.99999601684567,125.0000000336914,303.1684300168457,125.0000000336914,300.9090920168457C125.0000000336914,300.9090920168457,125.0000000336914,235.4545450168457,125.0000000336914,235.4545450168457C125.0000000336914,233.1951984168457,123.1684420336914,231.3636360168457,120.90909603369141,231.3636360168457C120.90909603369141,231.3636360168457,71.8181810336914,231.3636360168457,71.8181810336914,231.3636360168457C69.5588344336914,231.3636360168457,67.7272720336914,233.1951984168457,67.7272720336914,235.4545450168457C67.7272720336914,235.4545450168457,67.7272720336914,300.9090920168457,67.7272720336914,300.9090920168457C67.7272720336914,303.1684300168457,69.5588344336914,304.99999601684567,71.8181810336914,304.99999601684567ZM116.81818403369141,296.8181800168457C116.81818403369141,296.8181800168457,75.9090900336914,296.8181800168457,75.9090900336914,296.8181800168457C75.9090900336914,296.8181800168457,75.9090900336914,239.5454540168457,75.9090900336914,239.5454540168457C75.9090900336914,239.5454540168457,116.81818403369141,239.5454540168457,116.81818403369141,239.5454540168457C116.81818403369141,239.5454540168457,116.81818403369141,296.8181800168457,116.81818403369141,296.8181800168457Z" fill-rule="evenodd" fill="#399FFF" fill-opacity="1"/><path d="M84.09090805053711,251.81818008422852C84.09090805053711,251.81818008422852,84.09090805053711,259.99999808422854,84.09090805053711,259.99999808422854C84.09090805053711,259.99999808422854,100.45454405053711,259.99999808422854,100.45454405053711,259.99999808422854C100.45454405053711,259.99999808422854,100.45454405053711,251.81818008422852,100.45454405053711,251.81818008422852C100.45454405053711,251.81818008422852,84.09090805053711,251.81818008422852,84.09090805053711,251.81818008422852Z" fill-rule="evenodd" fill="#399FFF" fill-opacity="1"/><path d="M84.09090805053711,264.0909080505371C84.09090805053711,264.0909080505371,84.09090805053711,272.27272605053713,84.09090805053711,272.27272605053713C84.09090805053711,272.27272605053713,108.63636205053712,272.27272605053713,108.63636205053712,272.27272605053713C108.63636205053712,272.27272605053713,108.63636205053712,264.0909080505371,108.63636205053712,264.0909080505371C108.63636205053712,264.0909080505371,84.09090805053711,264.0909080505371,84.09090805053711,264.0909080505371Z" fill-rule="evenodd" fill="#399FFF" fill-opacity="1"/><path d="M84.09090805053711,276.36363983154297C84.09090805053711,276.36363983154297,84.09090805053711,284.545457831543,84.09090805053711,284.545457831543C84.09090805053711,284.545457831543,96.36363505053711,284.545457831543,96.36363505053711,284.545457831543C96.36363505053711,284.545457831543,96.36363505053711,276.36363983154297,96.36363505053711,276.36363983154297C96.36363505053711,276.36363983154297,84.09090805053711,276.36363983154297,84.09090805053711,276.36363983154297Z" fill-rule="evenodd" fill="#399FFF" fill-opacity="1"/><path d="M69.5617599765625,135.26291298828124C69.5617599765625,135.26291298828124,78.9435579765625,144.73706298828125,78.9435579765625,144.73706298828125C78.9435579765625,144.73706298828125,141.2574459765625,83.03063998828125,141.2574459765625,83.03063998828125C157.3585559765625,67.08649398828125,157.3585559765625,41.20863298828125,141.2574459765625,25.264496988281252C125.1925859765625,9.356251688281251,99.1731189765625,9.356251688281251,83.1082609765625,25.264496988281252C83.1082609765625,25.264496988281252,15.3757676765625,92.33669998828125,15.3757676765625,92.33669998828125C3.7635788765625,103.83569298828125,3.7635795765625,122.50652298828125,15.3757648765625,134.00551298828125C26.9517059765625,145.46861298828125,45.6932109765625,145.46861298828125,57.2691569765625,134.00551298828125C57.2691569765625,134.00551298828125,114.1644459765625,77.66486398828125,114.1644459765625,77.66486398828125C121.2877159765625,70.61103398828125,121.2877159765625,59.14720198828125,114.1644459765625,52.09337598828125C107.0774059765625,45.07543598828125,95.6138839765625,45.07543598828125,88.5268549765625,52.09337198828125C88.5268549765625,52.09337198828125,37.0501559765625,103.06824498828125,37.0501559765625,103.06824498828125C37.0501559765625,103.06824498828125,46.4319529765625,112.54240398828125,46.4319529765625,112.54240398828125C46.4319529765625,112.54240398828125,97.9086529765625,61.56753198828125,97.9086529765625,61.56753198828125C99.7994539765625,59.69516398828125,102.8918379765625,59.69515998828125,104.7826539765625,61.56753198828125C106.6372069765625,63.40401098828125,106.6372069765625,66.35422498828126,104.7826539765625,68.19070398828126C104.7826539765625,68.19070398828126,47.8873599765625,124.53135298828126,47.8873599765625,124.53135298828126C41.5076369765625,130.84888298828125,31.1372779765625,130.84888298828125,24.7575609765625,124.53135298828126C18.4140899765625,118.24971298828125,18.4140889765625,108.09249898828125,24.7575649765625,101.81086698828125C24.7575649765625,101.81086698828125,92.4900589765625,34.738654988281255,92.4900589765625,34.738654988281255C103.3586879765625,23.97597698828125,121.0070159765625,23.97597698828125,131.8756459765625,34.738654988281255C142.7080359765625,45.46544298828125,142.7080359765625,62.82969298828125,131.8756459765625,73.55647698828125C131.8756459765625,73.55647698828125,69.5617599765625,135.26291298828124,69.5617599765625,135.26291298828124Z" fill-rule="evenodd" fill="#399FFF" fill-opacity="1"/></g></svg>