<svg xmlns="http://www.w3.org/2000/svg" xmlns:xlink="http://www.w3.org/1999/xlink" fill="none" version="1.1" width="600" height="200" viewBox="0 0 600 200"><defs><linearGradient x1="0" y1="0.5" x2="1" y2="0.5" id="master_svg0_103_467"><stop offset="0%" stop-color="#000000" stop-opacity="0"/><stop offset="50%" stop-color="#000000" stop-opacity="0.3"/><stop offset="100%" stop-color="#000000" stop-opacity="0"/></linearGradient><linearGradient x1="0" y1="0.5" x2="1" y2="0.5" id="master_svg1_98_1288"><stop offset="0%" stop-color="#000000" stop-opacity="0.4"/><stop offset="50.7%" stop-color="#000000" stop-opacity="0.6"/><stop offset="100%" stop-color="#000000" stop-opacity="0.5"/></linearGradient><linearGradient x1="0" y1="0.5" x2="1" y2="0.5" id="master_svg2_98_1288"><stop offset="0%" stop-color="#000000" stop-opacity="0.4"/><stop offset="50.7%" stop-color="#000000" stop-opacity="0.6"/><stop offset="100%" stop-color="#000000" stop-opacity="0.5"/></linearGradient><filter id="master_svg3_103_0109" filterUnits="objectBoundingBox" color-interpolation-filters="sRGB" x="0" y="0" width="160" height="80"><feFlood flood-opacity="0" result="BackgroundImageFix"/><feBlend mode="normal" in="SourceGraphic" in2="BackgroundImageFix" result="shape"/><feColorMatrix in="SourceAlpha" type="matrix" result="hardAlpha" values="0 0 0 0 0 0 0 0 0 0 0 0 0 0 0 0 0 0 127 0"/><feOffset dy="4" dx="0"/><feGaussianBlur stdDeviation="5"/><feComposite in2="hardAlpha" operator="arithmetic" k2="-1" k3="1"/><feColorMatrix type="matrix" values="0 0 0 0 0 0 0 0 0 0 0 0 0 0 0 0 0 0 0.3 0"/><feBlend mode="normal" in2="shape" result="effect1_innerShadow"/></filter><linearGradient x1="0" y1="0.5" x2="1" y2="0.5" id="master_svg4_98_1575"><stop offset="0%" stop-color="#D8D8D8" stop-opacity="0"/><stop offset="100%" stop-color="#D8D8D8" stop-opacity="0.2"/></linearGradient><linearGradient x1="0" y1="0.5" x2="1" y2="0.5" id="master_svg5_98_1575"><stop offset="0%" stop-color="#D8D8D8" stop-opacity="0"/><stop offset="100%" stop-color="#D8D8D8" stop-opacity="0.2"/></linearGradient><filter id="master_svg6_103_0115" filterUnits="objectBoundingBox" color-interpolation-filters="sRGB" x="-20" y="-16" width="155" height="75"><feFlood flood-opacity="0" result="BackgroundImageFix"/><feColorMatrix in="SourceAlpha" type="matrix" values="0 0 0 0 0 0 0 0 0 0 0 0 0 0 0 0 0 0 127 0"/><feOffset dy="4" dx="0"/><feGaussianBlur stdDeviation="5"/><feColorMatrix type="matrix" values="0 0 0 0 0.9 0 0 0 0 1.0 0 0 0 0 1 0 0 0 0.3 0"/><feBlend mode="normal" in2="BackgroundImageFix" result="effect1_dropShadow"/><feBlend mode="normal" in="SourceGraphic" in2="effect1_dropShadow" result="shape"/></filter><filter id="master_svg7_103_0119" filterUnits="objectBoundingBox" color-interpolation-filters="sRGB" x="-20" y="-16" width="100" height="54"><feFlood flood-opacity="0" result="BackgroundImageFix"/><feColorMatrix in="SourceAlpha" type="matrix" values="0 0 0 0 0 0 0 0 0 0 0 0 0 0 0 0 0 0 127 0"/><feOffset dy="4" dx="0"/><feGaussianBlur stdDeviation="5"/><feColorMatrix type="matrix" values="0 0 0 0 0.9 0 0 0 0 1.0 0 0 0 0 1 0 0 0 0.3 0"/><feBlend mode="normal" in2="BackgroundImageFix" result="effect1_dropShadow"/><feBlend mode="normal" in="SourceGraphic" in2="effect1_dropShadow" result="shape"/></filter><filter id="master_svg8_103_0123" filterUnits="objectBoundingBox" color-interpolation-filters="sRGB" x="-20" y="-16" width="112" height="54"><feFlood flood-opacity="0" result="BackgroundImageFix"/><feColorMatrix in="SourceAlpha" type="matrix" values="0 0 0 0 0 0 0 0 0 0 0 0 0 0 0 0 0 0 127 0"/><feOffset dy="4" dx="0"/><feGaussianBlur stdDeviation="5"/><feColorMatrix type="matrix" values="0 0 0 0 0.9 0 0 0 0 1.0 0 0 0 0 1 0 0 0 0.3 0"/><feBlend mode="normal" in2="BackgroundImageFix" result="effect1_dropShadow"/><feBlend mode="normal" in="SourceGraphic" in2="effect1_dropShadow" result="shape"/></filter><filter id="master_svg9_103_0127" filterUnits="objectBoundingBox" color-interpolation-filters="sRGB" x="-20" y="-16" width="88" height="54"><feFlood flood-opacity="0" result="BackgroundImageFix"/><feColorMatrix in="SourceAlpha" type="matrix" values="0 0 0 0 0 0 0 0 0 0 0 0 0 0 0 0 0 0 127 0"/><feOffset dy="4" dx="0"/><feGaussianBlur stdDeviation="5"/><feColorMatrix type="matrix" values="0 0 0 0 0.9 0 0 0 0 1.0 0 0 0 0 1 0 0 0 0.3 0"/><feBlend mode="normal" in2="BackgroundImageFix" result="effect1_dropShadow"/><feBlend mode="normal" in="SourceGraphic" in2="effect1_dropShadow" result="shape"/></filter></defs><g><g><rect x="0" y="0" width="600" height="200" rx="0" fill="#399FFF" fill-opacity="1"/></g><g><rect x="0" y="0" width="600" height="200" rx="0" fill="url(#master_svg0_103_467)" fill-opacity="1"/></g><g><rect x="0" y="0" width="600" height="20" rx="0" fill="url(#master_svg1_98_1288)" fill-opacity="1"/></g><g><rect x="0" y="180" width="600" height="20" rx="0" fill="url(#master_svg2_98_1288)" fill-opacity="1"/></g><g filter="url(#master_svg3_103_0109)"><path d="M220,100L240,140L360,140L380,100L360,60L240,60L220,100Z" fill-rule="evenodd" fill="#000000" fill-opacity="0.2"/></g><g><path d="M0,120L170,120L180,100L170,80L0,80L0,120Z" fill="url(#master_svg4_98_1575)" fill-opacity="1"/></g><g transform="matrix(-1,0,0,1,1200,0)"><path d="M600,120L770,120L780,100L770,80L600,80L600,120Z" fill="url(#master_svg5_98_1575)" fill-opacity="1"/></g><g filter="url(#master_svg6_103_0115)"><path d="M259.7,89.0L262.9,89.0L262.9,102.1Q262.9,104.9,261.9,107.0Q260.8,109.1,258.8,110.2Q256.9,111.3,254.1,111.3Q251.3,111.3,249.4,110.2Q247.4,109.1,246.3,107.0Q245.3,104.9,245.3,102.1L245.3,89.0L248.5,89.0L248.5,101.5Q248.5,104.9,250.0,106.6Q251.4,108.4,254.1,108.4Q256.8,108.4,258.2,106.6Q259.7,104.9,259.7,101.5L259.7,89.0ZM274.7,89.0Q277.1,89.0,278.9,89.9Q280.7,90.8,281.7,92.4Q282.8,94.0,282.8,96Q282.8,98.0,281.7,99.6Q280.7,101.2,278.9,102.1Q277.1,102.9,274.7,102.9L270.9,102.9L270.9,111L267.7,111L267.7,89.0L274.7,89.0ZM274.4,100.1Q276.7,100.1,278.0,99.0Q279.3,97.9,279.3,96Q279.3,94.1,278.0,93.0Q276.7,91.8,274.4,91.8L270.9,91.8L270.9,100.1L274.4,100.1ZM292.4,89.0Q295.6,89.0,298.2,90.3Q300.8,91.6,302.2,94.1Q303.7,96.6,303.7,100.0Q303.7,103.4,302.2,105.9Q300.8,108.4,298.2,109.7Q295.6,111,292.4,111L286.0,111L286.0,89.0L292.4,89.0ZM292.0,108.2Q295.9,108.2,298.1,106.0Q300.3,103.9,300.3,100.0Q300.3,96.1,298.1,94.0Q295.9,91.8,292.0,91.8L289.2,91.8L289.2,108.2L292.0,108.2ZM315.5,89.0L324.4,111L320.9,111L318.6,105.1L309.7,105.1L307.5,111L304.3,111L312.8,89.0L315.5,89.0ZM317.5,102.3L314.0,93.2L310.7,102.3L317.5,102.3ZM322.4,89.0L339.1,89.0L339.1,91.9L332.4,91.9L332.4,111L329.1,111L329.1,91.9L322.4,91.9L322.4,89.0ZM354.6,101.1L345.2,101.1L345.2,108.2L356.1,108.2L356.1,111L342,111L342,89.0L355.7,89.0L355.7,91.9L345.2,91.9L345.2,98.3L354.6,98.3L354.6,101.1Z" fill="#F0F8FF" fill-opacity="1"/></g><g filter="url(#master_svg7_103_0119)"><path d="M112.1,92.8L112.1,96.3L116.4,96.3L116.4,97.4L105.5,97.4L105.5,96.3L107.3,96.3L107.3,90.4L108.5,90.4L108.5,96.3L110.9,96.3L110.9,88.9L106.1,88.9L106.1,87.7L116.1,87.7L116.1,88.9L112.1,88.9L112.1,91.6L115.7,91.6L115.7,92.8L112.1,92.8ZM128.3,94.7Q128.1,95.8,128.0,96.3Q127.8,97.2,127.4,97.5Q127.1,97.8,126.6,97.8Q126.1,97.8,125.7,97.5Q125.3,97.2,124.9,96.4Q124.4,95.6,124.1,93.9Q123.7,92.3,123.6,90.0L117.7,90.0L117.7,88.9L123.5,88.9Q123.5,87.3,123.5,86.9L124.6,86.9Q124.6,87.7,124.7,88.9L126.8,88.9Q126.5,88.6,126.1,88.3Q125.7,87.9,125.3,87.6L126.0,86.9Q126.3,87.1,126.8,87.5Q127.2,87.9,127.5,88.2L126.8,88.9L128.2,88.9L128.2,90.0L124.7,90.0Q124.9,92.3,125.2,93.8Q125.5,95.3,126.0,96.1Q126.3,96.5,126.6,96.5Q126.8,96.5,126.9,96.4Q127.0,96.2,127.1,95.7Q127.2,94.9,127.3,94.3L128.3,94.7ZM121.2,95.6L123.0,95.3L123.6,95.2L123.6,96.3Q119.9,96.9,117.7,97.2L117.6,96.1L120,95.7L120,92.8L118.0,92.8L118.0,91.7L123.2,91.7L123.2,92.8L121.2,92.8L121.2,95.6ZM138.5,95.2Q139.3,96.2,140.6,97.0L140.1,98.0Q138.7,97.0,137.9,96.0Q137.0,97.0,135.5,98.0L134.8,97.2Q136.3,96.2,137.2,95.1Q136.2,93.5,135.8,91.3L135.6,91.3Q135.6,92.8,135.5,93.8Q135.4,94.9,135.1,95.8Q134.8,96.7,134.3,97.7L133.5,97.0L133.5,97.8L132.4,97.8L132.4,93.7L131.4,93.7Q131.3,95.2,131.1,96.1Q130.9,97.1,130.3,98.1L129.4,97.5Q129.8,96.7,130.0,96.0Q130.2,95.3,130.3,94.4Q130.3,93.5,130.3,91.9L130.3,87.2L131.4,87.2L131.4,90.3L132.5,90.3L132.5,87.0L133.5,87.0L133.5,90.3L134.2,90.3L134.2,91.3L131.4,91.3L131.4,92.2L131.4,92.7L133.5,92.7L133.5,96.9Q134.1,95.6,134.4,94.4Q134.6,93.1,134.6,91.2L134.6,87.9Q135.9,87.8,137.3,87.6Q138.7,87.4,140.0,87.2L140.2,88.3Q139.2,88.5,137.9,88.7Q136.7,88.9,135.6,89.0L135.6,90.3L140.0,90.3L140.0,91.4Q139.7,92.6,139.4,93.5Q139.0,94.5,138.5,95.2ZM136.7,91.3Q137.1,93.1,137.8,94.3Q138.6,93.1,138.9,91.3L136.7,91.3ZM152.2,97.9Q150.0,97.8,148.6,97.5Q147.1,97.2,146.0,96.7Q145.3,97.1,144.4,97.5Q143.4,97.8,142.0,98.1L141.6,97.1Q143.9,96.6,144.8,96.1Q144.0,95.5,143.2,94.8L144.0,94.1Q144.9,95.0,145.7,95.4Q146.2,94.9,146.4,94.0L142.7,94.0L142.7,89.3L146.4,89.3L146.4,88.4L141.9,88.4L141.9,87.4L152.2,87.4L152.2,88.4L147.6,88.4L147.6,89.3L151.3,89.3L151.3,94.0L147.5,94.0Q147.4,95.2,146.8,95.9Q147.8,96.3,149.1,96.5Q150.5,96.7,152.5,96.8L152.2,97.9ZM146.4,91.2L146.4,90.3L143.8,90.3L143.8,91.2L146.4,91.2ZM150.2,91.2L150.2,90.3L147.6,90.3L147.6,91.2L150.2,91.2ZM143.8,92.1L143.8,93.1L146.4,93.1L146.4,92.9L146.4,92.1L143.8,92.1ZM147.6,93.1L150.2,93.1L150.2,92.1L147.6,92.1L147.6,92.9L147.6,93.1ZM159.2,93.8L157.1,93.8L157.1,96.7Q157.1,97.1,157.0,97.4Q156.9,97.6,156.6,97.8Q156.4,97.9,155.9,97.9Q155.4,97.9,155.0,97.8L154.8,96.8Q155.0,96.8,155.0,96.8Q155.4,96.9,155.6,96.9Q155.9,96.9,155.9,96.7Q156.0,96.6,156.0,96.2L156.0,93.8L153.7,93.8L153.7,92.8L156.0,92.8L156.0,91.6L153.5,91.6L153.5,90.7L155.0,90.7Q154.8,89.9,154.6,89.0L153.8,89.0L153.8,88.1L156.0,88.1L155.6,87.0L156.6,86.8Q156.9,87.4,157.2,88.1L159.2,88.1L159.2,89.0L158.4,89.0Q158.3,89.8,158.0,90.7L159.3,90.7L159.3,91.6L157.1,91.6L157.1,92.8L159.2,92.8L159.2,93.8ZM164.5,90.8L164.5,91.9L163.3,91.9L163.3,97.9L162.3,97.9L162.3,91.9L160.8,91.9L160.8,92.0Q160.8,93.6,160.7,94.6Q160.6,95.5,160.3,96.3Q160.0,97.1,159.4,98.1L158.4,97.4Q159.0,96.6,159.3,95.9Q159.6,95.2,159.7,94.3Q159.8,93.3,159.8,91.8L159.8,88.0Q160.9,87.9,162.0,87.7Q163.2,87.5,163.9,87.2L164.3,88.2Q163.6,88.4,162.7,88.6Q161.7,88.9,160.8,89.0L160.8,90.8L164.5,90.8ZM155.5,89.0Q155.8,90.1,155.9,90.7L157.1,90.7Q157.3,90.0,157.5,89.0L155.5,89.0ZM158.3,94.2Q158.5,94.7,158.9,95.6Q159.0,95.8,159,95.9Q159.0,96.0,159.1,96.1L158.2,96.5Q158.0,96.0,157.5,94.5L158.3,94.2ZM155.4,94.5Q155.2,95.2,154.9,96.0Q154.5,96.8,154.2,97.3L153.4,96.9Q153.7,96.4,154.0,95.7Q154.3,94.9,154.5,94.2L155.4,94.5Z" fill="#F0F8FF" fill-opacity="1"/></g><g filter="url(#master_svg8_103_0123)"><path d="M95.4,102.2L98.1,109.2L100.6,102.2L102.0,102.2L98.6,111L97.5,111L94.0,102.2L95.4,102.2ZM104.7,104.6Q105.5,104.6,106.1,105.0Q106.7,105.4,107.1,106.0Q107.4,106.7,107.4,107.5Q107.4,107.8,107.3,108.2L103.0,108.2Q103.0,109.1,103.5,109.6Q104.0,110.1,104.8,110.1Q105.8,110.1,106.2,109.2L107.1,109.8Q106.9,110.4,106.2,110.8Q105.6,111.1,104.7,111.1Q103.9,111.1,103.2,110.8Q102.5,110.4,102.1,109.6Q101.7,108.9,101.7,107.9Q101.7,106.8,102.1,106.1Q102.5,105.4,103.2,105.0Q103.9,104.6,104.7,104.6ZM104.6,105.7Q104.0,105.7,103.6,106.1Q103.1,106.5,103.0,107.2L106.1,107.2Q106.0,106.5,105.6,106.1Q105.3,105.7,104.6,105.7ZM111.5,104.6Q111.8,104.6,112.0,104.7Q112.3,104.8,112.5,104.9L112.0,105.9Q111.7,105.7,111.4,105.7Q110.7,105.7,110.3,106.3Q109.9,106.9,109.9,107.9L109.9,111L108.6,111L108.6,104.8L109.7,104.8Q109.7,105.3,109.8,105.8Q110.1,105.2,110.5,104.9Q110.9,104.6,111.5,104.6ZM117.6,109.2Q117.6,110.1,116.9,110.6Q116.3,111.1,115.2,111.1Q114.2,111.1,113.6,110.7Q112.9,110.3,112.7,109.6L113.6,109.1Q113.8,109.6,114.2,109.8Q114.6,110.1,115.2,110.1Q115.7,110.1,116.0,109.9Q116.3,109.7,116.3,109.3Q116.3,109.0,116.1,108.8Q115.9,108.6,115.7,108.5Q115.4,108.4,114.9,108.3Q114.2,108.1,113.8,107.9Q113.5,107.7,113.2,107.4Q112.9,107.1,112.9,106.5Q112.9,106.0,113.2,105.5Q113.5,105.1,114.1,104.9Q114.6,104.6,115.2,104.6Q116.1,104.6,116.7,105Q117.3,105.4,117.5,106.0L116.6,106.5Q116.4,106.1,116.1,105.9Q115.7,105.7,115.2,105.7Q114.7,105.7,114.5,105.9Q114.2,106.1,114.2,106.4Q114.2,106.7,114.3,106.9Q114.5,107.0,114.8,107.1Q115.0,107.2,115.5,107.4Q116.2,107.5,116.6,107.7Q117,107.9,117.3,108.3Q117.6,108.6,117.6,109.2ZM119.4,103.8Q119.1,103.8,118.8,103.5Q118.6,103.3,118.6,103.0Q118.6,102.6,118.8,102.4Q119.1,102.2,119.4,102.2Q119.7,102.2,119.9,102.4Q120.2,102.6,120.2,103.0Q120.2,103.3,119.9,103.5Q119.7,103.8,119.4,103.8ZM120,111L118.8,111L118.8,104.8L120,104.8L120,111ZM121.4,107.9Q121.4,106.9,121.8,106.2Q122.2,105.4,122.9,105.0Q123.6,104.6,124.5,104.6Q125.3,104.6,126.0,105.0Q126.7,105.4,127.1,106.2Q127.5,106.9,127.5,107.9Q127.5,108.8,127.1,109.6Q126.7,110.3,126.0,110.7Q125.3,111.1,124.5,111.1Q123.6,111.1,122.9,110.7Q122.2,110.3,121.8,109.6Q121.4,108.8,121.4,107.9ZM122.7,107.9Q122.7,108.9,123.2,109.4Q123.7,110.0,124.5,110.0Q125.2,110.0,125.7,109.4Q126.2,108.9,126.2,107.9Q126.2,106.9,125.7,106.3Q125.2,105.7,124.5,105.7Q123.7,105.7,123.2,106.3Q122.7,106.9,122.7,107.9ZM132.1,104.6Q133.1,104.6,133.7,105.3Q134.3,105.9,134.3,107.2L134.3,111L133.1,111L133.1,107.6Q133.1,106.7,132.7,106.2Q132.4,105.8,131.7,105.8Q131.1,105.8,130.6,106.2Q130.1,106.7,130.1,107.6L130.1,111L128.9,111L128.9,104.8L130.0,104.8Q130.0,105.4,130.1,105.8Q130.4,105.2,130.9,104.9Q131.4,104.6,132.1,104.6ZM144.7,106.6Q144.7,108.8,144.0,110.0Q143.2,111.1,141.8,111.1Q140.4,111.1,139.6,110.0Q138.9,108.8,138.9,106.6Q138.9,104.4,139.6,103.2Q140.4,102.1,141.8,102.1Q143.2,102.1,144.0,103.2Q144.7,104.4,144.7,106.6ZM140.2,106.6Q140.2,108.3,140.6,109.1Q141,110.0,141.8,110.0Q142.6,110.0,143.0,109.1Q143.4,108.3,143.4,106.6Q143.4,104.9,143.0,104.1Q142.6,103.2,141.8,103.2Q141,103.2,140.6,104.1Q140.2,104.9,140.2,106.6ZM146.7,111.1Q146.4,111.1,146.2,110.9Q145.9,110.7,145.9,110.3Q145.9,110.0,146.2,109.8Q146.4,109.5,146.7,109.5Q147.0,109.5,147.3,109.8Q147.5,110.0,147.5,110.3Q147.5,110.7,147.3,110.9Q147.0,111.1,146.7,111.1ZM154.6,106.6Q154.6,108.8,153.8,110.0Q153.1,111.1,151.7,111.1Q150.3,111.1,149.5,110.0Q148.7,108.8,148.7,106.6Q148.7,104.4,149.5,103.2Q150.3,102.1,151.7,102.1Q153.1,102.1,153.8,103.2Q154.6,104.4,154.6,106.6ZM150.1,106.6Q150.1,108.3,150.5,109.1Q150.9,110.0,151.7,110.0Q152.5,110.0,152.8,109.1Q153.2,108.3,153.2,106.6Q153.2,104.9,152.8,104.1Q152.5,103.2,151.7,103.2Q150.9,103.2,150.5,104.1Q150.1,104.9,150.1,106.6ZM156.6,111.1Q156.3,111.1,156.0,110.9Q155.8,110.7,155.8,110.3Q155.8,110.0,156.0,109.8Q156.3,109.5,156.6,109.5Q156.9,109.5,157.1,109.8Q157.4,110.0,157.4,110.3Q157.4,110.7,157.1,110.9Q156.9,111.1,156.6,111.1ZM160.6,109.9L164.4,109.9L164.4,111L158.6,111L158.6,110.2L161.4,107.1Q162.2,106.2,162.5,105.7Q162.8,105.3,162.8,104.7Q162.8,104.0,162.4,103.6Q162.0,103.2,161.4,103.2Q160.8,103.2,160.4,103.6Q159.9,104.1,159.7,104.8L158.7,104.2Q158.9,103.2,159.7,102.6Q160.5,102.1,161.5,102.1Q162.3,102.1,162.9,102.4Q163.5,102.7,163.8,103.3Q164.1,103.8,164.1,104.6Q164.1,105.4,163.7,106.1Q163.4,106.8,162.4,107.8L160.6,109.9Z" fill="#F0F8FF" fill-opacity="1"/></g><g filter="url(#master_svg9_103_0127)"><path d="M445.5,99.3L445.5,102.6L439.3,102.6L439.3,95.1L441.2,95.1Q441.6,94.2,441.7,93.9L442.9,94.0Q442.6,94.8,442.5,95.1L445.3,95.1L445.3,98.3L440.4,98.3L440.4,99.3L445.5,99.3ZM437.5,97.0Q437.2,96.6,436.7,95.9Q436.1,95.3,435.7,94.9L436.6,94.2Q437.0,94.6,437.5,95.2Q438.1,95.8,438.4,96.2L437.5,97.0ZM444.2,97.3L444.2,96.1L440.4,96.1L440.4,97.3L444.2,97.3ZM440.9,103.5Q442.2,103.6,443.7,103.6Q445.2,103.6,446.4,103.5L446.2,104.6Q444.8,104.7,443.5,104.7Q442.2,104.7,440.8,104.6Q439.8,104.5,439.3,104.4Q438.7,104.3,438.3,104.0Q437.9,103.7,437.5,103.1L436.8,103.8Q436.1,104.6,435.9,104.8L435.4,103.6L436.9,102.0L436.9,99.1L435.6,99.1L435.6,98.0L438.0,98.0L438.0,102.0Q438.3,102.6,438.7,102.9Q439.0,103.2,439.5,103.3Q440.0,103.5,440.9,103.5ZM440.4,101.6L444.4,101.6L444.4,100.4L440.4,100.4L440.4,101.6ZM452.9,95.9Q452.9,97.4,452.9,99.6Q452.8,101.8,452.7,103.0Q452.6,103.7,452.5,104.0Q452.3,104.4,451.9,104.5Q451.5,104.7,450.9,104.7Q450.4,104.7,450,104.6L449.8,103.4Q450.3,103.5,450.7,103.5Q451.0,103.5,451.2,103.5Q451.4,103.4,451.5,103.2Q451.5,103.0,451.6,102.5Q451.8,100.1,451.8,97.1L450.3,97.1Q450.3,99.1,450.1,100.4Q449.9,101.6,449.6,102.7Q449.2,103.7,448.5,105.0L447.4,104.4Q448.1,103.2,448.5,102.3Q448.8,101.3,449.0,100.1Q449.2,99.0,449.2,97.1L447.6,97.1L447.6,95.9L449.3,95.9L449.3,93.9L450.4,93.9Q450.4,94.8,450.4,95.9L452.9,95.9ZM453.9,104.7L453.9,95.3L458.0,95.3L458.0,104.7L456.9,104.7L456.9,103.9L455.0,103.9L455.0,104.7L453.9,104.7ZM455.0,96.4L455.0,102.7L456.9,102.7L456.9,96.4L455.0,96.4ZM470.0,96.0Q470.0,97.3,469.9,99.5Q469.8,101.7,469.7,102.8Q469.7,103.6,469.5,104.0Q469.3,104.4,468.9,104.5Q468.5,104.7,467.7,104.7Q467.1,104.7,466.4,104.6L466.2,103.6Q467.0,103.7,467.5,103.7Q467.9,103.7,468.1,103.6Q468.4,103.5,468.5,103.2Q468.6,102.9,468.6,102.3Q468.7,101.3,468.8,99.9Q468.8,98.5,468.8,97.1L466.6,97.1Q466.5,99.4,466.3,100.7Q466.1,101.9,465.5,102.9Q464.9,103.8,463.6,105.0L462.7,104.2Q463.9,103.1,464.5,102.2Q465.0,101.4,465.2,100.3Q465.4,99.3,465.5,97.1L464.2,97.1L464.2,96.0L465.5,96.0L465.6,93.9L466.7,93.9L466.6,96.0L470.0,96.0ZM464.2,101.9Q463.8,101.9,461.9,102.5Q460.0,103.1,459.6,103.2L459.4,102.1L459.9,101.9L461.2,101.5L461.2,96.2L459.7,96.2L459.7,95.1L463.8,95.1L463.8,96.2L462.3,96.2L462.3,101.2L462.7,101.1Q463.0,101,463.4,100.9Q463.8,100.8,464.0,100.7L464.2,101.9ZM475.8,94.8Q476.1,95.2,476.7,96.0Q477.2,96.7,477.5,97.3L476.6,97.9L476.2,97.1L475.1,97.3L472.6,97.5Q472.5,97.5,472.2,97.6L472.0,97.6L471.7,96.5Q472.0,96.5,472.2,96.3Q472.6,95.9,473.1,95.2Q473.6,94.4,473.9,93.8L475.0,94.2Q474.6,94.8,474.1,95.5Q473.6,96.2,473.3,96.6Q475.0,96.4,475.7,96.3Q475.2,95.6,475.0,95.3L475.8,94.8ZM478.8,99.1Q478.2,99.1,478.0,98.8Q477.7,98.5,477.7,97.9L477.7,94.0L478.8,94.0L478.8,95.8Q479.6,95.5,480.3,95.2Q481.1,94.8,481.6,94.5L482.1,95.4Q480.8,96.1,478.8,96.8L478.8,97.5Q478.8,97.8,478.9,97.9Q479.0,98.1,479.4,98.1Q479.8,98.1,479.9,98.1Q480.1,98.1,480.5,98.1Q480.8,98.0,481.0,98.0Q481.1,98.0,481.2,97.8Q481.2,97.7,481.3,97.4Q481.3,96.8,481.3,96.5L482.4,96.8Q482.3,97.1,482.3,97.9Q482.2,98.4,482.1,98.6Q481.9,98.9,481.6,99.0Q481.4,99.1,480.9,99.1Q480.2,99.1,479.8,99.1Q479.5,99.1,478.8,99.1ZM472.2,104.8L472.2,98.1L476.8,98.1L476.8,103.7Q476.8,104.1,476.7,104.4Q476.6,104.6,476.3,104.7Q476.0,104.8,475.5,104.8Q475.2,104.8,474.6,104.8L474.4,103.8Q475.1,103.9,475.4,103.9Q475.6,103.9,475.7,103.7Q475.7,103.6,475.7,103.2L475.7,102.6L473.3,102.6L473.3,104.8L472.2,104.8ZM475.7,99.9L475.7,99.1L473.3,99.1L473.3,99.9L475.7,99.9ZM482.4,102.2Q482.3,103.2,482.3,103.5Q482.2,104.1,481.9,104.4Q481.6,104.6,480.8,104.7Q480.5,104.7,479.9,104.7Q479.2,104.7,478.9,104.7Q478.3,104.6,478.0,104.4Q477.7,104.1,477.7,103.4L477.7,99.6L478.8,99.6L478.8,101.2Q479.6,100.8,480.4,100.5Q481.2,100.1,481.6,99.7L482.2,100.6Q481.6,101,480.6,101.5Q479.7,101.9,478.8,102.2L478.8,103.1Q478.8,103.4,478.9,103.5Q479.1,103.6,479.4,103.7Q479.6,103.7,480.0,103.7Q480.3,103.7,480.5,103.7Q481.0,103.6,481.1,103.5Q481.3,103.4,481.3,103.0Q481.3,102.7,481.4,102.4Q481.4,102.1,481.4,101.9L482.4,102.2ZM473.3,100.8L473.3,101.7L475.7,101.7L475.7,100.8L473.3,100.8Z" fill="#F0F8FF" fill-opacity="1"/></g><g><path d="M17.6,13L16.3,13L14.2,10.1L14.2,10.1L12.9,10.1L12.9,13L11.8,13L11.8,5.7L14.2,5.7Q15.0,5.7,15.6,6.0Q16.2,6.2,16.5,6.7Q16.8,7.2,16.8,7.9Q16.8,8.6,16.4,9.2Q16.1,9.7,15.4,9.9L17.6,13ZM12.9,6.6L12.9,9.2L14.1,9.2Q14.8,9.2,15.3,8.8Q15.7,8.5,15.7,7.9Q15.7,7.3,15.3,7.0Q14.8,6.6,14.1,6.6L12.9,6.6ZM22.6,9.7L19.5,9.7L19.5,12.1L23.1,12.1L23.1,13L18.4,13L18.4,5.7L23.0,5.7L23.0,6.6L19.5,6.6L19.5,8.8L22.6,8.8L22.6,9.7ZM24.4,5.7L25.5,5.7L25.5,12.0L29.0,12.0L29.0,13L24.4,13L24.4,5.7ZM34.3,9.7L31.2,9.7L31.2,12.1L34.8,12.1L34.8,13L30.1,13L30.1,5.7L34.7,5.7L34.7,6.6L31.2,6.6L31.2,8.8L34.3,8.8L34.3,9.7ZM39.1,5.7L42.0,13L40.9,13L40.1,11.0L37.1,11.0L36.4,13L35.3,13L38.2,5.7L39.1,5.7ZM39.8,10.1L38.6,7.1L37.5,10.1L39.8,10.1ZM47.6,10.9Q47.6,11.6,47.3,12.1Q47,12.6,46.4,12.8Q45.9,13.1,45.1,13.1Q44.0,13.1,43.3,12.6Q42.5,12.1,42.2,11.3L43.1,10.8Q43.4,11.4,43.9,11.8Q44.4,12.1,45.1,12.1Q45.8,12.1,46.2,11.8Q46.5,11.6,46.5,11.1Q46.5,10.6,46.3,10.4Q46.0,10.1,45.7,10.0Q45.4,9.8,44.8,9.6Q44.0,9.4,43.6,9.2Q43.2,9.0,42.9,8.6Q42.5,8.3,42.5,7.6Q42.5,7.0,42.9,6.5Q43.2,6.0,43.8,5.8Q44.4,5.6,45.1,5.6Q46.1,5.6,46.7,6.0Q47.3,6.4,47.5,7.1L46.7,7.6Q46.2,6.5,45.0,6.5Q44.4,6.5,44.1,6.8Q43.7,7.1,43.7,7.5Q43.7,7.9,43.9,8.1Q44.1,8.3,44.4,8.5Q44.8,8.6,45.3,8.8Q46.1,9.0,46.5,9.2Q47.0,9.4,47.3,9.8Q47.6,10.2,47.6,10.9ZM52.9,9.7L49.8,9.7L49.8,12.1L53.4,12.1L53.4,13L48.7,13L48.7,5.7L53.3,5.7L53.3,6.6L49.8,6.6L49.8,8.8L52.9,8.8L52.9,9.7ZM62.1,5.7L63.2,5.7L63.2,10.0Q63.2,11.0,62.9,11.7Q62.5,12.4,61.9,12.7Q61.2,13.1,60.3,13.1Q59.4,13.1,58.7,12.7Q58.0,12.4,57.7,11.7Q57.4,11.0,57.4,10.0L57.4,5.7L58.4,5.7L58.4,9.8Q58.4,11.0,58.9,11.5Q59.4,12.1,60.3,12.1Q61.2,12.1,61.7,11.5Q62.1,11.0,62.1,9.8L62.1,5.7ZM67.2,5.7Q68.0,5.7,68.6,6.0Q69.2,6.3,69.5,6.8Q69.8,7.3,69.8,8Q69.8,8.7,69.5,9.2Q69.2,9.7,68.6,10.0Q68.0,10.3,67.2,10.3L65.9,10.3L65.9,13L64.8,13L64.8,5.7L67.2,5.7ZM67.0,9.4Q67.8,9.4,68.3,9.0Q68.7,8.6,68.7,8Q68.7,7.4,68.3,7.0Q67.8,6.6,67.0,6.6L65.9,6.6L65.9,9.4L67.0,9.4ZM73.0,5.7Q74.1,5.7,75.0,6.1Q75.8,6.5,76.3,7.4Q76.8,8.2,76.8,9.3Q76.8,10.5,76.3,11.3Q75.8,12.1,75.0,12.6Q74.1,13,73.0,13L70.9,13L70.9,5.7L73.0,5.7ZM72.9,12.1Q74.2,12.1,75.0,11.3Q75.7,10.6,75.7,9.3Q75.7,8.0,75.0,7.3Q74.2,6.6,72.9,6.6L72.0,6.6L72.0,12.1L72.9,12.1ZM80.8,5.7L83.7,13L82.5,13L81.8,11.0L78.8,11.0L78.1,13L77.0,13L79.8,5.7L80.8,5.7ZM81.4,10.1L80.3,7.1L79.2,10.1L81.4,10.1ZM83.0,5.7L88.6,5.7L88.6,6.6L86.4,6.6L86.4,13L85.3,13L85.3,6.6L83.0,6.6L83.0,5.7ZM93.8,9.7L90.7,9.7L90.7,12.1L94.3,12.1L94.3,13L89.6,13L89.6,5.7L94.2,5.7L94.2,6.6L90.7,6.6L90.7,8.8L93.8,8.8L93.8,9.7ZM103.4,9.5L103.4,12.4L107.0,12.4L107.0,13.4L97.9,13.4L97.9,12.4L99.4,12.4L99.4,7.5L100.3,7.5L100.3,12.4L102.4,12.4L102.4,6.2L98.4,6.2L98.4,5.3L106.7,5.3L106.7,6.2L103.4,6.2L103.4,8.5L106.3,8.5L106.3,9.5L103.4,9.5ZM116.9,11.1Q116.7,12.0,116.6,12.4Q116.4,13.2,116.2,13.4Q115.9,13.7,115.5,13.7Q115.0,13.7,114.7,13.4Q114.4,13.2,114.0,12.5Q113.6,11.8,113.3,10.4Q113.0,9.1,112.9,7.2L108.0,7.2L108.0,6.3L112.9,6.3Q112.9,5.0,112.8,4.6L113.8,4.6Q113.8,5.2,113.8,6.3L115.6,6.3Q115.4,6.0,115.0,5.7Q114.7,5.4,114.4,5.2L115.0,4.6Q115.2,4.8,115.6,5.1Q116.0,5.4,116.2,5.6L115.7,6.3L116.8,6.3L116.8,7.2L113.9,7.2Q114.0,9.1,114.3,10.3Q114.5,11.6,115.0,12.2Q115.2,12.6,115.4,12.6Q115.6,12.6,115.7,12.5Q115.8,12.4,115.8,11.9Q116.0,11.2,116.1,10.8L116.9,11.1ZM110.9,11.8L112.4,11.6L112.9,11.5L113.0,12.4Q109.9,12.9,108.1,13.1L107.9,12.2L110.0,11.9L110.0,9.5L108.2,9.5L108.2,8.6L112.6,8.6L112.6,9.5L110.9,9.5L110.9,11.8ZM125.4,11.5Q126.1,12.3,127.1,13.0L126.7,13.8Q125.5,13.0,124.8,12.2Q124.1,13.0,122.8,13.9L122.3,13.1Q123.5,12.3,124.3,11.4Q123.4,10.1,123.1,8.3L123.0,8.3Q123.0,9.5,122.9,10.4Q122.8,11.2,122.5,12.0Q122.3,12.7,121.9,13.6L121.2,13.0L121.2,13.7L120.3,13.7L120.3,10.3L119.4,10.3Q119.4,11.5,119.2,12.3Q119,13.1,118.6,13.9L117.8,13.4Q118.1,12.8,118.3,12.2Q118.5,11.6,118.5,10.8Q118.6,10.1,118.6,8.7L118.6,4.8L119.4,4.8L119.4,7.4L120.3,7.4L120.3,4.7L121.2,4.7L121.2,7.4L121.8,7.4L121.8,8.3L119.4,8.3L119.4,9.0L119.4,9.4L121.2,9.4L121.2,12.9Q121.7,11.8,121.9,10.8Q122.2,9.8,122.2,8.2L122.2,5.4Q123.2,5.4,124.4,5.2Q125.5,5.0,126.6,4.8L126.8,5.7Q125.9,5.9,124.9,6.1Q123.9,6.2,123.0,6.3L123.0,7.4L126.6,7.4L126.6,8.3Q126.4,9.3,126.1,10.1Q125.8,10.9,125.4,11.5ZM123.9,8.3Q124.2,9.7,124.8,10.8Q125.4,9.8,125.7,8.3L123.9,8.3ZM136.8,13.8Q135.0,13.6,133.8,13.4Q132.5,13.2,131.6,12.7Q131.1,13.1,130.3,13.4Q129.5,13.7,128.3,13.9L128.0,13.1Q129.8,12.6,130.6,12.2Q129.9,11.8,129.3,11.2L129.9,10.6Q130.7,11.3,131.4,11.7Q131.8,11.3,131.9,10.5L128.9,10.5L128.9,6.6L132.0,6.6L132.0,5.9L128.2,5.9L128.2,5L136.8,5L136.8,5.9L132.9,5.9L132.9,6.6L136.1,6.6L136.1,10.5L132.9,10.5Q132.8,11.5,132.3,12.1Q133.1,12.4,134.2,12.6Q135.3,12.8,137,12.8L136.8,13.8ZM132.0,8.2L132.0,7.4L129.8,7.4L129.8,8.2L132.0,8.2ZM135.2,8.2L135.2,7.4L132.9,7.4L132.9,8.2L135.2,8.2ZM129.8,8.9L129.8,9.7L132.0,9.7L132.0,9.6L132.0,8.9L129.8,8.9ZM132.9,9.7L135.2,9.7L135.2,8.9L132.9,8.9L132.9,9.6L132.9,9.7ZM142.6,10.3L140.8,10.3L140.8,12.7Q140.8,13.1,140.7,13.3Q140.7,13.5,140.5,13.6Q140.3,13.7,139.9,13.7Q139.4,13.7,139.1,13.7L138.9,12.8Q139.1,12.9,139.2,12.9Q139.4,12.9,139.6,12.9Q139.8,12.9,139.9,12.8Q140.0,12.7,140.0,12.3L140.0,10.3L138.0,10.3L138.0,9.5L140.0,9.5L140.0,8.5L137.9,8.5L137.9,7.7L139.1,7.7Q139.0,7.1,138.8,6.4L138.1,6.4L138.1,5.5L140.0,5.5L139.6,4.7L140.5,4.5Q140.7,5.0,140.9,5.5L142.6,5.5L142.6,6.4L142.0,6.4Q141.8,7.0,141.6,7.7L142.7,7.7L142.7,8.5L140.8,8.5L140.8,9.5L142.6,9.5L142.6,10.3ZM147.0,7.8L147.0,8.7L146.0,8.7L146.0,13.7L145.2,13.7L145.2,8.7L144.0,8.7L144.0,8.8Q144.0,10.2,143.9,11.0Q143.8,11.8,143.6,12.4Q143.3,13.1,142.8,13.9L142.0,13.3Q142.5,12.7,142.7,12.1Q142.9,11.5,143.0,10.7Q143.1,9.9,143.1,8.7L143.1,5.5Q144.1,5.4,145.0,5.2Q145.9,5.0,146.6,4.8L146.8,5.7Q146.3,5.8,145.5,6.0Q144.7,6.2,144.0,6.3L144.0,7.8L147.0,7.8ZM139.6,6.4Q139.8,7.2,139.9,7.7L140.8,7.7Q141,7.1,141.2,6.4L139.6,6.4ZM141.9,10.7Q142.1,11.1,142.4,11.9Q142.4,12.0,142.4,12.1Q142.5,12.2,142.5,12.3L141.8,12.6Q141.6,12.1,141.2,10.9L141.9,10.7ZM139.5,10.9Q139.3,11.5,139.0,12.2Q138.7,12.8,138.5,13.3L137.8,12.9Q138.0,12.5,138.3,11.9Q138.5,11.3,138.7,10.7L139.5,10.9ZM164.8,13L163.5,13L161.5,10.1L161.4,10.1L160.2,10.1L160.2,13L159.1,13L159.1,5.7L161.4,5.7Q162.2,5.7,162.8,6.0Q163.4,6.2,163.8,6.7Q164.1,7.2,164.1,7.9Q164.1,8.6,163.7,9.2Q163.3,9.7,162.6,9.9L164.8,13ZM160.2,6.6L160.2,9.2L161.3,9.2Q162.1,9.2,162.5,8.8Q163.0,8.5,163.0,7.9Q163.0,7.3,162.5,7.0Q162.1,6.6,161.3,6.6L160.2,6.6ZM169.9,9.7L166.7,9.7L166.7,12.1L170.3,12.1L170.3,13L165.7,13L165.7,5.7L170.2,5.7L170.2,6.6L166.7,6.6L166.7,8.8L169.9,8.8L169.9,9.7ZM171.7,5.7L172.7,5.7L172.7,12.0L176.2,12.0L176.2,13L171.7,13L171.7,5.7ZM181.6,9.7L178.4,9.7L178.4,12.1L182.1,12.1L182.1,13L177.4,13L177.4,5.7L181.9,5.7L181.9,6.6L178.4,6.6L178.4,8.8L181.6,8.8L181.6,9.7ZM186.3,5.7L189.3,13L188.1,13L187.4,11.0L184.4,11.0L183.7,13L182.6,13L185.4,5.7L186.3,5.7ZM187,10.1L185.8,7.1L184.7,10.1L187,10.1ZM194.9,10.9Q194.9,11.6,194.6,12.1Q194.2,12.6,193.7,12.8Q193.1,13.1,192.3,13.1Q191.3,13.1,190.5,12.6Q189.7,12.1,189.5,11.3L190.4,10.8Q190.6,11.4,191.1,11.8Q191.6,12.1,192.4,12.1Q193.0,12.1,193.4,11.8Q193.8,11.6,193.8,11.1Q193.8,10.6,193.5,10.4Q193.3,10.1,192.9,10.0Q192.6,9.8,192,9.6Q191.3,9.4,190.8,9.2Q190.4,9.0,190.1,8.6Q189.8,8.3,189.8,7.6Q189.8,7.0,190.1,6.5Q190.5,6.0,191.1,5.8Q191.6,5.6,192.3,5.6Q193.3,5.6,193.9,6.0Q194.6,6.4,194.8,7.1L193.9,7.6Q193.5,6.5,192.3,6.5Q191.7,6.5,191.3,6.8Q190.9,7.1,190.9,7.5Q190.9,7.9,191.1,8.1Q191.4,8.3,191.7,8.5Q192.0,8.6,192.6,8.8Q193.3,9.0,193.8,9.2Q194.2,9.4,194.6,9.8Q194.9,10.2,194.9,10.9ZM200.2,9.7L197.1,9.7L197.1,12.1L200.7,12.1L200.7,13L196.0,13L196.0,5.7L200.6,5.7L200.6,6.6L197.1,6.6L197.1,8.8L200.2,8.8L200.2,9.7ZM209.4,5.7L210.5,5.7L210.5,10.0Q210.5,11.0,210.1,11.7Q209.8,12.4,209.1,12.7Q208.5,13.1,207.5,13.1Q206.6,13.1,206.0,12.7Q205.3,12.4,204.9,11.7Q204.6,11.0,204.6,10.0L204.6,5.7L205.7,5.7L205.7,9.8Q205.7,11.0,206.2,11.5Q206.6,12.1,207.5,12.1Q208.4,12.1,208.9,11.5Q209.4,11.0,209.4,9.8L209.4,5.7ZM214.4,5.7Q215.2,5.7,215.8,6.0Q216.4,6.3,216.8,6.8Q217.1,7.3,217.1,8Q217.1,8.7,216.8,9.2Q216.4,9.7,215.8,10.0Q215.2,10.3,214.4,10.3L213.2,10.3L213.2,13L212.1,13L212.1,5.7L214.4,5.7ZM214.3,9.4Q215.1,9.4,215.5,9.0Q215.9,8.6,215.9,8Q215.9,7.4,215.5,7.0Q215.1,6.6,214.3,6.6L213.2,6.6L213.2,9.4L214.3,9.4ZM220.3,5.7Q221.4,5.7,222.2,6.1Q223.1,6.5,223.6,7.4Q224.1,8.2,224.1,9.3Q224.1,10.5,223.6,11.3Q223.1,12.1,222.2,12.6Q221.4,13,220.3,13L218.2,13L218.2,5.7L220.3,5.7ZM220.2,12.1Q221.5,12.1,222.2,11.3Q222.9,10.6,222.9,9.3Q222.9,8.0,222.2,7.3Q221.5,6.6,220.2,6.6L219.2,6.6L219.2,12.1L220.2,12.1ZM228.0,5.7L231.0,13L229.8,13L229.0,11.0L226.1,11.0L225.3,13L224.3,13L227.1,5.7L228.0,5.7ZM228.7,10.1L227.5,7.1L226.4,10.1L228.7,10.1ZM230.3,5.7L235.9,5.7L235.9,6.6L233.6,6.6L233.6,13L232.6,13L232.6,6.6L230.3,6.6L230.3,5.7ZM241.1,9.7L237.9,9.7L237.9,12.1L241.5,12.1L241.5,13L236.8,13L236.8,5.7L241.4,5.7L241.4,6.6L237.9,6.6L237.9,8.8L241.1,8.8L241.1,9.7ZM250.6,9.5L250.6,12.4L254.2,12.4L254.2,13.4L245.2,13.4L245.2,12.4L246.6,12.4L246.6,7.5L247.6,7.5L247.6,12.4L249.6,12.4L249.6,6.2L245.6,6.2L245.6,5.3L253.9,5.3L253.9,6.2L250.6,6.2L250.6,8.5L253.6,8.5L253.6,9.5L250.6,9.5ZM264.1,11.1Q264.0,12.0,263.9,12.4Q263.7,13.2,263.4,13.4Q263.1,13.7,262.7,13.7Q262.3,13.7,262.0,13.4Q261.6,13.2,261.3,12.5Q260.9,11.8,260.6,10.4Q260.3,9.1,260.2,7.2L255.3,7.2L255.3,6.3L260.1,6.3Q260.1,5.0,260.1,4.6L261.1,4.6Q261.1,5.2,261.1,6.3L262.9,6.3Q262.6,6.0,262.3,5.7Q261.9,5.4,261.6,5.2L262.2,4.6Q262.5,4.8,262.9,5.1Q263.2,5.4,263.4,5.6L262.9,6.3L264.1,6.3L264.1,7.2L261.1,7.2Q261.3,9.1,261.5,10.3Q261.8,11.6,262.2,12.2Q262.4,12.6,262.7,12.6Q262.8,12.6,262.9,12.5Q263.0,12.4,263.1,11.9Q263.2,11.2,263.3,10.8L264.1,11.1ZM258.2,11.8L259.7,11.6L260.2,11.5L260.2,12.4Q257.1,12.9,255.3,13.1L255.2,12.2L257.2,11.9L257.2,9.5L255.5,9.5L255.5,8.6L259.8,8.6L259.8,9.5L258.2,9.5L258.2,11.8ZM272.6,11.5Q273.3,12.3,274.4,13.0L273.9,13.8Q272.8,13.0,272.1,12.2Q271.4,13.0,270.1,13.9L269.5,13.1Q270.8,12.3,271.5,11.4Q270.7,10.1,270.3,8.3L270.2,8.3Q270.2,9.5,270.1,10.4Q270.0,11.2,269.8,12.0Q269.6,12.7,269.1,13.6L268.4,13.0L268.4,13.7L267.6,13.7L267.6,10.3L266.7,10.3Q266.6,11.5,266.4,12.3Q266.2,13.1,265.8,13.9L265.0,13.4Q265.4,12.8,265.5,12.2Q265.7,11.6,265.8,10.8Q265.8,10.1,265.8,8.7L265.8,4.8L266.7,4.8L266.7,7.4L267.6,7.4L267.6,4.7L268.4,4.7L268.4,7.4L269.0,7.4L269.0,8.3L266.7,8.3L266.7,9.0L266.7,9.4L268.4,9.4L268.4,12.9Q269.0,11.8,269.2,10.8Q269.4,9.8,269.4,8.2L269.4,5.4Q270.4,5.4,271.6,5.2Q272.8,5.0,273.9,4.8L274.0,5.7Q273.2,5.9,272.1,6.1Q271.1,6.2,270.2,6.3L270.2,7.4L273.9,7.4L273.9,8.3Q273.6,9.3,273.3,10.1Q273.0,10.9,272.6,11.5ZM271.1,8.3Q271.4,9.7,272.1,10.8Q272.7,9.8,273.0,8.3L271.1,8.3ZM284.1,13.8Q282.2,13.6,281.0,13.4Q279.8,13.2,278.8,12.7Q278.3,13.1,277.5,13.4Q276.7,13.7,275.6,13.9L275.2,13.1Q277.1,12.6,277.9,12.2Q277.2,11.8,276.5,11.2L277.2,10.6Q277.9,11.3,278.6,11.7Q279.1,11.3,279.2,10.5L276.1,10.5L276.1,6.6L279.2,6.6L279.2,5.9L275.4,5.9L275.4,5L284.0,5L284.0,5.9L280.2,5.9L280.2,6.6L283.3,6.6L283.3,10.5L280.1,10.5Q280,11.5,279.5,12.1Q280.3,12.4,281.5,12.6Q282.6,12.8,284.2,12.8L284.1,13.8ZM279.2,8.2L279.2,7.4L277.1,7.4L277.1,8.2L279.2,8.2ZM282.4,8.2L282.4,7.4L280.2,7.4L280.2,8.2L282.4,8.2ZM277.1,8.9L277.1,9.7L279.2,9.7L279.2,9.6L279.2,8.9L277.1,8.9ZM280.2,9.7L282.4,9.7L282.4,8.9L280.2,8.9L280.2,9.6L280.2,9.7ZM289.8,10.3L288.1,10.3L288.1,12.7Q288.1,13.1,288.0,13.3Q287.9,13.5,287.7,13.6Q287.5,13.7,287.1,13.7Q286.7,13.7,286.3,13.7L286.2,12.8Q286.3,12.9,286.4,12.9Q286.7,12.9,286.9,12.9Q287.1,12.9,287.2,12.8Q287.2,12.7,287.2,12.3L287.2,10.3L285.3,10.3L285.3,9.5L287.2,9.5L287.2,8.5L285.1,8.5L285.1,7.7L286.3,7.7Q286.2,7.1,286.1,6.4L285.4,6.4L285.4,5.5L287.2,5.5L286.9,4.7L287.7,4.5Q288.0,5.0,288.2,5.5L289.8,5.5L289.8,6.4L289.2,6.4Q289.1,7.0,288.9,7.7L289.9,7.7L289.9,8.5L288.1,8.5L288.1,9.5L289.8,9.5L289.8,10.3ZM294.3,7.8L294.3,8.7L293.3,8.7L293.3,13.7L292.4,13.7L292.4,8.7L291.2,8.7L291.2,8.8Q291.2,10.2,291.1,11.0Q291.1,11.8,290.8,12.4Q290.6,13.1,290.1,13.9L289.2,13.3Q289.7,12.7,290.0,12.1Q290.2,11.5,290.3,10.7Q290.4,9.9,290.4,8.7L290.4,5.5Q291.3,5.4,292.2,5.2Q293.2,5.0,293.8,4.8L294.1,5.7Q293.6,5.8,292.8,6.0Q292.0,6.2,291.2,6.3L291.2,7.8L294.3,7.8ZM286.8,6.4Q287.0,7.2,287.1,7.7L288.1,7.7Q288.2,7.1,288.4,6.4L286.8,6.4ZM289.1,10.7Q289.3,11.1,289.6,11.9Q289.7,12.0,289.7,12.1Q289.7,12.2,289.8,12.3L289.0,12.6Q288.9,12.1,288.4,10.9L289.1,10.7ZM286.7,10.9Q286.5,11.5,286.3,12.2Q286.0,12.8,285.7,13.3L285.0,12.9Q285.3,12.5,285.5,11.9Q285.8,11.3,286.0,10.7L286.7,10.9ZM312.1,13L310.8,13L308.8,10.1L308.7,10.1L307.4,10.1L307.4,13L306.3,13L306.3,5.7L308.7,5.7Q309.5,5.7,310.1,6.0Q310.7,6.2,311.0,6.7Q311.3,7.2,311.3,7.9Q311.3,8.6,310.9,9.2Q310.6,9.7,309.9,9.9L312.1,13ZM307.4,6.6L307.4,9.2L308.6,9.2Q309.3,9.2,309.8,8.8Q310.2,8.5,310.2,7.9Q310.2,7.3,309.8,7.0Q309.3,6.6,308.6,6.6L307.4,6.6ZM317.1,9.7L314.0,9.7L314.0,12.1L317.6,12.1L317.6,13L312.9,13L312.9,5.7L317.5,5.7L317.5,6.6L314.0,6.6L314.0,8.8L317.1,8.8L317.1,9.7ZM318.9,5.7L320.0,5.7L320.0,12.0L323.5,12.0L323.5,13L318.9,13L318.9,5.7ZM328.8,9.7L325.7,9.7L325.7,12.1L329.3,12.1L329.3,13L324.6,13L324.6,5.7L329.2,5.7L329.2,6.6L325.7,6.6L325.7,8.8L328.8,8.8L328.8,9.7ZM333.6,5.7L336.5,13L335.4,13L334.6,11.0L331.6,11.0L330.9,13L329.8,13L332.7,5.7L333.6,5.7ZM334.2,10.1L333.1,7.1L332.0,10.1L334.2,10.1ZM342.1,10.9Q342.1,11.6,341.8,12.1Q341.5,12.6,340.9,12.8Q340.4,13.1,339.6,13.1Q338.6,13.1,337.8,12.6Q337.0,12.1,336.7,11.3L337.6,10.8Q337.9,11.4,338.4,11.8Q338.9,12.1,339.6,12.1Q340.3,12.1,340.7,11.8Q341.0,11.6,341.0,11.1Q341.0,10.6,340.8,10.4Q340.6,10.1,340.2,10.0Q339.9,9.8,339.2,9.6Q338.5,9.4,338.1,9.2Q337.7,9.0,337.4,8.6Q337.1,8.3,337.1,7.6Q337.1,7.0,337.4,6.5Q337.7,6.0,338.3,5.8Q338.9,5.6,339.6,5.6Q340.6,5.6,341.2,6.0Q341.8,6.4,342.0,7.1L341.2,7.6Q340.7,6.5,339.6,6.5Q338.9,6.5,338.6,6.8Q338.2,7.1,338.2,7.5Q338.2,7.9,338.4,8.1Q338.6,8.3,338.9,8.5Q339.3,8.6,339.8,8.8Q340.6,9.0,341.0,9.2Q341.5,9.4,341.8,9.8Q342.1,10.2,342.1,10.9ZM347.4,9.7L344.3,9.7L344.3,12.1L347.9,12.1L347.9,13L343.2,13L343.2,5.7L347.8,5.7L347.8,6.6L344.3,6.6L344.3,8.8L347.4,8.8L347.4,9.7ZM356.6,5.7L357.7,5.7L357.7,10.0Q357.7,11.0,357.4,11.7Q357.0,12.4,356.4,12.7Q355.7,13.1,354.8,13.1Q353.9,13.1,353.2,12.7Q352.6,12.4,352.2,11.7Q351.9,11.0,351.9,10.0L351.9,5.7L352.9,5.7L352.9,9.8Q352.9,11.0,353.4,11.5Q353.9,12.1,354.8,12.1Q355.7,12.1,356.2,11.5Q356.6,11.0,356.6,9.8L356.6,5.7ZM361.7,5.7Q362.4,5.7,363.1,6.0Q363.7,6.3,364.0,6.8Q364.3,7.3,364.3,8Q364.3,8.7,364.0,9.2Q363.7,9.7,363.1,10.0Q362.5,10.3,361.7,10.3L360.4,10.3L360.4,13L359.3,13L359.3,5.7L361.7,5.7ZM361.5,9.4Q362.3,9.4,362.8,9.0Q363.2,8.6,363.2,8Q363.2,7.4,362.8,7.0Q362.3,6.6,361.5,6.6L360.4,6.6L360.4,9.4L361.5,9.4ZM367.6,5.7Q368.6,5.7,369.5,6.1Q370.3,6.5,370.8,7.4Q371.3,8.2,371.3,9.3Q371.3,10.5,370.8,11.3Q370.3,12.1,369.5,12.6Q368.6,13,367.6,13L365.4,13L365.4,5.7L367.6,5.7ZM367.4,12.1Q368.7,12.1,369.5,11.3Q370.2,10.6,370.2,9.3Q370.2,8.0,369.5,7.3Q368.7,6.6,367.4,6.6L366.5,6.6L366.5,12.1L367.4,12.1ZM375.3,5.7L378.2,13L377.0,13L376.3,11.0L373.3,11.0L372.6,13L371.5,13L374.4,5.7L375.3,5.7ZM375.9,10.1L374.8,7.1L373.7,10.1L375.9,10.1ZM377.6,5.7L383.1,5.7L383.1,6.6L380.9,6.6L380.9,13L379.8,13L379.8,6.6L377.6,6.6L377.6,5.7ZM388.3,9.7L385.2,9.7L385.2,12.1L388.8,12.1L388.8,13L384.1,13L384.1,5.7L388.7,5.7L388.7,6.6L385.2,6.6L385.2,8.8L388.3,8.8L388.3,9.7ZM397.9,9.5L397.9,12.4L401.5,12.4L401.5,13.4L392.4,13.4L392.4,12.4L393.9,12.4L393.9,7.5L394.8,7.5L394.8,12.4L396.9,12.4L396.9,6.2L392.9,6.2L392.9,5.3L401.2,5.3L401.2,6.2L397.9,6.2L397.9,8.5L400.8,8.5L400.8,9.5L397.9,9.5ZM411.4,11.1Q411.2,12.0,411.1,12.4Q410.9,13.2,410.6,13.4Q410.4,13.7,410.0,13.7Q409.6,13.7,409.2,13.4Q408.9,13.2,408.5,12.5Q408.1,11.8,407.8,10.4Q407.5,9.1,407.4,7.2L402.5,7.2L402.5,6.3L407.4,6.3Q407.4,5.0,407.3,4.6L408.3,4.6Q408.3,5.2,408.3,6.3L410.1,6.3Q409.9,6.0,409.5,5.7Q409.2,5.4,408.9,5.2L409.5,4.6Q409.7,4.8,410.1,5.1Q410.5,5.4,410.7,5.6L410.1,6.3L411.3,6.3L411.3,7.2L408.4,7.2Q408.5,9.1,408.8,10.3Q409.0,11.6,409.5,12.2Q409.7,12.6,409.9,12.6Q410.1,12.6,410.2,12.5Q410.3,12.4,410.4,11.9Q410.5,11.2,410.6,10.8L411.4,11.1ZM405.4,11.8L406.9,11.6L407.4,11.5L407.5,12.4Q404.4,12.9,402.6,13.1L402.4,12.2L404.4,11.9L404.4,9.5L402.8,9.5L402.8,8.6L407.1,8.6L407.1,9.5L405.4,9.5L405.4,11.8ZM419.9,11.5Q420.6,12.3,421.6,13.0L421.2,13.8Q420.0,13.0,419.3,12.2Q418.6,13.0,417.4,13.9L416.8,13.1Q418.1,12.3,418.8,11.4Q417.9,10.1,417.6,8.3L417.5,8.3Q417.5,9.5,417.4,10.4Q417.3,11.2,417.0,12.0Q416.8,12.7,416.4,13.6L415.7,13.0L415.7,13.7L414.8,13.7L414.8,10.3L413.9,10.3Q413.9,11.5,413.7,12.3Q413.5,13.1,413.1,13.9L412.3,13.4Q412.6,12.8,412.8,12.2Q413.0,11.6,413.0,10.8Q413.1,10.1,413.1,8.7L413.1,4.8L413.9,4.8L413.9,7.4L414.8,7.4L414.8,4.7L415.7,4.7L415.7,7.4L416.3,7.4L416.3,8.3L413.9,8.3L413.9,9.0L413.9,9.4L415.7,9.4L415.7,12.9Q416.2,11.8,416.4,10.8Q416.6,9.8,416.6,8.2L416.6,5.4Q417.7,5.4,418.9,5.2Q420.0,5.0,421.1,4.8L421.3,5.7Q420.4,5.9,419.4,6.1Q418.4,6.2,417.5,6.3L417.5,7.4L421.1,7.4L421.1,8.3Q420.9,9.3,420.6,10.1Q420.3,10.9,419.9,11.5ZM418.4,8.3Q418.7,9.7,419.3,10.8Q419.9,9.8,420.2,8.3L418.4,8.3ZM431.3,13.8Q429.5,13.6,428.3,13.4Q427.0,13.2,426.1,12.7Q425.6,13.1,424.8,13.4Q424.0,13.7,422.8,13.9L422.4,13.1Q424.3,12.6,425.1,12.2Q424.4,11.8,423.8,11.2L424.4,10.6Q425.2,11.3,425.9,11.7Q426.3,11.3,426.4,10.5L423.4,10.5L423.4,6.6L426.5,6.6L426.5,5.9L422.7,5.9L422.7,5L431.3,5L431.3,5.9L427.4,5.9L427.4,6.6L430.6,6.6L430.6,10.5L427.4,10.5Q427.2,11.5,426.8,12.1Q427.6,12.4,428.7,12.6Q429.8,12.8,431.5,12.8L431.3,13.8ZM426.5,8.2L426.5,7.4L424.3,7.4L424.3,8.2L426.5,8.2ZM429.6,8.2L429.6,7.4L427.4,7.4L427.4,8.2L429.6,8.2ZM424.3,8.9L424.3,9.7L426.5,9.7L426.5,9.6L426.5,8.9L424.3,8.9ZM427.4,9.7L429.6,9.7L429.6,8.9L427.4,8.9L427.4,9.6L427.4,9.7ZM437.1,10.3L435.3,10.3L435.3,12.7Q435.3,13.1,435.2,13.3Q435.2,13.5,435.0,13.6Q434.8,13.7,434.4,13.7Q433.9,13.7,433.6,13.7L433.4,12.8Q433.6,12.9,433.6,12.9Q433.9,12.9,434.1,12.9Q434.4,12.9,434.4,12.8Q434.5,12.7,434.5,12.3L434.5,10.3L432.5,10.3L432.5,9.5L434.5,9.5L434.5,8.5L432.4,8.5L432.4,7.7L433.6,7.7Q433.5,7.1,433.3,6.4L432.6,6.4L432.6,5.5L434.5,5.5L434.1,4.7L435.0,4.5Q435.2,5.0,435.4,5.5L437.1,5.5L437.1,6.4L436.5,6.4Q436.3,7.0,436.1,7.7L437.2,7.7L437.2,8.5L435.3,8.5L435.3,9.5L437.1,9.5L437.1,10.3ZM441.5,7.8L441.5,8.7L440.5,8.7L440.5,13.7L439.7,13.7L439.7,8.7L438.5,8.7L438.5,8.8Q438.5,10.2,438.4,11.0Q438.3,11.8,438.1,12.4Q437.8,13.1,437.3,13.9L436.5,13.3Q437.0,12.7,437.2,12.1Q437.4,11.5,437.5,10.7Q437.6,9.9,437.6,8.7L437.6,5.5Q438.6,5.4,439.5,5.2Q440.4,5.0,441.1,4.8L441.4,5.7Q440.8,5.8,440.0,6.0Q439.2,6.2,438.5,6.3L438.5,7.8L441.5,7.8ZM434.1,6.4Q434.3,7.2,434.4,7.7L435.3,7.7Q435.5,7.1,435.7,6.4L434.1,6.4ZM436.4,10.7Q436.6,11.1,436.9,11.9Q436.9,12.0,436.9,12.1Q437.0,12.2,437.0,12.3L436.3,12.6Q436.1,12.1,435.7,10.9L436.4,10.7ZM434.0,10.9Q433.8,11.5,433.5,12.2Q433.2,12.8,433.0,13.3L432.3,12.9Q432.5,12.5,432.8,11.9Q433.0,11.3,433.2,10.7L434.0,10.9ZM459.3,13L458.0,13L456,10.1L455.9,10.1L454.7,10.1L454.7,13L453.6,13L453.6,5.7L455.9,5.7Q456.7,5.7,457.3,6.0Q457.9,6.2,458.3,6.7Q458.6,7.2,458.6,7.9Q458.6,8.6,458.2,9.2Q457.8,9.7,457.1,9.9L459.3,13ZM454.7,6.6L454.7,9.2L455.8,9.2Q456.6,9.2,457.0,8.8Q457.5,8.5,457.5,7.9Q457.5,7.3,457.0,7.0Q456.6,6.6,455.8,6.6L454.7,6.6ZM464.4,9.7L461.2,9.7L461.2,12.1L464.8,12.1L464.8,13L460.1,13L460.1,5.7L464.7,5.7L464.7,6.6L461.2,6.6L461.2,8.8L464.4,8.8L464.4,9.7ZM466.1,5.7L467.2,5.7L467.2,12.0L470.7,12.0L470.7,13L466.1,13L466.1,5.7ZM476.1,9.7L472.9,9.7L472.9,12.1L476.6,12.1L476.6,13L471.9,13L471.9,5.7L476.4,5.7L476.4,6.6L472.9,6.6L472.9,8.8L476.1,8.8L476.1,9.7ZM480.8,5.7L483.8,13L482.6,13L481.9,11.0L478.9,11.0L478.2,13L477.1,13L479.9,5.7L480.8,5.7ZM481.5,10.1L480.3,7.1L479.2,10.1L481.5,10.1ZM489.4,10.9Q489.4,11.6,489.1,12.1Q488.8,12.6,488.2,12.8Q487.6,13.1,486.9,13.1Q485.8,13.1,485.0,12.6Q484.2,12.1,484.0,11.3L484.9,10.8Q485.1,11.4,485.6,11.8Q486.1,12.1,486.9,12.1Q487.5,12.1,487.9,11.8Q488.3,11.6,488.3,11.1Q488.3,10.6,488.0,10.4Q487.8,10.1,487.4,10.0Q487.1,9.8,486.5,9.6Q485.8,9.4,485.3,9.2Q484.9,9.0,484.6,8.6Q484.3,8.3,484.3,7.6Q484.3,7.0,484.6,6.5Q485.0,6.0,485.6,5.8Q486.1,5.6,486.8,5.6Q487.8,5.6,488.4,6.0Q489.1,6.4,489.3,7.1L488.4,7.6Q488.0,6.5,486.8,6.5Q486.2,6.5,485.8,6.8Q485.4,7.1,485.4,7.5Q485.4,7.9,485.6,8.1Q485.9,8.3,486.2,8.5Q486.5,8.6,487.1,8.8Q487.8,9.0,488.3,9.2Q488.7,9.4,489.1,9.8Q489.4,10.2,489.4,10.9ZM494.7,9.7L491.6,9.7L491.6,12.1L495.2,12.1L495.2,13L490.5,13L490.5,5.7L495.1,5.7L495.1,6.6L491.6,6.6L491.6,8.8L494.7,8.8L494.7,9.7ZM503.9,5.7L505.0,5.7L505.0,10.0Q505.0,11.0,504.6,11.7Q504.3,12.4,503.6,12.7Q503.0,13.1,502.0,13.1Q501.1,13.1,500.5,12.7Q499.8,12.4,499.4,11.7Q499.1,11.0,499.1,10.0L499.1,5.7L500.2,5.7L500.2,9.8Q500.2,11.0,500.7,11.5Q501.1,12.1,502.0,12.1Q502.9,12.1,503.4,11.5Q503.9,11.0,503.9,9.8L503.9,5.7ZM508.9,5.7Q509.7,5.7,510.3,6.0Q510.9,6.3,511.3,6.8Q511.6,7.3,511.6,8Q511.6,8.7,511.3,9.2Q510.9,9.7,510.3,10.0Q509.7,10.3,508.9,10.3L507.6,10.3L507.6,13L506.6,13L506.6,5.7L508.9,5.7ZM508.8,9.4Q509.6,9.4,510.0,9.0Q510.4,8.6,510.4,8Q510.4,7.4,510.0,7.0Q509.6,6.6,508.8,6.6L507.6,6.6L507.6,9.4L508.8,9.4ZM514.8,5.7Q515.9,5.7,516.7,6.1Q517.6,6.5,518.1,7.4Q518.6,8.2,518.6,9.3Q518.6,10.5,518.1,11.3Q517.6,12.1,516.7,12.6Q515.9,13,514.8,13L512.7,13L512.7,5.7L514.8,5.7ZM514.7,12.1Q516.0,12.1,516.7,11.3Q517.4,10.6,517.4,9.3Q517.4,8.0,516.7,7.3Q516.0,6.6,514.7,6.6L513.7,6.6L513.7,12.1L514.7,12.1ZM522.5,5.7L525.5,13L524.3,13L523.5,11.0L520.6,11.0L519.9,13L518.8,13L521.6,5.7L522.5,5.7ZM523.2,10.1L522.0,7.1L520.9,10.1L523.2,10.1ZM524.8,5.7L530.4,5.7L530.4,6.6L528.1,6.6L528.1,13L527.0,13L527.0,6.6L524.8,6.6L524.8,5.7ZM535.5,9.7L532.4,9.7L532.4,12.1L536.0,12.1L536.0,13L531.3,13L531.3,5.7L535.9,5.7L535.9,6.6L532.4,6.6L532.4,8.8L535.5,8.8L535.5,9.7ZM545.1,9.5L545.1,12.4L548.7,12.4L548.7,13.4L539.6,13.4L539.6,12.4L541.1,12.4L541.1,7.5L542.1,7.5L542.1,12.4L544.1,12.4L544.1,6.2L540.1,6.2L540.1,5.3L548.4,5.3L548.4,6.2L545.1,6.2L545.1,8.5L548.1,8.5L548.1,9.5L545.1,9.5ZM558.6,11.1Q558.5,12.0,558.4,12.4Q558.2,13.2,557.9,13.4Q557.6,13.7,557.2,13.7Q556.8,13.7,556.5,13.4Q556.1,13.2,555.8,12.5Q555.4,11.8,555.1,10.4Q554.8,9.1,554.7,7.2L549.8,7.2L549.8,6.3L554.6,6.3Q554.6,5.0,554.6,4.6L555.6,4.6Q555.6,5.2,555.6,6.3L557.4,6.3Q557.1,6.0,556.8,5.7Q556.4,5.4,556.1,5.2L556.7,4.6Q557.0,4.8,557.4,5.1Q557.7,5.4,558.0,5.6L557.4,6.3L558.6,6.3L558.6,7.2L555.6,7.2Q555.8,9.1,556.0,10.3Q556.3,11.6,556.7,12.2Q556.9,12.6,557.2,12.6Q557.3,12.6,557.4,12.5Q557.5,12.4,557.6,11.9Q557.7,11.2,557.8,10.8L558.6,11.1ZM552.7,11.8L554.2,11.6L554.7,11.5L554.7,12.4Q551.6,12.9,549.8,13.1L549.7,12.2L551.7,11.9L551.7,9.5L550,9.5L550,8.6L554.3,8.6L554.3,9.5L552.7,9.5L552.7,11.8ZM567.1,11.5Q567.8,12.3,568.9,13.0L568.4,13.8Q567.3,13.0,566.6,12.2Q565.9,13.0,564.6,13.9L564.0,13.1Q565.3,12.3,566.0,11.4Q565.2,10.1,564.8,8.3L564.7,8.3Q564.7,9.5,564.6,10.4Q564.5,11.2,564.3,12.0Q564.0,12.7,563.6,13.6L562.9,13.0L562.9,13.7L562.1,13.7L562.1,10.3L561.2,10.3Q561.1,11.5,560.9,12.3Q560.8,13.1,560.3,13.9L559.5,13.4Q559.9,12.8,560.0,12.2Q560.2,11.6,560.3,10.8Q560.3,10.1,560.3,8.7L560.3,4.8L561.2,4.8L561.2,7.4L562.1,7.4L562.1,4.7L563.0,4.7L563.0,7.4L563.5,7.4L563.5,8.3L561.2,8.3L561.2,9.0L561.2,9.4L562.9,9.4L562.9,12.9Q563.5,11.8,563.7,10.8Q563.9,9.8,563.9,8.2L563.9,5.4Q564.9,5.4,566.1,5.2Q567.3,5.0,568.4,4.8L568.5,5.7Q567.7,5.9,566.6,6.1Q565.6,6.2,564.7,6.3L564.7,7.4L568.4,7.4L568.4,8.3Q568.1,9.3,567.8,10.1Q567.5,10.9,567.1,11.5ZM565.6,8.3Q566.0,9.7,566.6,10.8Q567.2,9.8,567.5,8.3L565.6,8.3ZM578.5,13.8Q576.7,13.6,575.5,13.4Q574.3,13.2,573.3,12.7Q572.8,13.1,572.0,13.4Q571.2,13.7,570.0,13.9L569.7,13.1Q571.6,12.6,572.4,12.2Q571.7,11.8,571.0,11.2L571.7,10.6Q572.5,11.3,573.1,11.7Q573.6,11.3,573.7,10.5L570.6,10.5L570.6,6.6L573.7,6.6L573.7,5.9L570.0,5.9L570.0,5L578.5,5L578.5,5.9L574.7,5.9L574.7,6.6L577.8,6.6L577.8,10.5L574.6,10.5Q574.5,11.5,574.0,12.1Q574.8,12.4,576.0,12.6Q577.1,12.8,578.8,12.8L578.5,13.8ZM573.7,8.2L573.7,7.4L571.6,7.4L571.6,8.2L573.7,8.2ZM576.9,8.2L576.9,7.4L574.7,7.4L574.7,8.2L576.9,8.2ZM571.6,8.9L571.6,9.7L573.7,9.7L573.7,9.6L573.7,8.9L571.6,8.9ZM574.7,9.7L576.9,9.7L576.9,8.9L574.7,8.9L574.7,9.6L574.7,9.7ZM584.3,10.3L582.6,10.3L582.6,12.7Q582.6,13.1,582.5,13.3Q582.4,13.5,582.2,13.6Q582.0,13.7,581.6,13.7Q581.2,13.7,580.8,13.7L580.7,12.8Q580.8,12.9,580.9,12.9Q581.2,12.9,581.4,12.9Q581.6,12.9,581.7,12.8Q581.7,12.7,581.7,12.3L581.7,10.3L579.8,10.3L579.8,9.5L581.7,9.5L581.7,8.5L579.6,8.5L579.6,7.7L580.8,7.7Q580.7,7.1,580.5,6.4L579.9,6.4L579.9,5.5L581.7,5.5L581.4,4.7L582.2,4.5Q582.5,5.0,582.7,5.5L584.3,5.5L584.3,6.4L583.7,6.4Q583.6,7.0,583.4,7.7L584.5,7.7L584.5,8.5L582.6,8.5L582.6,9.5L584.3,9.5L584.3,10.3ZM588.8,7.8L588.8,8.7L587.8,8.7L587.8,13.7L586.9,13.7L586.9,8.7L585.7,8.7L585.7,8.8Q585.7,10.2,585.6,11.0Q585.6,11.8,585.3,12.4Q585.1,13.1,584.6,13.9L583.7,13.3Q584.2,12.7,584.5,12.1Q584.7,11.5,584.8,10.7Q584.9,9.9,584.9,8.7L584.9,5.5Q585.8,5.4,586.7,5.2Q587.7,5.0,588.3,4.8L588.6,5.7Q588.1,5.8,587.3,6.0Q586.5,6.2,585.7,6.3L585.7,7.8L588.8,7.8ZM581.3,6.4Q581.5,7.2,581.6,7.7L582.6,7.7Q582.8,7.1,582.9,6.4L581.3,6.4ZM583.6,10.7Q583.8,11.1,584.1,11.9Q584.2,12.0,584.2,12.1Q584.2,12.2,584.3,12.3L583.5,12.6Q583.4,12.1,582.9,10.9L583.6,10.7ZM581.2,10.9Q581.0,11.5,580.8,12.2Q580.5,12.8,580.2,13.3L579.5,12.9Q579.8,12.5,580.0,11.9Q580.3,11.3,580.5,10.7L581.2,10.9Z" fill="#FFFFFF" fill-opacity="0.2"/></g><g><path d="M17.6,193L16.3,193L14.2,190.1L14.2,190.1L12.9,190.1L12.9,193L11.8,193L11.8,185.7L14.2,185.7Q15.0,185.7,15.6,186.0Q16.2,186.2,16.5,186.7Q16.8,187.2,16.8,187.9Q16.8,188.6,16.4,189.2Q16.1,189.7,15.4,189.9L17.6,193ZM12.9,186.6L12.9,189.2L14.1,189.2Q14.8,189.2,15.3,188.8Q15.7,188.5,15.7,187.9Q15.7,187.3,15.3,187.0Q14.8,186.6,14.1,186.6L12.9,186.6ZM22.6,189.7L19.5,189.7L19.5,192.1L23.1,192.1L23.1,193L18.4,193L18.4,185.7L23.0,185.7L23.0,186.6L19.5,186.6L19.5,188.8L22.6,188.8L22.6,189.7ZM24.4,185.7L25.5,185.7L25.5,192.0L29.0,192.0L29.0,193L24.4,193L24.4,185.7ZM34.3,189.7L31.2,189.7L31.2,192.1L34.8,192.1L34.8,193L30.1,193L30.1,185.7L34.7,185.7L34.7,186.6L31.2,186.6L31.2,188.8L34.3,188.8L34.3,189.7ZM39.1,185.7L42.0,193L40.9,193L40.1,191.0L37.1,191.0L36.4,193L35.3,193L38.2,185.7L39.1,185.7ZM39.8,190.1L38.6,187.1L37.5,190.1L39.8,190.1ZM47.6,190.9Q47.6,191.6,47.3,192.1Q47,192.6,46.4,192.8Q45.9,193.1,45.1,193.1Q44.0,193.1,43.3,192.6Q42.5,192.1,42.2,191.3L43.1,190.8Q43.4,191.4,43.9,191.8Q44.4,192.1,45.1,192.1Q45.8,192.1,46.2,191.8Q46.5,191.6,46.5,191.1Q46.5,190.6,46.3,190.4Q46.0,190.1,45.7,190.0Q45.4,189.8,44.8,189.6Q44.0,189.4,43.6,189.2Q43.2,189.0,42.9,188.6Q42.5,188.3,42.5,187.6Q42.5,187.0,42.9,186.5Q43.2,186.0,43.8,185.8Q44.4,185.6,45.1,185.6Q46.1,185.6,46.7,186.0Q47.3,186.4,47.5,187.1L46.7,187.6Q46.2,186.5,45.0,186.5Q44.4,186.5,44.1,186.8Q43.7,187.1,43.7,187.6Q43.7,187.9,43.9,188.1Q44.1,188.3,44.4,188.5Q44.8,188.6,45.3,188.8Q46.1,189.0,46.5,189.2Q47.0,189.4,47.3,189.8Q47.6,190.2,47.6,190.9ZM52.9,189.7L49.8,189.7L49.8,192.1L53.4,192.1L53.4,193L48.7,193L48.7,185.7L53.3,185.7L53.3,186.6L49.8,186.6L49.8,188.8L52.9,188.8L52.9,189.7ZM62.1,185.7L63.2,185.7L63.2,190.0Q63.2,191.0,62.9,191.7Q62.5,192.4,61.9,192.7Q61.2,193.1,60.3,193.1Q59.4,193.1,58.7,192.7Q58.0,192.4,57.7,191.7Q57.4,191.0,57.4,190.0L57.4,185.7L58.4,185.7L58.4,189.8Q58.4,191.0,58.9,191.5Q59.4,192.1,60.3,192.1Q61.2,192.1,61.7,191.5Q62.1,191.0,62.1,189.8L62.1,185.7ZM67.2,185.7Q68.0,185.7,68.6,186.0Q69.2,186.3,69.5,186.8Q69.8,187.3,69.8,188Q69.8,188.7,69.5,189.2Q69.2,189.7,68.6,190.0Q68.0,190.3,67.2,190.3L65.9,190.3L65.9,193L64.8,193L64.8,185.7L67.2,185.7ZM67.0,189.4Q67.8,189.4,68.3,189.0Q68.7,188.6,68.7,188Q68.7,187.4,68.3,187.0Q67.8,186.6,67.0,186.6L65.9,186.6L65.9,189.4L67.0,189.4ZM73.0,185.7Q74.1,185.7,75.0,186.1Q75.8,186.5,76.3,187.4Q76.8,188.2,76.8,189.3Q76.8,190.5,76.3,191.3Q75.8,192.1,75.0,192.6Q74.1,193,73.0,193L70.9,193L70.9,185.7L73.0,185.7ZM72.9,192.1Q74.2,192.1,75.0,191.3Q75.7,190.6,75.7,189.3Q75.7,188.0,75.0,187.3Q74.2,186.6,72.9,186.6L72.0,186.6L72.0,192.1L72.9,192.1ZM80.8,185.7L83.7,193L82.5,193L81.8,191.0L78.8,191.0L78.1,193L77.0,193L79.8,185.7L80.8,185.7ZM81.4,190.1L80.3,187.1L79.2,190.1L81.4,190.1ZM83.0,185.7L88.6,185.7L88.6,186.6L86.4,186.6L86.4,193L85.3,193L85.3,186.6L83.0,186.6L83.0,185.7ZM93.8,189.7L90.7,189.7L90.7,192.1L94.3,192.1L94.3,193L89.6,193L89.6,185.7L94.2,185.7L94.2,186.6L90.7,186.6L90.7,188.8L93.8,188.8L93.8,189.7ZM103.4,189.5L103.4,192.4L107.0,192.4L107.0,193.4L97.9,193.4L97.9,192.4L99.4,192.4L99.4,187.5L100.3,187.5L100.3,192.4L102.4,192.4L102.4,186.2L98.4,186.2L98.4,185.3L106.7,185.3L106.7,186.2L103.4,186.2L103.4,188.5L106.3,188.5L106.3,189.5L103.4,189.5ZM116.9,191.1Q116.7,192.0,116.6,192.4Q116.4,193.2,116.2,193.4Q115.9,193.7,115.5,193.7Q115.0,193.7,114.7,193.4Q114.4,193.2,114.0,192.5Q113.6,191.8,113.3,190.4Q113.0,189.1,112.9,187.2L108.0,187.2L108.0,186.3L112.9,186.3Q112.9,184.9,112.8,184.6L113.8,184.6Q113.8,185.2,113.8,186.3L115.6,186.3Q115.4,186.0,115.0,185.7Q114.7,185.4,114.4,185.2L115.0,184.6Q115.2,184.8,115.6,185.1Q116.0,185.4,116.2,185.6L115.7,186.3L116.8,186.3L116.8,187.2L113.9,187.2Q114.0,189.1,114.3,190.3Q114.5,191.6,115.0,192.2Q115.2,192.6,115.4,192.6Q115.6,192.6,115.7,192.5Q115.8,192.4,115.8,191.9Q116.0,191.2,116.1,190.8L116.9,191.1ZM110.9,191.8L112.4,191.6L112.9,191.5L113.0,192.4Q109.9,192.9,108.1,193.1L107.9,192.2L110.0,191.9L110.0,189.5L108.2,189.5L108.2,188.6L112.6,188.6L112.6,189.5L110.9,189.5L110.9,191.8ZM125.4,191.5Q126.1,192.3,127.1,193.0L126.7,193.8Q125.5,193.0,124.8,192.2Q124.1,193.0,122.8,193.9L122.3,193.1Q123.5,192.3,124.3,191.4Q123.4,190.1,123.1,188.3L123.0,188.3Q123.0,189.5,122.9,190.4Q122.8,191.2,122.5,192.0Q122.3,192.7,121.9,193.6L121.2,193.0L121.2,193.7L120.3,193.7L120.3,190.3L119.4,190.3Q119.4,191.5,119.2,192.3Q119,193.1,118.6,193.9L117.8,193.4Q118.1,192.8,118.3,192.2Q118.5,191.6,118.5,190.8Q118.6,190.1,118.6,188.7L118.6,184.8L119.4,184.8L119.4,187.4L120.3,187.4L120.3,184.7L121.2,184.7L121.2,187.4L121.8,187.4L121.8,188.3L119.4,188.3L119.4,189.0L119.4,189.4L121.2,189.4L121.2,192.9Q121.7,191.8,121.9,190.8Q122.2,189.8,122.2,188.2L122.2,185.4Q123.2,185.4,124.4,185.2Q125.5,185.0,126.6,184.8L126.8,185.7Q125.9,185.9,124.9,186.1Q123.9,186.2,123.0,186.3L123.0,187.4L126.6,187.4L126.6,188.3Q126.4,189.3,126.1,190.1Q125.8,190.9,125.4,191.5ZM123.9,188.3Q124.2,189.7,124.8,190.8Q125.4,189.8,125.7,188.3L123.9,188.3ZM136.8,193.8Q135.0,193.6,133.8,193.4Q132.5,193.2,131.6,192.7Q131.1,193.1,130.3,193.4Q129.5,193.7,128.3,193.9L128.0,193.1Q129.8,192.6,130.6,192.2Q129.9,191.8,129.3,191.2L129.9,190.6Q130.7,191.3,131.4,191.7Q131.8,191.3,131.9,190.5L128.9,190.5L128.9,186.6L132.0,186.6L132.0,185.9L128.2,185.9L128.2,185L136.8,185L136.8,185.9L132.9,185.9L132.9,186.6L136.1,186.6L136.1,190.5L132.9,190.5Q132.8,191.5,132.3,192.1Q133.1,192.4,134.2,192.6Q135.3,192.8,137,192.8L136.8,193.8ZM132.0,188.2L132.0,187.4L129.8,187.4L129.8,188.2L132.0,188.2ZM135.2,188.2L135.2,187.4L132.9,187.4L132.9,188.2L135.2,188.2ZM129.8,188.9L129.8,189.7L132.0,189.7L132.0,189.6L132.0,188.9L129.8,188.9ZM132.9,189.7L135.2,189.7L135.2,188.9L132.9,188.9L132.9,189.6L132.9,189.7ZM142.6,190.3L140.8,190.3L140.8,192.7Q140.8,193.1,140.7,193.3Q140.7,193.5,140.5,193.6Q140.3,193.7,139.9,193.7Q139.4,193.7,139.1,193.7L138.9,192.8Q139.1,192.9,139.2,192.9Q139.4,192.9,139.6,192.9Q139.8,192.9,139.9,192.8Q140.0,192.7,140.0,192.3L140.0,190.3L138.0,190.3L138.0,189.5L140.0,189.5L140.0,188.5L137.9,188.5L137.9,187.7L139.1,187.7Q139.0,187.1,138.8,186.4L138.1,186.4L138.1,185.6L140.0,185.6L139.6,184.7L140.5,184.5Q140.7,185.0,140.9,185.6L142.6,185.6L142.6,186.4L142.0,186.4Q141.8,187.0,141.6,187.7L142.7,187.7L142.7,188.5L140.8,188.5L140.8,189.5L142.6,189.5L142.6,190.3ZM147.0,187.8L147.0,188.7L146.0,188.7L146.0,193.7L145.2,193.7L145.2,188.7L144.0,188.7L144.0,188.8Q144.0,190.2,143.9,191.0Q143.8,191.8,143.6,192.4Q143.3,193.1,142.8,193.9L142.0,193.3Q142.5,192.7,142.7,192.1Q142.9,191.5,143.0,190.7Q143.1,189.9,143.1,188.7L143.1,185.5Q144.1,185.4,145.0,185.2Q145.9,185.1,146.6,184.8L146.8,185.7Q146.3,185.8,145.5,186.0Q144.7,186.2,144.0,186.3L144.0,187.8L147.0,187.8ZM139.6,186.4Q139.8,187.2,139.9,187.7L140.8,187.7Q141,187.1,141.2,186.4L139.6,186.4ZM141.9,190.7Q142.1,191.1,142.4,191.9Q142.4,192.0,142.4,192.1Q142.5,192.2,142.5,192.3L141.8,192.6Q141.6,192.1,141.2,190.9L141.9,190.7ZM139.5,190.9Q139.3,191.5,139.0,192.2Q138.7,192.8,138.5,193.3L137.8,192.9Q138.0,192.5,138.3,191.9Q138.5,191.3,138.7,190.7L139.5,190.9ZM164.8,193L163.5,193L161.5,190.1L161.4,190.1L160.2,190.1L160.2,193L159.1,193L159.1,185.7L161.4,185.7Q162.2,185.7,162.8,186.0Q163.4,186.2,163.8,186.7Q164.1,187.2,164.1,187.9Q164.1,188.6,163.7,189.2Q163.3,189.7,162.6,189.9L164.8,193ZM160.2,186.6L160.2,189.2L161.3,189.2Q162.1,189.2,162.5,188.8Q163.0,188.5,163.0,187.9Q163.0,187.3,162.5,187.0Q162.1,186.6,161.3,186.6L160.2,186.6ZM169.9,189.7L166.7,189.7L166.7,192.1L170.3,192.1L170.3,193L165.7,193L165.7,185.7L170.2,185.7L170.2,186.6L166.7,186.6L166.7,188.8L169.9,188.8L169.9,189.7ZM171.7,185.7L172.7,185.7L172.7,192.0L176.2,192.0L176.2,193L171.7,193L171.7,185.7ZM181.6,189.7L178.4,189.7L178.4,192.1L182.1,192.1L182.1,193L177.4,193L177.4,185.7L181.9,185.7L181.9,186.6L178.4,186.6L178.4,188.8L181.6,188.8L181.6,189.7ZM186.3,185.7L189.3,193L188.1,193L187.4,191.0L184.4,191.0L183.7,193L182.6,193L185.4,185.7L186.3,185.7ZM187,190.1L185.8,187.1L184.7,190.1L187,190.1ZM194.9,190.9Q194.9,191.6,194.6,192.1Q194.2,192.6,193.7,192.8Q193.1,193.1,192.3,193.1Q191.3,193.1,190.5,192.6Q189.7,192.1,189.5,191.3L190.4,190.8Q190.6,191.4,191.1,191.8Q191.6,192.1,192.4,192.1Q193.0,192.1,193.4,191.8Q193.8,191.6,193.8,191.1Q193.8,190.6,193.5,190.4Q193.3,190.1,192.9,190.0Q192.6,189.8,192,189.6Q191.3,189.4,190.8,189.2Q190.4,189.0,190.1,188.6Q189.8,188.3,189.8,187.6Q189.8,187.0,190.1,186.5Q190.5,186.0,191.1,185.8Q191.6,185.6,192.3,185.6Q193.3,185.6,193.9,186.0Q194.6,186.4,194.8,187.1L193.9,187.6Q193.5,186.5,192.3,186.5Q191.7,186.5,191.3,186.8Q190.9,187.1,190.9,187.6Q190.9,187.9,191.1,188.1Q191.4,188.3,191.7,188.5Q192.0,188.6,192.6,188.8Q193.3,189.0,193.8,189.2Q194.2,189.4,194.6,189.8Q194.9,190.2,194.9,190.9ZM200.2,189.7L197.1,189.7L197.1,192.1L200.7,192.1L200.7,193L196.0,193L196.0,185.7L200.6,185.7L200.6,186.6L197.1,186.6L197.1,188.8L200.2,188.8L200.2,189.7ZM209.4,185.7L210.5,185.7L210.5,190.0Q210.5,191.0,210.1,191.7Q209.8,192.4,209.1,192.7Q208.5,193.1,207.5,193.1Q206.6,193.1,206.0,192.7Q205.3,192.4,204.9,191.7Q204.6,191.0,204.6,190.0L204.6,185.7L205.7,185.7L205.7,189.8Q205.7,191.0,206.2,191.5Q206.6,192.1,207.5,192.1Q208.4,192.1,208.9,191.5Q209.4,191.0,209.4,189.8L209.4,185.7ZM214.4,185.7Q215.2,185.7,215.8,186.0Q216.4,186.3,216.8,186.8Q217.1,187.3,217.1,188Q217.1,188.7,216.8,189.2Q216.4,189.7,215.8,190.0Q215.2,190.3,214.4,190.3L213.2,190.3L213.2,193L212.1,193L212.1,185.7L214.4,185.7ZM214.3,189.4Q215.1,189.4,215.5,189.0Q215.9,188.6,215.9,188Q215.9,187.4,215.5,187.0Q215.1,186.6,214.3,186.6L213.2,186.6L213.2,189.4L214.3,189.4ZM220.3,185.7Q221.4,185.7,222.2,186.1Q223.1,186.5,223.6,187.4Q224.1,188.2,224.1,189.3Q224.1,190.5,223.6,191.3Q223.1,192.1,222.2,192.6Q221.4,193,220.3,193L218.2,193L218.2,185.7L220.3,185.7ZM220.2,192.1Q221.5,192.1,222.2,191.3Q222.9,190.6,222.9,189.3Q222.9,188.0,222.2,187.3Q221.5,186.6,220.2,186.6L219.2,186.6L219.2,192.1L220.2,192.1ZM228.0,185.7L231.0,193L229.8,193L229.0,191.0L226.1,191.0L225.3,193L224.3,193L227.1,185.7L228.0,185.7ZM228.7,190.1L227.5,187.1L226.4,190.1L228.7,190.1ZM230.3,185.7L235.9,185.7L235.9,186.6L233.6,186.6L233.6,193L232.6,193L232.6,186.6L230.3,186.6L230.3,185.7ZM241.1,189.7L237.9,189.7L237.9,192.1L241.5,192.1L241.5,193L236.8,193L236.8,185.7L241.4,185.7L241.4,186.6L237.9,186.6L237.9,188.8L241.1,188.8L241.1,189.7ZM250.6,189.5L250.6,192.4L254.2,192.4L254.2,193.4L245.2,193.4L245.2,192.4L246.6,192.4L246.6,187.5L247.6,187.5L247.6,192.4L249.6,192.4L249.6,186.2L245.6,186.2L245.6,185.3L253.9,185.3L253.9,186.2L250.6,186.2L250.6,188.5L253.6,188.5L253.6,189.5L250.6,189.5ZM264.1,191.1Q264.0,192.0,263.9,192.4Q263.7,193.2,263.4,193.4Q263.1,193.7,262.7,193.7Q262.3,193.7,262.0,193.4Q261.6,193.2,261.3,192.5Q260.9,191.8,260.6,190.4Q260.3,189.1,260.2,187.2L255.3,187.2L255.3,186.3L260.1,186.3Q260.1,184.9,260.1,184.6L261.1,184.6Q261.1,185.2,261.1,186.3L262.9,186.3Q262.6,186.0,262.3,185.7Q261.9,185.4,261.6,185.2L262.2,184.6Q262.5,184.8,262.9,185.1Q263.2,185.4,263.4,185.6L262.9,186.3L264.1,186.3L264.1,187.2L261.1,187.2Q261.3,189.1,261.5,190.3Q261.8,191.6,262.2,192.2Q262.4,192.6,262.7,192.6Q262.8,192.6,262.9,192.5Q263.0,192.4,263.1,191.9Q263.2,191.2,263.3,190.8L264.1,191.1ZM258.2,191.8L259.7,191.6L260.2,191.5L260.2,192.4Q257.1,192.9,255.3,193.1L255.2,192.2L257.2,191.9L257.2,189.5L255.5,189.5L255.5,188.6L259.8,188.6L259.8,189.5L258.2,189.5L258.2,191.8ZM272.6,191.5Q273.3,192.3,274.4,193.0L273.9,193.8Q272.8,193.0,272.1,192.2Q271.4,193.0,270.1,193.9L269.5,193.1Q270.8,192.3,271.5,191.4Q270.7,190.1,270.3,188.3L270.2,188.3Q270.2,189.5,270.1,190.4Q270.0,191.2,269.8,192.0Q269.6,192.7,269.1,193.6L268.4,193.0L268.4,193.7L267.6,193.7L267.6,190.3L266.7,190.3Q266.6,191.5,266.4,192.3Q266.2,193.1,265.8,193.9L265.0,193.4Q265.4,192.8,265.5,192.2Q265.7,191.6,265.8,190.8Q265.8,190.1,265.8,188.7L265.8,184.8L266.7,184.8L266.7,187.4L267.6,187.4L267.6,184.7L268.4,184.7L268.4,187.4L269.0,187.4L269.0,188.3L266.7,188.3L266.7,189.0L266.7,189.4L268.4,189.4L268.4,192.9Q269.0,191.8,269.2,190.8Q269.4,189.8,269.4,188.2L269.4,185.4Q270.4,185.4,271.6,185.2Q272.8,185.0,273.9,184.8L274.0,185.7Q273.2,185.9,272.1,186.1Q271.1,186.2,270.2,186.3L270.2,187.4L273.9,187.4L273.9,188.3Q273.6,189.3,273.3,190.1Q273.0,190.9,272.6,191.5ZM271.1,188.3Q271.4,189.7,272.1,190.8Q272.7,189.8,273.0,188.3L271.1,188.3ZM284.1,193.8Q282.2,193.6,281.0,193.4Q279.8,193.2,278.8,192.7Q278.3,193.1,277.5,193.4Q276.7,193.7,275.6,193.9L275.2,193.1Q277.1,192.6,277.9,192.2Q277.2,191.8,276.5,191.2L277.2,190.6Q277.9,191.3,278.6,191.7Q279.1,191.3,279.2,190.5L276.1,190.5L276.1,186.6L279.2,186.6L279.2,185.9L275.4,185.9L275.4,185L284.0,185L284.0,185.9L280.2,185.9L280.2,186.6L283.3,186.6L283.3,190.5L280.1,190.5Q280,191.5,279.5,192.1Q280.3,192.4,281.5,192.6Q282.6,192.8,284.2,192.8L284.1,193.8ZM279.2,188.2L279.2,187.4L277.1,187.4L277.1,188.2L279.2,188.2ZM282.4,188.2L282.4,187.4L280.2,187.4L280.2,188.2L282.4,188.2ZM277.1,188.9L277.1,189.7L279.2,189.7L279.2,189.6L279.2,188.9L277.1,188.9ZM280.2,189.7L282.4,189.7L282.4,188.9L280.2,188.9L280.2,189.6L280.2,189.7ZM289.8,190.3L288.1,190.3L288.1,192.7Q288.1,193.1,288.0,193.3Q287.9,193.5,287.7,193.6Q287.5,193.7,287.1,193.7Q286.7,193.7,286.3,193.7L286.2,192.8Q286.3,192.9,286.4,192.9Q286.7,192.9,286.9,192.9Q287.1,192.9,287.2,192.8Q287.2,192.7,287.2,192.3L287.2,190.3L285.3,190.3L285.3,189.5L287.2,189.5L287.2,188.5L285.1,188.5L285.1,187.7L286.3,187.7Q286.2,187.1,286.1,186.4L285.4,186.4L285.4,185.6L287.2,185.6L286.9,184.7L287.7,184.5Q288.0,185.0,288.2,185.6L289.8,185.6L289.8,186.4L289.2,186.4Q289.1,187.0,288.9,187.7L289.9,187.7L289.9,188.5L288.1,188.5L288.1,189.5L289.8,189.5L289.8,190.3ZM294.3,187.8L294.3,188.7L293.3,188.7L293.3,193.7L292.4,193.7L292.4,188.7L291.2,188.7L291.2,188.8Q291.2,190.2,291.1,191.0Q291.1,191.8,290.8,192.4Q290.6,193.1,290.1,193.9L289.2,193.3Q289.7,192.7,290.0,192.1Q290.2,191.5,290.3,190.7Q290.4,189.9,290.4,188.7L290.4,185.5Q291.3,185.4,292.2,185.2Q293.2,185.1,293.8,184.8L294.1,185.7Q293.6,185.8,292.8,186.0Q292.0,186.2,291.2,186.3L291.2,187.8L294.3,187.8ZM286.8,186.4Q287.0,187.2,287.1,187.7L288.1,187.7Q288.2,187.1,288.4,186.4L286.8,186.4ZM289.1,190.7Q289.3,191.1,289.6,191.9Q289.7,192.0,289.7,192.1Q289.7,192.2,289.8,192.3L289.0,192.6Q288.9,192.1,288.4,190.9L289.1,190.7ZM286.7,190.9Q286.5,191.5,286.3,192.2Q286.0,192.8,285.7,193.3L285.0,192.9Q285.3,192.5,285.5,191.9Q285.8,191.3,286.0,190.7L286.7,190.9ZM312.1,193L310.8,193L308.8,190.1L308.7,190.1L307.4,190.1L307.4,193L306.3,193L306.3,185.7L308.7,185.7Q309.5,185.7,310.1,186.0Q310.7,186.2,311.0,186.7Q311.3,187.2,311.3,187.9Q311.3,188.6,310.9,189.2Q310.6,189.7,309.9,189.9L312.1,193ZM307.4,186.6L307.4,189.2L308.6,189.2Q309.3,189.2,309.8,188.8Q310.2,188.5,310.2,187.9Q310.2,187.3,309.8,187.0Q309.3,186.6,308.6,186.6L307.4,186.6ZM317.1,189.7L314.0,189.7L314.0,192.1L317.6,192.1L317.6,193L312.9,193L312.9,185.7L317.5,185.7L317.5,186.6L314.0,186.6L314.0,188.8L317.1,188.8L317.1,189.7ZM318.9,185.7L320.0,185.7L320.0,192.0L323.5,192.0L323.5,193L318.9,193L318.9,185.7ZM328.8,189.7L325.7,189.7L325.7,192.1L329.3,192.1L329.3,193L324.6,193L324.6,185.7L329.2,185.7L329.2,186.6L325.7,186.6L325.7,188.8L328.8,188.8L328.8,189.7ZM333.6,185.7L336.5,193L335.4,193L334.6,191.0L331.6,191.0L330.9,193L329.8,193L332.7,185.7L333.6,185.7ZM334.2,190.1L333.1,187.1L332.0,190.1L334.2,190.1ZM342.1,190.9Q342.1,191.6,341.8,192.1Q341.5,192.6,340.9,192.8Q340.4,193.1,339.6,193.1Q338.6,193.1,337.8,192.6Q337.0,192.1,336.7,191.3L337.6,190.8Q337.9,191.4,338.4,191.8Q338.9,192.1,339.6,192.1Q340.3,192.1,340.7,191.8Q341.0,191.6,341.0,191.1Q341.0,190.6,340.8,190.4Q340.6,190.1,340.2,190.0Q339.9,189.8,339.2,189.6Q338.5,189.4,338.1,189.2Q337.7,189.0,337.4,188.6Q337.1,188.3,337.1,187.6Q337.1,187.0,337.4,186.5Q337.7,186.0,338.3,185.8Q338.9,185.6,339.6,185.6Q340.6,185.6,341.2,186.0Q341.8,186.4,342.0,187.1L341.2,187.6Q340.7,186.5,339.6,186.5Q338.9,186.5,338.6,186.8Q338.2,187.1,338.2,187.6Q338.2,187.9,338.4,188.1Q338.6,188.3,338.9,188.5Q339.3,188.6,339.8,188.8Q340.6,189.0,341.0,189.2Q341.5,189.4,341.8,189.8Q342.1,190.2,342.1,190.9ZM347.4,189.7L344.3,189.7L344.3,192.1L347.9,192.1L347.9,193L343.2,193L343.2,185.7L347.8,185.7L347.8,186.6L344.3,186.6L344.3,188.8L347.4,188.8L347.4,189.7ZM356.6,185.7L357.7,185.7L357.7,190.0Q357.7,191.0,357.4,191.7Q357.0,192.4,356.4,192.7Q355.7,193.1,354.8,193.1Q353.9,193.1,353.2,192.7Q352.6,192.4,352.2,191.7Q351.9,191.0,351.9,190.0L351.9,185.7L352.9,185.7L352.9,189.8Q352.9,191.0,353.4,191.5Q353.9,192.1,354.8,192.1Q355.7,192.1,356.2,191.5Q356.6,191.0,356.6,189.8L356.6,185.7ZM361.7,185.7Q362.4,185.7,363.1,186.0Q363.7,186.3,364.0,186.8Q364.3,187.3,364.3,188Q364.3,188.7,364.0,189.2Q363.7,189.7,363.1,190.0Q362.5,190.3,361.7,190.3L360.4,190.3L360.4,193L359.3,193L359.3,185.7L361.7,185.7ZM361.5,189.4Q362.3,189.4,362.8,189.0Q363.2,188.6,363.2,188Q363.2,187.4,362.8,187.0Q362.3,186.6,361.5,186.6L360.4,186.6L360.4,189.4L361.5,189.4ZM367.6,185.7Q368.6,185.7,369.5,186.1Q370.3,186.5,370.8,187.4Q371.3,188.2,371.3,189.3Q371.3,190.5,370.8,191.3Q370.3,192.1,369.5,192.6Q368.6,193,367.6,193L365.4,193L365.4,185.7L367.6,185.7ZM367.4,192.1Q368.7,192.1,369.5,191.3Q370.2,190.6,370.2,189.3Q370.2,188.0,369.5,187.3Q368.7,186.6,367.4,186.6L366.5,186.6L366.5,192.1L367.4,192.1ZM375.3,185.7L378.2,193L377.0,193L376.3,191.0L373.3,191.0L372.6,193L371.5,193L374.4,185.7L375.3,185.7ZM375.9,190.1L374.8,187.1L373.7,190.1L375.9,190.1ZM377.6,185.7L383.1,185.7L383.1,186.6L380.9,186.6L380.9,193L379.8,193L379.8,186.6L377.6,186.6L377.6,185.7ZM388.3,189.7L385.2,189.7L385.2,192.1L388.8,192.1L388.8,193L384.1,193L384.1,185.7L388.7,185.7L388.7,186.6L385.2,186.6L385.2,188.8L388.3,188.8L388.3,189.7ZM397.9,189.5L397.9,192.4L401.5,192.4L401.5,193.4L392.4,193.4L392.4,192.4L393.9,192.4L393.9,187.5L394.8,187.5L394.8,192.4L396.9,192.4L396.9,186.2L392.9,186.2L392.9,185.3L401.2,185.3L401.2,186.2L397.9,186.2L397.9,188.5L400.8,188.5L400.8,189.5L397.9,189.5ZM411.4,191.1Q411.2,192.0,411.1,192.4Q410.9,193.2,410.6,193.4Q410.4,193.7,410.0,193.7Q409.6,193.7,409.2,193.4Q408.9,193.2,408.5,192.5Q408.1,191.8,407.8,190.4Q407.5,189.1,407.4,187.2L402.5,187.2L402.5,186.3L407.4,186.3Q407.4,184.9,407.3,184.6L408.3,184.6Q408.3,185.2,408.3,186.3L410.1,186.3Q409.9,186.0,409.5,185.7Q409.2,185.4,408.9,185.2L409.5,184.6Q409.7,184.8,410.1,185.1Q410.5,185.4,410.7,185.6L410.1,186.3L411.3,186.3L411.3,187.2L408.4,187.2Q408.5,189.1,408.8,190.3Q409.0,191.6,409.5,192.2Q409.7,192.6,409.9,192.6Q410.1,192.6,410.2,192.5Q410.3,192.4,410.4,191.9Q410.5,191.2,410.6,190.8L411.4,191.1ZM405.4,191.8L406.9,191.6L407.4,191.5L407.5,192.4Q404.4,192.9,402.6,193.1L402.4,192.2L404.4,191.9L404.4,189.5L402.8,189.5L402.8,188.6L407.1,188.6L407.1,189.5L405.4,189.5L405.4,191.8ZM419.9,191.5Q420.6,192.3,421.6,193.0L421.2,193.8Q420.0,193.0,419.3,192.2Q418.6,193.0,417.4,193.9L416.8,193.1Q418.1,192.3,418.8,191.4Q417.9,190.1,417.6,188.3L417.5,188.3Q417.5,189.5,417.4,190.4Q417.3,191.2,417.0,192.0Q416.8,192.7,416.4,193.6L415.7,193.0L415.7,193.7L414.8,193.7L414.8,190.3L413.9,190.3Q413.9,191.5,413.7,192.3Q413.5,193.1,413.1,193.9L412.3,193.4Q412.6,192.8,412.8,192.2Q413.0,191.6,413.0,190.8Q413.1,190.1,413.1,188.7L413.1,184.8L413.9,184.8L413.9,187.4L414.8,187.4L414.8,184.7L415.7,184.7L415.7,187.4L416.3,187.4L416.3,188.3L413.9,188.3L413.9,189.0L413.9,189.4L415.7,189.4L415.7,192.9Q416.2,191.8,416.4,190.8Q416.6,189.8,416.6,188.2L416.6,185.4Q417.7,185.4,418.9,185.2Q420.0,185.0,421.1,184.8L421.3,185.7Q420.4,185.9,419.4,186.1Q418.4,186.2,417.5,186.3L417.5,187.4L421.1,187.4L421.1,188.3Q420.9,189.3,420.6,190.1Q420.3,190.9,419.9,191.5ZM418.4,188.3Q418.7,189.7,419.3,190.8Q419.9,189.8,420.2,188.3L418.4,188.3ZM431.3,193.8Q429.5,193.6,428.3,193.4Q427.0,193.2,426.1,192.7Q425.6,193.1,424.8,193.4Q424.0,193.7,422.8,193.9L422.4,193.1Q424.3,192.6,425.1,192.2Q424.4,191.8,423.8,191.2L424.4,190.6Q425.2,191.3,425.9,191.7Q426.3,191.3,426.4,190.5L423.4,190.5L423.4,186.6L426.5,186.6L426.5,185.9L422.7,185.9L422.7,185L431.3,185L431.3,185.9L427.4,185.9L427.4,186.6L430.6,186.6L430.6,190.5L427.4,190.5Q427.2,191.5,426.8,192.1Q427.6,192.4,428.7,192.6Q429.8,192.8,431.5,192.8L431.3,193.8ZM426.5,188.2L426.5,187.4L424.3,187.4L424.3,188.2L426.5,188.2ZM429.6,188.2L429.6,187.4L427.4,187.4L427.4,188.2L429.6,188.2ZM424.3,188.9L424.3,189.7L426.5,189.7L426.5,189.6L426.5,188.9L424.3,188.9ZM427.4,189.7L429.6,189.7L429.6,188.9L427.4,188.9L427.4,189.6L427.4,189.7ZM437.1,190.3L435.3,190.3L435.3,192.7Q435.3,193.1,435.2,193.3Q435.2,193.5,435.0,193.6Q434.8,193.7,434.4,193.7Q433.9,193.7,433.6,193.7L433.4,192.8Q433.6,192.9,433.6,192.9Q433.9,192.9,434.1,192.9Q434.4,192.9,434.4,192.8Q434.5,192.7,434.5,192.3L434.5,190.3L432.5,190.3L432.5,189.5L434.5,189.5L434.5,188.5L432.4,188.5L432.4,187.7L433.6,187.7Q433.5,187.1,433.3,186.4L432.6,186.4L432.6,185.6L434.5,185.6L434.1,184.7L435.0,184.5Q435.2,185.0,435.4,185.6L437.1,185.6L437.1,186.4L436.5,186.4Q436.3,187.0,436.1,187.7L437.2,187.7L437.2,188.5L435.3,188.5L435.3,189.5L437.1,189.5L437.1,190.3ZM441.5,187.8L441.5,188.7L440.5,188.7L440.5,193.7L439.7,193.7L439.7,188.7L438.5,188.7L438.5,188.8Q438.5,190.2,438.4,191.0Q438.3,191.8,438.1,192.4Q437.8,193.1,437.3,193.9L436.5,193.3Q437.0,192.7,437.2,192.1Q437.4,191.5,437.5,190.7Q437.6,189.9,437.6,188.7L437.6,185.5Q438.6,185.4,439.5,185.2Q440.4,185.1,441.1,184.8L441.4,185.7Q440.8,185.8,440.0,186.0Q439.2,186.2,438.5,186.3L438.5,187.8L441.5,187.8ZM434.1,186.4Q434.3,187.2,434.4,187.7L435.3,187.7Q435.5,187.1,435.7,186.4L434.1,186.4ZM436.4,190.7Q436.6,191.1,436.9,191.9Q436.9,192.0,436.9,192.1Q437.0,192.2,437.0,192.3L436.3,192.6Q436.1,192.1,435.7,190.9L436.4,190.7ZM434.0,190.9Q433.8,191.5,433.5,192.2Q433.2,192.8,433.0,193.3L432.3,192.9Q432.5,192.5,432.8,191.9Q433.0,191.3,433.2,190.7L434.0,190.9ZM459.3,193L458.0,193L456,190.1L455.9,190.1L454.7,190.1L454.7,193L453.6,193L453.6,185.7L455.9,185.7Q456.7,185.7,457.3,186.0Q457.9,186.2,458.3,186.7Q458.6,187.2,458.6,187.9Q458.6,188.6,458.2,189.2Q457.8,189.7,457.1,189.9L459.3,193ZM454.7,186.6L454.7,189.2L455.8,189.2Q456.6,189.2,457.0,188.8Q457.5,188.5,457.5,187.9Q457.5,187.3,457.0,187.0Q456.6,186.6,455.8,186.6L454.7,186.6ZM464.4,189.7L461.2,189.7L461.2,192.1L464.8,192.1L464.8,193L460.1,193L460.1,185.7L464.7,185.7L464.7,186.6L461.2,186.6L461.2,188.8L464.4,188.8L464.4,189.7ZM466.1,185.7L467.2,185.7L467.2,192.0L470.7,192.0L470.7,193L466.1,193L466.1,185.7ZM476.1,189.7L472.9,189.7L472.9,192.1L476.6,192.1L476.6,193L471.9,193L471.9,185.7L476.4,185.7L476.4,186.6L472.9,186.6L472.9,188.8L476.1,188.8L476.1,189.7ZM480.8,185.7L483.8,193L482.6,193L481.9,191.0L478.9,191.0L478.2,193L477.1,193L479.9,185.7L480.8,185.7ZM481.5,190.1L480.3,187.1L479.2,190.1L481.5,190.1ZM489.4,190.9Q489.4,191.6,489.1,192.1Q488.8,192.6,488.2,192.8Q487.6,193.1,486.9,193.1Q485.8,193.1,485.0,192.6Q484.2,192.1,484.0,191.3L484.9,190.8Q485.1,191.4,485.6,191.8Q486.1,192.1,486.9,192.1Q487.5,192.1,487.9,191.8Q488.3,191.6,488.3,191.1Q488.3,190.6,488.0,190.4Q487.8,190.1,487.4,190.0Q487.1,189.8,486.5,189.6Q485.8,189.4,485.3,189.2Q484.9,189.0,484.6,188.6Q484.3,188.3,484.3,187.6Q484.3,187.0,484.6,186.5Q485.0,186.0,485.6,185.8Q486.1,185.6,486.8,185.6Q487.8,185.6,488.4,186.0Q489.1,186.4,489.3,187.1L488.4,187.6Q488.0,186.5,486.8,186.5Q486.2,186.5,485.8,186.8Q485.4,187.1,485.4,187.6Q485.4,187.9,485.6,188.1Q485.9,188.3,486.2,188.5Q486.5,188.6,487.1,188.8Q487.8,189.0,488.3,189.2Q488.7,189.4,489.1,189.8Q489.4,190.2,489.4,190.9ZM494.7,189.7L491.6,189.7L491.6,192.1L495.2,192.1L495.2,193L490.5,193L490.5,185.7L495.1,185.7L495.1,186.6L491.6,186.6L491.6,188.8L494.7,188.8L494.7,189.7ZM503.9,185.7L505.0,185.7L505.0,190.0Q505.0,191.0,504.6,191.7Q504.3,192.4,503.6,192.7Q503.0,193.1,502.0,193.1Q501.1,193.1,500.5,192.7Q499.8,192.4,499.4,191.7Q499.1,191.0,499.1,190.0L499.1,185.7L500.2,185.7L500.2,189.8Q500.2,191.0,500.7,191.5Q501.1,192.1,502.0,192.1Q502.9,192.1,503.4,191.5Q503.9,191.0,503.9,189.8L503.9,185.7ZM508.9,185.7Q509.7,185.7,510.3,186.0Q510.9,186.3,511.3,186.8Q511.6,187.3,511.6,188Q511.6,188.7,511.3,189.2Q510.9,189.7,510.3,190.0Q509.7,190.3,508.9,190.3L507.6,190.3L507.6,193L506.6,193L506.6,185.7L508.9,185.7ZM508.8,189.4Q509.6,189.4,510.0,189.0Q510.4,188.6,510.4,188Q510.4,187.4,510.0,187.0Q509.6,186.6,508.8,186.6L507.6,186.6L507.6,189.4L508.8,189.4ZM514.8,185.7Q515.9,185.7,516.7,186.1Q517.6,186.5,518.1,187.4Q518.6,188.2,518.6,189.3Q518.6,190.5,518.1,191.3Q517.6,192.1,516.7,192.6Q515.9,193,514.8,193L512.7,193L512.7,185.7L514.8,185.7ZM514.7,192.1Q516.0,192.1,516.7,191.3Q517.4,190.6,517.4,189.3Q517.4,188.0,516.7,187.3Q516.0,186.6,514.7,186.6L513.7,186.6L513.7,192.1L514.7,192.1ZM522.5,185.7L525.5,193L524.3,193L523.5,191.0L520.6,191.0L519.9,193L518.8,193L521.6,185.7L522.5,185.7ZM523.2,190.1L522.0,187.1L520.9,190.1L523.2,190.1ZM524.8,185.7L530.4,185.7L530.4,186.6L528.1,186.6L528.1,193L527.0,193L527.0,186.6L524.8,186.6L524.8,185.7ZM535.5,189.7L532.4,189.7L532.4,192.1L536.0,192.1L536.0,193L531.3,193L531.3,185.7L535.9,185.7L535.9,186.6L532.4,186.6L532.4,188.8L535.5,188.8L535.5,189.7ZM545.1,189.5L545.1,192.4L548.7,192.4L548.7,193.4L539.6,193.4L539.6,192.4L541.1,192.4L541.1,187.5L542.1,187.5L542.1,192.4L544.1,192.4L544.1,186.2L540.1,186.2L540.1,185.3L548.4,185.3L548.4,186.2L545.1,186.2L545.1,188.5L548.1,188.5L548.1,189.5L545.1,189.5ZM558.6,191.1Q558.5,192.0,558.4,192.4Q558.2,193.2,557.9,193.4Q557.6,193.7,557.2,193.7Q556.8,193.7,556.5,193.4Q556.1,193.2,555.8,192.5Q555.4,191.8,555.1,190.4Q554.8,189.1,554.7,187.2L549.8,187.2L549.8,186.3L554.6,186.3Q554.6,184.9,554.6,184.6L555.6,184.6Q555.6,185.2,555.6,186.3L557.4,186.3Q557.1,186.0,556.8,185.7Q556.4,185.4,556.1,185.2L556.7,184.6Q557.0,184.8,557.4,185.1Q557.7,185.4,558.0,185.6L557.4,186.3L558.6,186.3L558.6,187.2L555.6,187.2Q555.8,189.1,556.0,190.3Q556.3,191.6,556.7,192.2Q556.9,192.6,557.2,192.6Q557.3,192.6,557.4,192.5Q557.5,192.4,557.6,191.9Q557.7,191.2,557.8,190.8L558.6,191.1ZM552.7,191.8L554.2,191.6L554.7,191.5L554.7,192.4Q551.6,192.9,549.8,193.1L549.7,192.2L551.7,191.9L551.7,189.5L550,189.5L550,188.6L554.3,188.6L554.3,189.5L552.7,189.5L552.7,191.8ZM567.1,191.5Q567.8,192.3,568.9,193.0L568.4,193.8Q567.3,193.0,566.6,192.2Q565.9,193.0,564.6,193.9L564.0,193.1Q565.3,192.3,566.0,191.4Q565.2,190.1,564.8,188.3L564.7,188.3Q564.7,189.5,564.6,190.4Q564.5,191.2,564.3,192.0Q564.0,192.7,563.6,193.6L562.9,193.0L562.9,193.7L562.1,193.7L562.1,190.3L561.2,190.3Q561.1,191.5,560.9,192.3Q560.8,193.1,560.3,193.9L559.5,193.4Q559.9,192.8,560.0,192.2Q560.2,191.6,560.3,190.8Q560.3,190.1,560.3,188.7L560.3,184.8L561.2,184.8L561.2,187.4L562.1,187.4L562.1,184.7L563.0,184.7L563.0,187.4L563.5,187.4L563.5,188.3L561.2,188.3L561.2,189.0L561.2,189.4L562.9,189.4L562.9,192.9Q563.5,191.8,563.7,190.8Q563.9,189.8,563.9,188.2L563.9,185.4Q564.9,185.4,566.1,185.2Q567.3,185.0,568.4,184.8L568.5,185.7Q567.7,185.9,566.6,186.1Q565.6,186.2,564.7,186.3L564.7,187.4L568.4,187.4L568.4,188.3Q568.1,189.3,567.8,190.1Q567.5,190.9,567.1,191.5ZM565.6,188.3Q566.0,189.7,566.6,190.8Q567.2,189.8,567.5,188.3L565.6,188.3ZM578.5,193.8Q576.7,193.6,575.5,193.4Q574.3,193.2,573.3,192.7Q572.8,193.1,572.0,193.4Q571.2,193.7,570.0,193.9L569.7,193.1Q571.6,192.6,572.4,192.2Q571.7,191.8,571.0,191.2L571.7,190.6Q572.5,191.3,573.1,191.7Q573.6,191.3,573.7,190.5L570.6,190.5L570.6,186.6L573.7,186.6L573.7,185.9L570.0,185.9L570.0,185L578.5,185L578.5,185.9L574.7,185.9L574.7,186.6L577.8,186.6L577.8,190.5L574.6,190.5Q574.5,191.5,574.0,192.1Q574.8,192.4,576.0,192.6Q577.1,192.8,578.8,192.8L578.5,193.8ZM573.7,188.2L573.7,187.4L571.6,187.4L571.6,188.2L573.7,188.2ZM576.9,188.2L576.9,187.4L574.7,187.4L574.7,188.2L576.9,188.2ZM571.6,188.9L571.6,189.7L573.7,189.7L573.7,189.6L573.7,188.9L571.6,188.9ZM574.7,189.7L576.9,189.7L576.9,188.9L574.7,188.9L574.7,189.6L574.7,189.7ZM584.3,190.3L582.6,190.3L582.6,192.7Q582.6,193.1,582.5,193.3Q582.4,193.5,582.2,193.6Q582.0,193.7,581.6,193.7Q581.2,193.7,580.8,193.7L580.7,192.8Q580.8,192.9,580.9,192.9Q581.2,192.9,581.4,192.9Q581.6,192.9,581.7,192.8Q581.7,192.7,581.7,192.3L581.7,190.3L579.8,190.3L579.8,189.5L581.7,189.5L581.7,188.5L579.6,188.5L579.6,187.7L580.8,187.7Q580.7,187.1,580.5,186.4L579.9,186.4L579.9,185.6L581.7,185.6L581.4,184.7L582.2,184.5Q582.5,185.0,582.7,185.6L584.3,185.6L584.3,186.4L583.7,186.4Q583.6,187.0,583.4,187.7L584.5,187.7L584.5,188.5L582.6,188.5L582.6,189.5L584.3,189.5L584.3,190.3ZM588.8,187.8L588.8,188.7L587.8,188.7L587.8,193.7L586.9,193.7L586.9,188.7L585.7,188.7L585.7,188.8Q585.7,190.2,585.6,191.0Q585.6,191.8,585.3,192.4Q585.1,193.1,584.6,193.9L583.7,193.3Q584.2,192.7,584.5,192.1Q584.7,191.5,584.8,190.7Q584.9,189.9,584.9,188.7L584.9,185.5Q585.8,185.4,586.7,185.2Q587.7,185.1,588.3,184.8L588.6,185.7Q588.1,185.8,587.3,186.0Q586.5,186.2,585.7,186.3L585.7,187.8L588.8,187.8ZM581.3,186.4Q581.5,187.2,581.6,187.7L582.6,187.7Q582.8,187.1,582.9,186.4L581.3,186.4ZM583.6,190.7Q583.8,191.1,584.1,191.9Q584.2,192.0,584.2,192.1Q584.2,192.2,584.3,192.3L583.5,192.6Q583.4,192.1,582.9,190.9L583.6,190.7ZM581.2,190.9Q581.0,191.5,580.8,192.2Q580.5,192.8,580.2,193.3L579.5,192.9Q579.8,192.5,580.0,191.9Q580.3,191.3,580.5,190.7L581.2,190.9Z" fill="#FFFFFF" fill-opacity="0.2"/></g></g></svg>